<?xml version="1.0" standalone="no"?>
<!DOCTYPE svg PUBLIC "-//W3C//DTD SVG 20010904//EN"
 "http://www.w3.org/TR/2001/REC-SVG-20010904/DTD/svg10.dtd">
<svg version="1.0" xmlns="http://www.w3.org/2000/svg"
 width="1300.000000pt" height="1300.000000pt" viewBox="0 0 1300.000000 1300.000000"
 preserveAspectRatio="xMidYMid meet">

<g transform="translate(0.000000,1300.000000) scale(0.100000,-0.100000)"
fill="#000000" stroke="none">
<path d="M960 12094 c-89 -31 -157 -104 -185 -200 -14 -47 -15 -175 -13 -1096
l3 -1043 24 -53 c14 -31 43 -70 72 -96 87 -78 67 -76 733 -76 l590 0 30 28 31
27 -24 -27 -24 -28 454 0 c511 0 512 0 593 71 25 22 57 65 73 97 l28 57 3 465
3 465 -33 -30 -33 -30 33 36 33 36 -3 594 c-3 580 -4 595 -24 640 -32 68 -82
119 -149 151 l-60 28 -1055 0 c-927 -1 -1060 -3 -1100 -16z m751 -326 c8 -14
6 -25 -5 -43 -9 -14 -16 -43 -16 -65 0 -34 -3 -41 -17 -38 -13 2 -18 13 -18
40 0 20 -6 43 -12 49 -20 20 -15 56 8 73 25 17 45 12 60 -16z m-132 4 c7 -13
6 -27 -5 -46 -8 -16 -14 -46 -14 -67 0 -32 -3 -39 -20 -39 -17 0 -20 7 -20 39
0 21 -6 51 -14 67 -20 37 -5 64 34 64 18 0 33 -7 39 -18z m259 6 c16 -16 15
-43 -3 -58 -9 -8 -15 -30 -15 -56 0 -32 -4 -44 -15 -44 -11 0 -15 12 -15 45 0
25 -4 45 -10 45 -16 0 -23 49 -10 65 15 18 51 20 68 3z m130 0 c16 -16 15 -43
-3 -58 -9 -8 -15 -30 -15 -56 0 -32 -4 -44 -15 -44 -11 0 -15 12 -15 44 0 26
-6 48 -15 56 -30 25 -11 70 30 70 12 0 26 -5 33 -12z m136 -4 c10 -26 7 -51
-9 -64 -9 -7 -14 -26 -12 -48 1 -28 -2 -37 -15 -40 -15 -3 -18 4 -18 38 0 22
-7 51 -16 65 -12 18 -13 28 -4 44 13 26 65 29 74 5z m134 -18 c2 -16 -1 -33
-7 -39 -6 -6 -11 -30 -11 -54 0 -36 -3 -43 -20 -43 -17 0 -20 7 -20 44 0 25
-4 48 -10 51 -11 7 -14 58 -3 69 4 4 21 6 38 4 25 -2 31 -8 33 -32z m132 13
c9 -16 8 -26 -4 -44 -9 -14 -16 -42 -16 -65 0 -33 -3 -40 -20 -40 -17 0 -20 7
-20 40 0 22 -5 49 -11 59 -7 10 -9 30 -5 44 5 22 12 27 36 27 19 0 33 -7 40
-21z m128 9 c16 -16 15 -43 -3 -58 -9 -8 -15 -30 -15 -56 0 -32 -4 -44 -15
-44 -11 0 -15 12 -15 44 0 26 -6 48 -15 56 -30 25 -11 70 30 70 12 0 26 -5 33
-12z m130 0 c16 -16 15 -43 -3 -58 -9 -8 -15 -30 -15 -56 0 -32 -4 -44 -15
-44 -11 0 -15 12 -15 44 0 26 -6 48 -15 56 -30 25 -11 70 30 70 12 0 26 -5 33
-12z m45 -199 c47 -13 111 -69 140 -123 22 -41 22 -47 24 -619 2 -483 0 -584
-12 -612 -22 -55 1 -53 58 4 l52 51 -38 0 c-26 0 -37 4 -37 15 0 11 12 15 44
15 26 0 48 6 56 15 7 8 17 15 23 15 6 0 22 10 36 22 14 13 18 14 9 4 -15 -17
-15 -21 -1 -42 8 -13 12 -32 8 -43 -9 -28 -51 -38 -73 -17 -17 14 -22 12 -72
-39 -48 -49 -52 -56 -39 -72 13 -16 12 -17 -3 -5 -9 8 -22 11 -27 7 -7 -4 -8
1 -4 12 6 17 5 17 -15 -1 -24 -21 -30 -42 -9 -30 6 4 -22 -28 -63 -70 -41 -42
-77 -76 -79 -76 -3 0 26 32 64 70 38 39 65 70 58 70 -6 0 -16 -7 -24 -16 -7
-8 -30 -24 -50 -35 -36 -18 -65 -19 -631 -19 -584 0 -594 0 -633 21 -58 31
-85 58 -111 114 l-24 50 0 578 c0 626 -1 609 55 683 13 18 48 44 77 58 l52 26
575 0 c375 0 589 -4 614 -11z m-1503 -194 c8 -10 30 -15 62 -15 42 0 49 -3 46
-17 -3 -14 -13 -18 -48 -18 -25 0 -49 -6 -53 -12 -10 -16 -49 -17 -65 -1 -18
18 -15 55 6 67 24 14 38 13 52 -4z m1855 -5 c15 -17 16 -24 7 -45 -12 -26 -54
-35 -67 -15 -3 6 -28 10 -56 10 -42 0 -49 3 -49 20 0 17 7 20 46 20 27 0 51 6
60 15 21 20 37 19 59 -5z m13 -158 c2 -12 -6 -26 -19 -36 -20 -14 -26 -14 -46
-1 -12 8 -43 15 -68 15 -38 0 -45 3 -45 20 0 17 7 20 48 20 26 0 56 7 66 15
17 13 23 13 40 1 12 -7 22 -22 24 -34z m-1862 29 c5 -6 29 -11 54 -13 32 -2
45 -7 45 -18 0 -11 -13 -16 -44 -18 -25 -2 -53 -9 -63 -17 -11 -7 -28 -10 -39
-8 -24 7 -36 48 -19 68 14 17 51 20 66 6z m1 -132 c5 -5 30 -11 54 -12 33 -2
45 -6 47 -19 3 -15 -4 -18 -44 -18 -30 0 -54 -6 -66 -17 -39 -35 -94 27 -56
65 15 15 50 16 65 1z m1853 -8 c15 -29 13 -39 -15 -57 -23 -15 -27 -15 -50 0
-13 9 -43 16 -65 16 -33 0 -41 3 -38 16 2 11 17 18 48 20 24 3 49 9 54 14 17
17 55 11 66 -9z m-1856 -126 c9 -9 33 -15 60 -15 34 0 46 -4 46 -15 0 -11 -12
-15 -47 -15 -29 0 -53 -6 -65 -17 -39 -35 -94 27 -56 65 16 16 44 15 62 -3z
m1856 -5 c25 -47 -20 -85 -65 -56 -13 9 -42 16 -65 16 -29 0 -40 4 -40 15 0
11 12 15 44 15 26 0 48 6 56 15 18 22 57 19 70 -5z m-1860 -125 c8 -10 30 -15
61 -15 37 0 49 -4 49 -15 0 -11 -11 -15 -39 -15 -22 0 -53 -8 -70 -17 -36 -21
-64 -10 -69 27 -6 40 43 65 68 35z m1854 -1 c9 -8 16 -22 16 -29 0 -37 -57
-58 -80 -30 -8 9 -30 15 -56 15 -32 0 -44 4 -44 15 0 11 12 15 44 15 26 0 48
6 56 15 16 19 44 19 64 -1z m-1858 -129 c10 -8 41 -15 67 -15 41 0 48 -3 45
-17 -2 -13 -15 -19 -48 -21 -25 -2 -49 -7 -54 -13 -6 -5 -19 -9 -31 -9 -42 0
-59 44 -29 74 19 20 25 20 50 1z m1859 -5 c15 -17 16 -24 7 -45 -12 -26 -49
-34 -67 -16 -6 6 -30 11 -55 13 -33 2 -46 8 -48 21 -3 14 4 17 43 17 28 0 52
6 61 15 21 20 37 19 59 -5z m255 -103 c0 -2 -17 -19 -37 -38 l-38 -34 34 38
c33 34 41 42 41 34z m-242 -51 c2 -9 -2 -23 -8 -31 -14 -17 -56 -20 -65 -5 -3
6 -28 10 -56 10 -42 0 -49 3 -49 20 0 17 7 20 48 20 26 0 56 7 66 15 17 13 23
13 40 1 12 -7 22 -21 24 -30z m-1862 25 c5 -6 29 -11 54 -13 33 -2 46 -8 48
-20 3 -15 -4 -18 -42 -18 -26 0 -55 -5 -65 -11 -10 -7 -30 -9 -44 -5 -22 5
-27 12 -27 35 0 16 6 32 13 34 21 9 52 7 63 -2z m2024 -54 c0 -2 -17 -19 -37
-38 l-38 -34 34 38 c33 34 41 42 41 34z m-2024 -81 c4 -9 15 -13 32 -10 37 7
72 -4 72 -21 0 -11 -12 -15 -45 -15 -25 0 -56 -7 -70 -16 -42 -28 -79 9 -59
60 8 20 63 21 70 2z m1854 -5 c15 -29 13 -39 -15 -57 -23 -15 -27 -15 -50 0
-13 9 -43 16 -65 16 -34 0 -41 3 -38 18 2 12 15 18 48 20 25 2 49 7 55 13 16
16 54 10 65 -10z m90 6 c0 -2 -17 -19 -37 -38 l-38 -34 34 38 c33 34 41 42 41
34z m-1944 -132 c4 -11 21 -15 55 -15 37 0 49 -4 49 -15 0 -11 -12 -15 -47
-15 -29 0 -53 -6 -65 -17 -39 -35 -94 27 -56 65 17 17 57 15 64 -3z m384 -337
c1 -24 7 -54 14 -67 16 -29 11 -47 -15 -62 -29 -15 -59 6 -59 41 0 16 5 32 10
35 6 3 10 26 10 51 0 37 3 44 20 44 17 0 20 -7 20 -42z m130 2 c0 -23 7 -51
15 -64 27 -40 -7 -82 -52 -65 -26 10 -30 44 -9 72 8 11 12 34 10 57 -3 35 -1
40 16 40 17 0 20 -7 20 -40z m130 -4 c0 -26 6 -48 15 -56 23 -19 18 -48 -10
-66 -24 -16 -27 -16 -45 1 -24 22 -26 48 -5 65 9 8 15 30 15 56 0 32 4 44 15
44 11 0 15 -12 15 -44z m130 0 c0 -27 6 -48 15 -56 21 -17 15 -49 -10 -66 -41
-27 -88 35 -50 66 9 8 15 30 15 56 0 32 4 44 15 44 11 0 15 -12 15 -44z m133
4 c-1 -19 5 -45 13 -58 34 -52 -12 -100 -58 -62 -23 19 -23 20 -5 50 9 18 17
50 17 72 0 32 3 39 18 36 13 -2 17 -12 15 -38z m137 -4 c0 -25 5 -48 10 -51 6
-3 10 -19 10 -35 0 -36 -30 -56 -60 -40 -21 11 -28 64 -10 75 6 3 10 26 10 51
0 37 3 44 20 44 17 0 20 -7 20 -44z m130 4 c0 -23 7 -51 15 -64 27 -40 -7 -82
-52 -65 -24 9 -31 47 -13 65 6 6 12 30 14 55 5 54 3 49 21 49 11 0 15 -11 15
-40z m130 -4 c0 -26 6 -48 15 -56 23 -19 18 -48 -10 -66 -24 -16 -27 -16 -45
1 -24 22 -26 48 -5 65 9 8 15 30 15 56 0 32 4 44 15 44 11 0 15 -12 15 -44z
m130 8 c0 -33 2 -35 18 -23 16 13 16 12 -1 -7 -16 -19 -16 -23 -2 -34 21 -17
19 -43 -5 -65 -18 -17 -21 -17 -46 -1 -24 17 -27 17 -47 -1 -21 -17 -21 -17 1
8 12 14 22 30 22 36 0 6 7 16 15 23 9 8 15 30 15 56 0 32 4 44 15 44 11 0 15
-11 15 -36z m-150 -199 c-24 -25 -46 -45 -49 -45 -3 0 15 20 39 45 24 25 46
45 49 45 3 0 -15 -20 -39 -45z m-60 -58 c0 -2 -17 -19 -37 -38 l-38 -34 34 38
c33 34 41 42 41 34z m895 -27 c10 -11 16 -20 13 -20 -3 0 -13 9 -23 20 -10 11
-16 20 -13 20 3 0 13 -9 23 -20z m-975 -53 c0 -2 -17 -19 -37 -38 l-38 -34 34
38 c33 34 41 42 41 34z"/>
<path d="M1512 11378 c-19 -19 -17 -1091 2 -1107 9 -8 165 -10 562 -9 l549 3
5 548 c3 302 1 555 -3 563 -7 12 -92 14 -555 14 -413 0 -551 -3 -560 -12z
m239 -125 c13 -16 12 -17 -3 -4 -17 13 -22 21 -14 21 2 0 10 -8 17 -17z m379
-4 c95 -15 176 -58 244 -128 128 -136 157 -309 80 -482 l-27 -60 34 -37 34
-37 -36 33 -36 33 -53 -51 c-172 -168 -427 -169 -601 -4 -133 128 -170 318
-95 488 13 28 49 79 80 113 37 41 55 67 50 75 -6 10 -5 11 7 1 12 -10 20 -9
37 3 28 20 96 44 152 54 63 11 58 11 130 -1z"/>
<path d="M2013 11058 c-47 -10 -52 -18 -26 -39 10 -9 34 -13 68 -11 65 4 122
-22 162 -74 23 -31 28 -49 31 -108 3 -45 10 -78 20 -91 16 -19 16 -19 -3 -3
-18 17 -20 16 -54 -24 -41 -48 -84 -68 -143 -68 -176 1 -249 205 -116 325 40
37 40 37 21 56 -19 19 -20 19 -55 -8 -70 -53 -107 -153 -88 -237 22 -101 90
-167 193 -188 78 -16 152 7 212 66 68 69 90 158 60 247 -40 118 -160 184 -282
157z"/>
<path d="M3930 12093 c-28 -10 -66 -37 -100 -72 -89 -90 -90 -93 -90 -548 0
-304 3 -383 13 -377 10 6 10 4 0 -7 -10 -10 -13 -156 -13 -660 0 -726 -1 -710
73 -795 21 -24 60 -57 85 -72 l47 -27 999 -3 1000 -2 30 27 31 28 -24 -27 -24
-28 69 0 c123 0 231 71 278 184 18 44 33 176 20 176 -4 0 -24 -15 -43 -32 -29
-28 -28 -25 7 14 l42 48 0 167 0 167 -42 46 c-33 34 -34 37 -8 12 20 -17 39
-32 43 -32 4 0 6 359 5 798 -3 643 -6 804 -17 834 -23 61 -82 129 -141 162
l-55 31 -1070 2 c-957 1 -1075 0 -1115 -14z m1865 -423 c19 -20 20 -34 22
-456 2 -338 5 -440 15 -453 11 -14 11 -14 -2 -4 -13 10 -15 0 -13 -83 l2 -94
-799 0 -800 0 0 523 c0 551 1 559 46 582 15 7 261 10 765 8 731 -3 744 -4 764
-23z m-1955 -493 c0 -2 -17 -19 -37 -38 l-38 -34 34 38 c33 34 41 42 41 34z
m2050 -472 c19 -19 32 -35 29 -35 -3 0 -20 16 -39 35 -19 19 -32 35 -29 35 3
0 20 -16 39 -35z m80 -80 c19 -19 32 -35 29 -35 -3 0 -20 16 -39 35 -19 19
-32 35 -29 35 3 0 20 -16 39 -35z m80 -80 c19 -19 32 -35 29 -35 -3 0 -20 16
-39 35 -19 19 -32 35 -29 35 3 0 20 -16 39 -35z m-185 -87 c26 -51 79 -151
116 -222 38 -72 69 -134 69 -138 0 -4 -464 -8 -1031 -8 -842 0 -1030 2 -1027
13 2 7 54 111 117 230 l114 217 797 0 797 0 48 -92z m265 7 c19 -19 32 -35 29
-35 -3 0 -20 16 -39 35 -19 19 -32 35 -29 35 3 0 20 -16 39 -35z m80 -80 c19
-19 32 -35 29 -35 -3 0 -20 16 -39 35 -19 19 -32 35 -29 35 3 0 20 -16 39 -35z
m-159 -322 c7 -53 4 -69 -17 -90 l-23 -23 -989 0 c-928 0 -991 1 -1011 18 -20
16 -36 76 -25 94 6 10 2064 11 2065 1z m189 -246 c0 -2 -17 -19 -37 -38 l-38
-34 34 38 c33 34 41 42 41 34z m-80 -80 c0 -2 -17 -19 -37 -38 l-38 -34 34 38
c33 34 41 42 41 34z m-80 -80 c0 -2 -17 -19 -37 -38 l-38 -34 34 38 c33 34 41
42 41 34z"/>
<path d="M4300 11135 l0 -485 720 0 719 0 1 485 0 485 -720 0 -720 0 0 -485z
m1040 120 c13 -14 21 -25 18 -25 -2 0 -15 11 -28 25 -13 14 -21 25 -18 25 2 0
15 -11 28 -25z m70 -70 c19 -19 32 -35 29 -35 -3 0 -20 16 -39 35 -19 19 -32
35 -29 35 3 0 20 -16 39 -35z m80 -80 c19 -19 32 -35 29 -35 -3 0 -20 16 -39
35 -19 19 -32 35 -29 35 3 0 20 -16 39 -35z m80 -80 c19 -19 32 -35 29 -35 -3
0 -20 16 -39 35 -19 19 -32 35 -29 35 3 0 20 -16 39 -35z m100 -100 c30 -30
52 -55 49 -55 -2 0 -29 25 -59 55 -30 30 -52 55 -49 55 2 0 29 -25 59 -55z"/>
<path d="M4278 10385 c-27 -52 -48 -97 -48 -100 0 -3 356 -5 790 -5 435 0 790
3 790 6 0 3 -21 48 -47 99 l-48 94 -695 0 -695 1 -47 -95z"/>
<path d="M4770 10200 c-11 -21 -20 -42 -20 -45 0 -3 122 -5 270 -5 149 0 270
2 270 5 0 3 -9 24 -20 45 l-20 40 -230 0 -230 0 -20 -40z"/>
<path d="M5212 10023 l3 -38 288 -3 287 -2 0 40 0 40 -291 0 -290 0 3 -37z"/>
<path d="M6903 12089 c-68 -26 -137 -96 -163 -166 -20 -53 -20 -75 -20 -1103
0 -1023 0 -1051 20 -1102 40 -105 135 -177 248 -185 l67 -5 -45 48 -45 49 50
-47 51 -48 1005 0 1006 0 61 31 c69 34 104 71 138 144 l24 50 0 655 c0 511 -3
659 -12 669 -10 11 -10 13 0 7 9 -6 12 77 12 397 l0 404 -31 61 c-35 72 -83
114 -157 142 -51 19 -80 20 -1105 19 -1027 0 -1053 -1 -1104 -20z m1934 -457
c125 -64 246 -209 273 -325 10 -44 24 -65 89 -132 l76 -80 -77 75 -78 74 0
-35 c0 -47 -26 -134 -55 -178 -30 -48 -245 -281 -259 -281 -6 0 -35 20 -64 44
l-52 45 111 118 c140 149 159 176 166 246 7 73 -27 148 -98 218 -97 95 -185
119 -288 80 l-49 -18 -52 52 c-56 56 -56 57 10 90 69 36 114 45 200 42 72 -3
94 -8 147 -35z m-320 -268 c-23 -28 -96 -118 -162 -199 -66 -82 -123 -153
-127 -159 -8 -12 -280 252 -275 267 1 4 94 81 207 172 l205 164 97 -96 97 -96
-42 -53z m-792 35 c33 -9 87 -57 318 -287 153 -153 285 -289 293 -304 20 -38
18 -112 -5 -156 -18 -35 -420 -442 -436 -442 -11 0 -735 726 -735 737 0 5 98
106 218 225 243 242 257 251 347 227z m-544 -509 c34 -33 66 -57 72 -53 5 3 7
1 4 -4 -4 -6 139 -157 318 -336 179 -178 325 -330 325 -338 0 -18 -30 -49 -49
-49 -20 0 -791 769 -791 789 0 19 29 51 46 51 7 0 41 -27 75 -60z m-5 -138
c-3 -5 17 -31 45 -58 l49 -48 -132 -133 c-73 -73 -140 -133 -149 -133 -9 0
-35 20 -57 44 l-40 43 -43 -41 c-24 -22 39 43 141 147 172 174 200 201 186
179z m-376 -375 c0 -2 -17 -19 -37 -38 l-38 -34 34 38 c33 34 41 42 41 34z
m825 -87 l48 -49 -131 -131 c-72 -71 -139 -130 -149 -130 -18 0 -93 67 -93 84
0 10 260 276 270 276 3 0 28 -22 55 -50z m-855 -465 c19 -19 32 -35 29 -35 -3
0 -20 16 -39 35 -19 19 -32 35 -29 35 3 0 20 -16 39 -35z m80 -80 c19 -19 32
-35 29 -35 -3 0 -20 16 -39 35 -19 19 -32 35 -29 35 3 0 20 -16 39 -35z m80
-80 c19 -19 32 -35 29 -35 -3 0 -20 16 -39 35 -19 19 -32 35 -29 35 3 0 20
-16 39 -35z"/>
<path d="M7430 10987 c-56 -28 -64 -117 -13 -157 76 -59 180 26 138 113 -24
52 -75 69 -125 44z m84 -43 c18 -18 20 -47 6 -75 -8 -13 -21 -19 -45 -19 -56
0 -78 51 -42 98 13 17 62 15 81 -4z"/>
<path d="M7814 10610 c-52 -21 -68 -82 -34 -137 37 -62 135 -50 159 19 28 80
-46 150 -125 118z m80 -46 c23 -22 20 -71 -3 -84 -48 -25 -93 -4 -93 45 0 14
5 32 12 40 16 20 64 19 84 -1z"/>
<path d="M9897 12096 c-84 -31 -152 -99 -183 -183 -10 -30 -13 -159 -14 -638
l0 -599 68 -71 67 -70 -67 65 -68 64 0 -450 c0 -306 4 -461 11 -483 11 -31 12
-32 33 -14 21 18 21 18 2 -4 -18 -22 -18 -23 3 -56 25 -41 74 -80 133 -107 40
-18 70 -20 497 -20 l454 0 -19 23 -19 22 26 -22 25 -23 595 0 c374 0 608 4
631 10 63 18 130 72 168 136 l35 59 3 1064 c3 1221 10 1125 -88 1223 -95 94
-8 88 -1209 88 -854 -1 -1053 -3 -1084 -14z m1667 -307 c68 -26 142 -95 176
-164 l25 -50 0 -535 0 -535 -23 -46 c-35 -71 -84 -122 -154 -160 l-63 -34
-530 0 -530 0 -58 30 c-74 37 -140 109 -167 182 -20 54 -21 69 -18 577 l3 521
35 64 c23 43 50 76 85 102 92 69 74 68 647 68 504 1 518 0 572 -20z m-1684
-1294 c19 -19 32 -35 29 -35 -3 0 -20 16 -39 35 -19 19 -32 35 -29 35 3 0 20
-16 39 -35z m80 -80 c19 -19 32 -35 29 -35 -3 0 -20 16 -39 35 -19 19 -32 35
-29 35 3 0 20 -16 39 -35z m80 -80 c19 -19 32 -35 29 -35 -3 0 -20 16 -39 35
-19 19 -32 35 -29 35 3 0 20 -16 39 -35z m80 -80 c19 -19 32 -35 29 -35 -3 0
-20 16 -39 35 -19 19 -32 35 -29 35 3 0 20 -16 39 -35z m200 32 c0 -2 -17 -19
-37 -38 l-38 -34 34 38 c33 34 41 42 41 34z m962 -106 c5 -29 17 -74 28 -99
11 -24 20 -46 20 -48 0 -2 -151 -4 -336 -4 -316 0 -336 1 -329 18 19 43 45
136 45 156 0 13 3 26 7 29 4 4 131 6 282 5 l276 -3 7 -54z m-1022 -65 l54 -61
-57 55 -57 54 -57 -54 -57 -55 54 61 c30 34 57 62 60 62 3 0 30 -28 60 -62z
m-180 -69 c0 -2 -17 -19 -37 -38 l-38 -34 34 38 c33 34 41 42 41 34z m280 -32
c19 -19 32 -35 29 -35 -3 0 -20 16 -39 35 -19 19 -32 35 -29 35 3 0 20 -16 39
-35z m1136 -47 c21 -21 28 -39 32 -82 l4 -56 -493 0 -493 0 44 -47 45 -48 -50
48 c-42 39 -57 47 -88 47 l-37 0 0 50 c0 41 5 56 29 82 l29 33 408 5 c499 6
534 4 570 -32z m-1496 -1 c0 -2 -17 -19 -37 -38 l-38 -34 34 38 c33 34 41 42
41 34z m430 -22 c13 -14 21 -25 18 -25 -2 0 -15 11 -28 25 -13 14 -21 25 -18
25 2 0 15 -11 28 -25z m-510 -58 c0 -2 -17 -19 -37 -38 l-38 -34 34 38 c33 34
41 42 41 34z m-80 -80 c0 -2 -17 -19 -37 -38 l-38 -34 34 38 c33 34 41 42 41
34z m840 -112 c19 -19 32 -35 29 -35 -3 0 -20 16 -39 35 -19 19 -32 35 -29 35
3 0 20 -16 39 -35z m80 -80 c19 -19 32 -35 29 -35 -3 0 -20 16 -39 35 -19 19
-32 35 -29 35 3 0 20 -16 39 -35z"/>
<path d="M10487 11687 c-51 -16 -103 -60 -127 -107 -19 -38 -20 -59 -20 -540
0 -547 -1 -534 60 -599 l31 -33 27 23 c21 18 23 19 9 3 -9 -11 -17 -23 -17
-26 0 -23 94 -28 549 -28 448 0 489 2 526 19 50 22 101 79 115 128 8 26 10
195 8 535 l-3 496 -30 44 c-17 23 -51 54 -75 68 l-45 25 -485 2 c-352 1 -495
-1 -523 -10z m611 -192 c82 -20 147 -53 209 -109 111 -100 158 -216 151 -369
-8 -158 -77 -285 -198 -365 -92 -62 -180 -86 -288 -79 -105 6 -140 16 -214 61
l-56 33 -23 -21 -23 -21 18 22 c18 22 18 23 -17 62 -105 116 -147 249 -126
396 26 186 170 344 355 389 77 19 135 19 212 1z m-448 -878 c0 -2 -19 -21 -42
-42 l-43 -40 40 43 c36 39 45 47 45 39z m-90 -90 c0 -2 -17 -19 -37 -38 l-38
-34 34 38 c33 34 41 42 41 34z"/>
<path d="M10900 11404 c-151 -41 -259 -161 -279 -309 -4 -30 -5 -55 -2 -55 3
0 22 24 41 52 51 77 154 182 248 255 45 36 82 67 82 69 0 7 -34 3 -90 -12z"/>
<path d="M1005 9193 c-73 -16 -156 -69 -189 -121 -59 -95 -57 -40 -54 -1188
l3 -1049 21 -46 c28 -60 87 -119 150 -150 l49 -24 840 -3 840 -2 -235 234
c-225 227 -235 235 -253 218 -17 -16 -63 -17 -526 -20 -467 -2 -509 -1 -541
15 -73 37 -70 1 -68 820 3 720 3 732 24 759 38 51 51 52 572 53 533 1 534 1
572 -61 20 -32 20 -48 20 -763 -1 -610 -3 -734 -15 -755 -14 -25 -10 -29 223
-262 l237 -238 185 0 c135 0 190 3 199 13 11 10 12 9 6 -1 -5 -10 1 -12 32 -7
94 17 181 83 225 173 l23 47 3 1040 c4 1192 8 1124 -79 1219 -30 33 -69 63
-101 77 l-53 24 -624 3 -625 3 -50 -48 -51 -48 45 48 44 47 -414 -1 c-228 -1
-424 -3 -435 -6z m755 -96 c0 -2 -15 -16 -32 -33 l-33 -29 29 33 c28 30 36 37
36 29z m1305 -692 l25 -24 0 -586 0 -586 -24 -24 c-13 -13 -39 -26 -57 -30
-19 -3 -194 -4 -389 -3 l-355 3 -3 638 -2 637 390 0 391 0 24 -25z"/>
<path d="M2565 8256 c-86 -38 -123 -152 -72 -226 38 -57 71 -75 137 -75 92 0
150 54 158 147 3 44 0 59 -20 88 -50 73 -129 99 -203 66z m108 -67 c28 -13 47
-48 47 -85 0 -37 -51 -84 -90 -84 -43 0 -90 47 -90 90 0 22 9 41 29 61 31 31
64 36 104 18z"/>
<path d="M2555 7861 c-95 -25 -183 -102 -216 -190 -30 -80 -24 -199 14 -264
36 -61 79 -103 141 -134 42 -22 65 -27 131 -27 127 -1 217 50 283 163 33 57
42 176 19 246 -42 121 -148 203 -274 210 -38 2 -81 1 -98 -4z m163 -173 c39
-24 72 -84 72 -131 0 -46 -40 -118 -78 -140 -65 -38 -170 -16 -214 46 -12 16
-23 51 -26 77 -13 135 127 219 246 148z"/>
<path d="M3967 9189 c-45 -11 -97 -36 -97 -48 0 -5 -9 -11 -19 -14 -11 -2 -33
-24 -50 -47 -62 -86 -61 -63 -61 -958 0 -774 1 -814 18 -801 15 12 15 11 -1
-8 -17 -19 -18 -40 -15 -250 3 -226 3 -228 31 -285 32 -64 80 -111 146 -142
46 -21 53 -21 1086 -24 695 -2 1056 1 1090 8 56 12 123 51 155 93 22 27 22 28
4 50 l-19 22 22 -19 23 -19 22 49 23 49 0 1060 0 1060 -22 47 c-30 66 -95 132
-156 159 -49 22 -66 24 -286 27 l-234 4 -51 -49 -51 -48 45 48 44 47 -804 -1
c-443 -1 -822 -5 -843 -10z m1553 -92 c0 -2 -17 -19 -37 -38 l-38 -34 34 38
c33 34 41 42 41 34z m-760 -277 c13 -13 20 -33 20 -60 l0 -40 -120 0 -120 0 0
44 c0 66 15 76 116 76 71 0 87 -3 104 -20z m730 0 c5 -8 10 -34 10 -57 l0 -43
-120 0 -120 0 0 40 c0 27 7 47 21 61 19 19 30 21 110 17 66 -2 92 -7 99 -18z
m-592 -162 l3 -38 -245 0 -246 0 0 28 c0 51 6 53 255 50 l230 -3 3 -37z m720
30 c7 -7 12 -25 12 -40 l0 -28 -250 0 -249 0 4 30 c2 16 6 34 10 40 9 15 457
14 473 -2z m-663 -110 l26 -23 0 -760 -1 -760 -26 -22 c-25 -23 -29 -23 -300
-23 l-275 0 -24 25 -25 24 0 745 c0 526 3 752 11 770 6 13 21 29 33 34 13 7
126 11 288 11 263 1 267 1 293 -21z m714 7 c16 -8 31 -25 35 -37 3 -13 6 -295
6 -628 l0 -604 63 -66 62 -65 -62 60 -63 59 0 -132 c0 -128 -1 -134 -25 -157
l-24 -25 -274 0 c-262 0 -275 1 -301 21 l-26 20 0 764 0 764 26 20 c25 20 39
21 291 21 212 0 270 -3 292 -15z m211 -1440 c19 -19 32 -35 29 -35 -3 0 -20
16 -39 35 -19 19 -32 35 -29 35 3 0 20 -16 39 -35z m80 -80 c19 -19 32 -35 29
-35 -3 0 -20 16 -39 35 -19 19 -32 35 -29 35 3 0 20 -16 39 -35z m80 -80 c19
-19 32 -35 29 -35 -3 0 -20 16 -39 35 -19 19 -32 35 -29 35 3 0 20 -16 39 -35z
m-1142 -52 l-3 -38 -240 0 -240 0 -3 23 c-8 53 -11 52 248 52 l241 0 -3 -37z
m730 0 l-3 -38 -240 0 -240 0 -3 38 -3 37 246 0 246 0 -3 -37z m492 -28 c19
-19 32 -35 29 -35 -3 0 -20 16 -39 35 -19 19 -32 35 -29 35 3 0 20 -16 39 -35z
m80 -80 c19 -19 32 -35 29 -35 -3 0 -20 16 -39 35 -19 19 -32 35 -29 35 3 0
20 -16 39 -35z"/>
<path d="M4585 8504 c-44 -23 -66 -45 -81 -81 -40 -94 12 -205 108 -232 122
-34 240 79 208 199 -28 104 -145 161 -235 114z m115 -69 c0 -33 2 -35 35 -35
34 0 35 -1 35 -40 0 -39 -1 -40 -34 -40 -33 0 -35 -2 -38 -37 -3 -36 -5 -38
-40 -41 l-38 -3 0 40 0 41 -41 0 -40 0 3 38 c3 35 5 37 41 40 35 3 37 5 37 38
0 33 1 34 40 34 39 0 40 -1 40 -35z"/>
<path d="M4580 7368 c-141 -71 -108 -285 48 -314 117 -22 227 94 193 206 -33
111 -140 159 -241 108z m190 -148 l0 -41 -112 3 c-110 3 -113 4 -116 26 -7 49
0 52 118 52 l110 0 0 -40z"/>
<path d="M5305 8501 c-79 -48 -112 -132 -80 -207 22 -53 50 -80 101 -100 76
-29 151 -2 198 70 37 56 34 136 -8 191 -49 64 -148 85 -211 46z m115 -66 c0
-33 2 -35 35 -35 29 0 36 -4 41 -25 10 -39 -1 -55 -40 -55 -33 0 -35 -2 -38
-37 -3 -36 -5 -38 -38 -38 -33 0 -35 2 -38 38 -3 35 -5 37 -38 37 -33 0 -34 1
-34 40 0 39 1 40 35 40 33 0 35 2 35 35 0 34 1 35 40 35 39 0 40 -1 40 -35z"/>
<path d="M5315 7376 c-41 -18 -82 -67 -96 -116 -16 -54 2 -113 50 -161 104
-105 281 -27 281 123 -1 118 -128 201 -235 154z m180 -156 l0 -35 -112 -3
-113 -3 0 41 0 41 113 -3 112 -3 0 -35z"/>
<path d="M6937 9186 c-94 -25 -182 -113 -207 -206 -7 -26 -9 -393 -8 -1097 3
-1002 4 -1060 21 -1091 18 -33 19 -34 40 -15 22 18 22 18 5 -3 -10 -11 -18
-25 -18 -31 0 -18 80 -84 129 -107 l46 -21 1065 0 1065 0 52 24 c60 27 126 93
154 154 16 37 19 68 19 278 0 174 -3 238 -12 248 -10 11 -10 13 0 7 9 -6 12
159 12 812 0 915 3 871 -71 956 -22 25 -65 57 -97 73 l-57 28 -840 3 -839 3
34 -38 35 -38 -40 38 -41 37 -199 -1 c-130 0 -217 -5 -248 -13z m1907 -420
c18 -7 44 -29 57 -47 l24 -34 0 -820 c0 -774 -1 -822 -18 -848 -10 -16 -32
-37 -50 -47 -31 -19 -57 -20 -845 -20 -890 0 -847 -3 -891 59 -12 16 -21 40
-21 52 0 20 -9 15 -67 -41 l-68 -65 63 65 62 66 3 794 c2 779 2 796 22 830 43
74 -4 70 893 70 662 0 808 -2 836 -14z m296 -1291 c30 -30 52 -55 49 -55 -2 0
-29 25 -59 55 -30 30 -52 55 -49 55 2 0 29 -25 59 -55z m100 -100 c19 -19 32
-35 29 -35 -3 0 -20 16 -39 35 -19 19 -32 35 -29 35 3 0 20 -16 39 -35z
m-2280 -428 c0 -2 -17 -19 -37 -38 l-38 -34 34 38 c33 34 41 42 41 34z m-80
-80 c0 -2 -17 -19 -37 -38 l-38 -34 34 38 c33 34 41 42 41 34z"/>
<path d="M7188 8725 c-15 -9 -32 -24 -38 -35 -6 -12 -10 -281 -10 -786 0 -728
1 -766 18 -753 16 13 16 13 0 -7 -29 -33 -23 -90 11 -125 l29 -29 812 0 812 0
29 29 29 29 1 614 c1 1063 2 1007 -16 1034 -9 14 -26 29 -38 33 -12 5 -380 9
-817 10 -688 0 -799 -1 -822 -14z m1490 -141 l-115 -116 -81 56 c-92 65 -161
97 -270 127 -102 29 -285 31 -387 5 -90 -23 -225 -86 -289 -134 -28 -21 -56
-42 -63 -45 -11 -7 -131 105 -212 196 l-24 27 778 0 779 0 -116 -116z m-1278
-177 c0 -5 -16 -28 -36 -50 -45 -53 -119 -202 -141 -287 -13 -48 -18 -103 -18
-210 0 -165 16 -234 86 -370 53 -105 73 -128 93 -111 14 12 13 16 -8 45 -87
117 -126 235 -133 406 -4 105 -2 139 16 214 37 155 113 281 237 394 233 213
581 260 866 116 54 -27 173 -115 206 -153 151 -169 216 -334 214 -541 -3 -373
-259 -682 -625 -756 -95 -19 -247 -15 -342 11 -135 35 -287 128 -376 228 -21
25 -40 38 -47 33 -17 -10 -15 -31 4 -47 13 -11 1 -27 -98 -126 -62 -62 -116
-113 -119 -113 -4 0 -8 350 -8 778 l-2 777 116 -115 c63 -63 115 -119 115
-123z m1448 -542 c1 -426 -1 -775 -3 -775 -8 0 -225 219 -225 227 0 5 13 24
29 44 70 85 129 210 157 335 25 114 16 302 -20 407 -34 100 -73 178 -125 247
-23 30 -40 58 -39 62 3 7 219 228 223 228 1 0 2 -349 3 -775z m-1313 -660 c63
-48 190 -107 280 -131 105 -28 304 -26 410 4 90 26 225 94 288 146 l43 35 114
-114 115 -115 -775 0 -775 0 115 115 c70 70 118 111 124 106 6 -5 34 -25 61
-46z"/>
<path d="M7909 8589 c-269 -35 -508 -237 -599 -509 -30 -90 -38 -267 -16 -369
56 -266 268 -487 536 -558 90 -24 271 -23 365 1 258 68 461 274 526 536 30
116 23 290 -14 398 -57 164 -162 300 -300 390 -95 61 -172 90 -285 107 -106
16 -116 16 -213 4z m235 -59 c45 -17 75 -157 56 -260 -9 -49 -37 -126 -54
-147 -1 -1 -20 4 -41 12 -22 8 -64 14 -92 15 -52 0 -53 0 -53 31 0 78 -44 219
-94 297 -15 24 -22 44 -16 47 36 22 241 26 294 5z m279 -122 c40 -30 139 -137
157 -169 25 -44 -91 -196 -187 -246 -90 -47 -107 -49 -121 -10 -6 18 -30 52
-51 75 l-40 43 28 32 c48 56 96 149 121 235 26 91 26 91 93 40z m-714 6 c78
-45 150 -122 187 -199 l33 -70 -43 -22 c-24 -12 -56 -36 -72 -53 -16 -16 -32
-30 -37 -30 -4 0 -30 18 -58 40 -64 50 -162 97 -233 112 -31 6 -56 15 -56 20
0 39 185 228 223 228 6 0 31 -12 56 -26z m406 -328 c99 -47 152 -136 142 -243
-4 -34 -11 -72 -17 -84 -22 -40 -84 -101 -124 -121 -49 -25 -145 -28 -197 -6
-50 22 -106 74 -132 122 -30 57 -30 165 0 221 64 120 206 169 328 111z m-421
-59 c31 -14 56 -27 56 -29 0 -2 -7 -25 -15 -52 -8 -27 -15 -66 -15 -87 0 -36
-1 -37 -42 -44 -120 -17 -202 -46 -285 -98 l-41 -26 -11 50 c-12 55 -14 173
-5 232 4 24 14 42 28 49 84 45 238 47 330 5z m989 -43 c14 -62 4 -264 -14
-275 -70 -44 -251 -50 -340 -11 -26 11 -49 24 -52 29 -4 5 0 31 8 58 8 26 15
64 15 84 l0 36 93 17 c66 13 116 29 177 61 47 24 89 43 95 42 5 -1 13 -19 18
-41z m-874 -328 l30 -28 -41 -52 c-51 -64 -104 -172 -118 -242 -6 -30 -14 -54
-16 -54 -14 0 -95 65 -143 114 -53 54 -55 55 -75 38 -21 -17 -21 -17 -3 5 17
20 18 24 4 44 -15 20 -14 26 9 72 48 93 146 179 242 212 l35 13 24 -47 c12
-26 36 -60 52 -75z m470 10 c59 -57 184 -116 294 -140 l28 -7 -30 -42 c-40
-58 -177 -187 -199 -187 -30 0 -134 67 -176 113 -35 38 -96 147 -96 172 0 6
20 21 44 33 24 13 56 37 72 53 15 16 30 29 33 29 3 0 16 -11 30 -24z m-288
-83 l66 -5 6 -63 c8 -80 39 -174 83 -248 19 -32 34 -60 34 -62 0 -11 -156 -27
-218 -21 -89 7 -107 16 -122 61 -33 100 -30 219 9 309 20 45 23 48 49 41 15
-3 57 -9 93 -12z"/>
<path d="M7953 7958 c-24 -12 -53 -64 -53 -98 0 -30 27 -77 51 -91 86 -46 183
21 165 114 -13 70 -96 107 -163 75z"/>
<path d="M9913 9186 c-89 -28 -147 -80 -187 -166 l-26 -55 0 -1056 c0 -1186
-5 -1108 76 -1198 45 -50 106 -83 178 -97 32 -5 37 -4 31 7 -6 11 -5 12 6 2 9
-9 60 -13 178 -13 l165 0 30 28 31 27 -24 -28 -25 -27 855 2 854 3 53 24 c56
25 118 87 148 149 18 35 19 86 19 1117 l0 1080 -25 48 c-29 58 -86 112 -149
141 -44 20 -61 21 -486 24 l-440 3 35 -38 35 -38 -40 38 -41 37 -604 -1 c-468
0 -614 -3 -647 -13z m1946 -496 c28 -14 37 -48 81 -295 22 -126 45 -255 50
-285 74 -397 118 -683 110 -705 -15 -39 -47 -51 -205 -79 -881 -154 -1008
-177 -1020 -184 -5 -4 -17 -5 -26 -4 -8 1 -165 -24 -348 -57 -352 -63 -366
-64 -395 -19 -8 13 -40 169 -71 348 -31 179 -78 448 -106 598 -27 151 -49 282
-49 292 0 11 10 30 23 45 20 23 44 29 272 70 248 43 646 114 1255 221 173 30
322 57 330 58 33 8 82 6 99 -4z m-1009 -1573 c0 -2 -12 -14 -27 -28 l-28 -24
24 28 c23 25 31 32 31 24z m-60 -60 c0 -2 -17 -19 -37 -38 l-38 -34 34 38 c33
34 41 42 41 34z m-80 -80 c0 -2 -17 -19 -37 -38 l-38 -34 34 38 c33 34 41 42
41 34z m-80 -80 c0 -2 -17 -19 -37 -38 l-38 -34 34 38 c33 34 41 42 41 34z
m-800 -114 c0 -8 -9 0 -50 45 l-45 47 48 -45 c26 -24 47 -45 47 -47z m720 34
c0 -2 -17 -19 -37 -38 l-38 -34 34 38 c33 34 41 42 41 34z m-670 -82 c19 -19
32 -35 29 -35 -3 0 -20 16 -39 35 -19 19 -32 35 -29 35 3 0 20 -16 39 -35z
m590 2 c0 -2 -17 -19 -37 -38 l-38 -34 34 38 c33 34 41 42 41 34z m-520 -72
c13 -14 21 -25 18 -25 -2 0 -15 11 -28 25 -13 14 -21 25 -18 25 2 0 15 -11 28
-25z"/>
<path d="M11675 8610 c-55 -10 -464 -83 -910 -161 -445 -78 -811 -143 -813
-145 -3 -2 40 -253 157 -918 27 -153 53 -282 58 -287 4 -4 26 -4 48 1 22 5 94
18 160 30 586 100 577 98 620 138 35 32 36 33 11 5 -17 -18 -25 -33 -19 -33
22 0 1046 180 1051 184 2 3 -69 418 -109 631 -24 128 -37 202 -75 418 -32 182
-12 167 -179 137z m15 -214 c0 -3 11 -65 24 -138 30 -167 89 -495 116 -652 11
-65 19 -120 18 -121 -2 -1 -32 -8 -68 -14 -179 -31 -592 -103 -639 -111 -32
-6 -65 -19 -80 -32 -23 -20 -24 -21 -8 -2 l18 21 -103 -18 c-57 -10 -113 -21
-125 -24 -26 -6 -23 -16 -58 185 -14 80 -47 271 -75 425 -27 154 -50 285 -50
291 0 6 129 33 303 63 166 29 394 70 507 91 239 44 220 41 220 36z m-1192
-138 c14 -17 33 -124 26 -143 -6 -16 -17 -20 -96 -34 -33 -6 -53 -5 -63 3 -21
15 -43 142 -28 157 25 25 144 38 161 17z m-239 -47 c6 -10 13 -48 17 -84 l7
-66 -39 -9 c-70 -18 -109 -22 -123 -13 -19 12 -43 129 -30 152 9 18 69 36 126
38 22 1 35 -5 42 -18z m279 -183 c18 -22 35 -138 22 -153 -16 -19 -138 -39
-155 -25 -18 15 -39 114 -31 145 5 18 16 25 53 33 68 14 99 14 111 0z m-251
-36 c14 -9 32 -82 33 -130 0 -38 -18 -48 -105 -58 -61 -7 -69 0 -80 76 -4 25
-8 47 -10 50 -1 3 1 14 5 25 5 15 22 23 66 31 76 15 77 15 91 6z m303 -232 c6
-10 13 -45 16 -77 8 -70 2 -77 -79 -90 -75 -13 -92 0 -105 79 -14 88 1 101
120 106 28 2 40 -3 48 -18z m-252 -32 c5 -7 16 -41 22 -75 16 -79 10 -87 -76
-103 -81 -16 -90 -9 -105 78 -13 74 -6 87 54 101 61 13 93 13 105 -1z m51
-256 c5 -10 13 -45 16 -78 6 -47 4 -62 -8 -72 -22 -18 -136 -37 -149 -24 -17
17 -38 134 -27 154 5 9 26 20 47 23 20 4 42 8 47 10 29 10 65 3 74 -13z"/>
<path d="M11450 8329 c-85 -16 -286 -52 -447 -80 -161 -29 -297 -55 -303 -59
-10 -6 10 -143 22 -156 3 -2 59 4 124 16 514 89 811 142 824 148 14 6 14 16 2
85 -17 92 3 87 -222 46z m174 -14 c3 -8 8 -37 12 -64 l6 -49 -58 -10 c-33 -6
-62 -7 -66 -4 -3 4 -9 32 -13 64 l-7 56 53 10 c30 5 57 10 60 11 4 0 9 -6 13
-14z m-161 -22 c3 -5 8 -33 11 -64 l7 -55 -60 -10 c-68 -11 -66 -13 -77 65 -7
54 -12 49 61 64 34 8 54 7 58 0z m-149 -80 c4 -31 3 -60 -1 -64 -4 -4 -33 -9
-63 -11 l-54 -3 -9 53 c-5 30 -6 56 -3 59 7 7 66 21 97 22 25 1 27 -3 33 -56z"/>
<path d="M11576 8281 c-3 -4 -18 -6 -33 -3 -27 5 -27 4 -11 -14 12 -14 14 -24
7 -37 -8 -13 -6 -17 5 -17 8 0 17 4 20 9 3 4 18 6 33 3 28 -5 28 -5 9 16 -15
18 -16 24 -6 37 10 12 10 15 -3 15 -9 0 -18 -4 -21 -9z"/>
<path d="M11395 8261 c-16 -3 -30 -12 -29 -19 1 -6 2 -24 3 -38 1 -25 3 -26
42 -21 22 3 43 7 45 10 3 3 2 21 -1 41 -7 37 -9 38 -60 27z m45 -25 c0 -17 -7
-26 -26 -30 -30 -8 -31 -8 -36 18 -2 14 4 22 22 27 39 11 40 11 40 -15z"/>
<path d="M11251 8181 c-34 -6 -56 -31 -28 -31 37 0 77 14 77 26 0 8 -3 13 -7
13 -5 -1 -23 -4 -42 -8z"/>
<path d="M1595 8471 c-126 -32 -189 -140 -154 -264 12 -43 59 -101 99 -122 43
-22 101 -28 148 -15 51 13 119 72 139 117 15 37 17 120 4 156 -13 34 -68 95
-100 111 -35 18 -99 26 -136 17z m89 -96 c87 -41 88 -168 1 -209 -73 -35 -153
12 -162 97 -5 39 -1 48 26 80 29 32 47 41 89 46 8 0 28 -6 46 -14z"/>
<path d="M1516 7940 c-299 -95 -379 -467 -147 -682 199 -184 511 -121 632 128
31 64 34 76 34 169 0 92 -3 105 -32 168 -89 188 -294 279 -487 217z m236 -216
c56 -38 88 -101 87 -169 0 -27 -4 -59 -9 -70 -6 -16 5 -34 64 -95 l71 -75 -72
69 -72 69 -30 -31 c-104 -112 -278 -85 -342 53 -35 75 -19 158 44 224 46 48
82 62 154 58 50 -2 71 -9 105 -33z"/>
<path d="M971 6269 c-77 -23 -147 -85 -183 -164 l-23 -50 -3 -1040 c-3 -1207
-9 -1130 87 -1226 91 -91 79 -89 619 -89 441 0 464 1 451 18 -13 16 -12 16 7
-1 20 -16 59 -18 601 -17 650 0 635 -1 717 71 25 22 57 65 73 97 l28 57 3
1000 2 999 -177 178 -177 178 -996 -1 c-611 0 -1008 -4 -1029 -10z m1349 -394
c-10 -12 37 -15 378 -17 l390 -3 26 -24 c14 -14 30 -41 36 -60 6 -22 10 -281
10 -666 -1 -608 -1 -631 -20 -671 -11 -22 -32 -46 -46 -52 -18 -9 -291 -12
-1027 -12 -984 0 -1003 0 -1035 20 -18 11 -37 32 -42 46 -6 15 -10 279 -10
680 0 724 -2 696 64 728 30 14 100 16 644 16 530 0 611 2 622 15 7 8 15 15 17
15 3 0 0 -7 -7 -15z m30 -1560 l0 -35 -285 0 -285 0 0 35 0 35 285 0 285 0 0
-35z m152 -72 c13 -12 18 -30 18 -70 l0 -53 -455 0 -455 0 0 41 c0 41 14 78
34 91 6 4 197 8 425 8 372 0 416 -2 433 -17z m-747 -353 c10 -11 16 -20 13
-20 -3 0 -13 9 -23 20 -10 11 -16 20 -13 20 3 0 13 -9 23 -20z"/>
<path d="M1068 5779 c-17 -9 -18 -52 -18 -662 0 -495 3 -656 12 -665 9 -9 247
-12 1010 -12 976 0 998 0 1008 19 6 13 10 237 10 659 0 605 -1 640 -18 655
-17 15 -102 17 -1003 17 -649 -1 -990 -4 -1001 -11z m320 -272 c4 -87 -4 -97
-75 -97 -83 0 -93 9 -93 83 0 37 5 68 12 75 9 9 37 12 83 10 l70 -3 3 -68z
m226 57 c11 -28 6 -130 -6 -142 -7 -7 -39 -12 -75 -12 -51 0 -64 3 -73 19 -14
27 -13 124 2 139 7 7 40 12 79 12 52 0 68 -4 73 -16z m-236 -216 c7 -7 12 -39
12 -73 0 -34 -5 -66 -12 -73 -15 -15 -112 -16 -139 -2 -16 9 -19 22 -19 73 0
36 5 68 12 75 7 7 39 12 73 12 34 0 66 -5 73 -12z m236 -4 c11 -28 6 -130 -6
-142 -15 -15 -112 -16 -139 -2 -16 9 -19 22 -19 73 0 36 5 68 12 75 7 7 40 12
79 12 52 0 68 -4 73 -16z m156 -18 c0 -2 -8 -10 -17 -17 -16 -13 -17 -12 -4 4
13 16 21 21 21 13z m-386 -222 c11 -28 6 -130 -6 -142 -7 -7 -39 -12 -73 -12
-34 0 -66 5 -73 12 -7 7 -12 39 -12 73 0 34 5 66 12 73 7 7 40 12 79 12 52 0
68 -4 73 -16z m224 4 c12 -12 17 -114 6 -142 -5 -13 -22 -16 -79 -16 -57 0
-74 3 -79 16 -11 28 -6 130 6 142 16 16 130 16 146 0z m-237 -228 c16 -9 19
-22 19 -78 0 -40 -5 -73 -12 -80 -14 -14 -126 -16 -146 -3 -9 5 -12 29 -10 82
3 73 3 74 33 80 48 10 95 10 116 -1z"/>
<path d="M3175 6110 c93 -93 172 -170 174 -170 11 0 -9 123 -26 162 -46 104
-156 178 -263 178 l-55 0 170 -170z"/>
<path d="M3933 6263 c-57 -20 -135 -92 -164 -150 -23 -46 -24 -59 -27 -307
l-4 -259 54 -56 53 -56 -52 50 -53 49 0 -791 c0 -858 -1 -849 55 -919 l23 -29
24 20 23 20 -19 -22 c-23 -28 -14 -42 53 -81 l46 -27 405 -3 c1100 -6 1240 -7
1240 -2 0 2 -15 20 -32 40 -33 35 -33 35 8 -3 l41 -38 254 3 c221 3 259 5 290
21 62 31 116 85 146 145 l28 57 0 1065 0 1065 -25 50 c-35 71 -96 128 -164
154 -57 21 -59 21 -1109 20 -907 0 -1058 -3 -1094 -16z m2287 -56 c0 -1 -30
-32 -67 -67 l-68 -65 65 68 c60 62 70 72 70 64z m-140 -140 c0 -2 -17 -19 -37
-38 l-38 -34 34 38 c33 34 41 42 41 34z m-80 -80 c0 -2 -17 -19 -37 -38 l-38
-34 34 38 c33 34 41 42 41 34z m-80 -80 c0 -2 -17 -19 -37 -38 l-38 -34 34 38
c33 34 41 42 41 34z m-716 -79 c12 -46 6 -55 -51 -84 -113 -55 -194 -172 -201
-290 -4 -66 -11 -74 -69 -74 -19 0 -23 5 -23 34 0 165 103 331 251 405 74 37
85 38 93 9z m636 -1 c0 -2 -17 -19 -37 -38 l-38 -34 34 38 c33 34 41 42 41 34z
m-80 -80 c0 -2 -17 -19 -37 -38 l-38 -34 34 38 c33 34 41 42 41 34z m-80 -80
c0 -2 -17 -19 -37 -38 l-38 -34 34 38 c33 34 41 42 41 34z m-80 -80 c0 -2 -17
-19 -37 -38 l-38 -34 34 38 c33 34 41 42 41 34z m283 -80 c18 -8 38 -21 45
-30 13 -16 172 -886 172 -945 0 -37 -34 -78 -72 -86 -12 -3 -205 -37 -428 -76
-223 -39 -481 -85 -575 -101 -175 -31 -215 -39 -612 -108 -166 -29 -239 -38
-256 -32 -30 12 -67 57 -67 82 0 10 -13 94 -30 186 -90 505 -120 682 -120 711
0 41 35 79 81 86 19 4 185 33 369 65 184 33 362 64 395 70 33 5 187 32 343 60
155 28 290 51 299 51 10 0 35 17 58 38 32 30 34 31 11 5 l-29 -32 39 6 c35 5
335 60 342 62 1 1 17 -5 35 -12z m-393 -1692 c19 -19 32 -35 29 -35 -3 0 -20
16 -39 35 -19 19 -32 35 -29 35 3 0 20 -16 39 -35z"/>
<path d="M5792 5380 c-18 -4 -35 -10 -38 -12 -6 -6 7 -93 16 -108 5 -8 22 -9
52 -5 69 10 73 15 62 77 -8 47 -12 53 -34 55 -14 1 -40 -2 -58 -7z"/>
<path d="M5627 5350 c-20 -4 -40 -9 -43 -12 -9 -10 9 -110 21 -114 7 -3 34 -1
61 3 48 9 49 9 48 44 -2 88 -10 94 -87 79z"/>
<path d="M5450 5321 l-35 -6 1 -53 c1 -30 6 -58 11 -63 9 -9 92 -2 112 10 8 5
8 22 0 64 -13 62 -12 62 -89 48z"/>
<path d="M5272 5288 c-38 -8 -43 -12 -39 -31 3 -12 9 -39 13 -61 l7 -38 50 6
c28 4 55 10 60 13 10 6 3 95 -8 113 -7 12 -25 11 -83 -2z"/>
<path d="M5102 5258 l-44 -9 7 -42 c13 -81 11 -80 69 -73 28 4 55 11 59 16 5
4 5 32 0 61 -9 61 -16 64 -91 47z"/>
<path d="M4931 5228 l-43 -10 6 -51 c4 -29 11 -56 16 -61 5 -5 31 -5 62 0 l53
9 -3 40 c-6 91 -7 92 -91 73z"/>
<path d="M4767 5200 c-21 -4 -41 -11 -46 -16 -4 -5 -3 -33 2 -61 8 -51 10 -53
40 -52 18 1 46 4 62 8 28 6 30 9 26 46 -4 52 -18 85 -33 84 -7 -1 -30 -5 -51
-9z"/>
<path d="M5782 5195 c-39 -6 -75 -15 -79 -18 -4 -4 -1 -44 7 -88 14 -88 10
-99 -37 -99 -12 0 -24 -4 -27 -9 -5 -8 10 -110 17 -117 4 -4 275 44 286 50 7
5 -30 248 -44 284 -5 14 -24 14 -123 -3z"/>
<path d="M4597 5170 c-21 -4 -42 -11 -47 -16 -8 -8 4 -101 15 -112 2 -2 29 -1
60 3 l55 6 -1 37 c-1 53 -13 87 -29 88 -8 1 -32 -1 -53 -6z"/>
<path d="M5581 5159 c-25 -5 -48 -12 -52 -16 -4 -5 -3 -32 3 -60 12 -58 14
-59 91 -47 35 6 37 9 36 43 -1 46 -12 84 -24 87 -6 1 -30 -2 -54 -7z"/>
<path d="M4421 5139 c-24 -5 -45 -10 -47 -12 -6 -6 7 -93 16 -107 6 -9 24 -11
65 -5 l57 7 -6 49 c-4 27 -9 56 -12 64 -7 16 -9 17 -73 4z"/>
<path d="M5402 5128 l-53 -10 7 -46 c11 -77 14 -80 80 -69 l56 11 -6 48 c-8
54 -15 79 -25 77 -3 -1 -30 -6 -59 -11z"/>
<path d="M4285 5115 c-5 -2 -27 -6 -49 -10 l-39 -6 6 -50 c3 -27 9 -54 13 -60
8 -13 102 -5 116 9 11 11 -13 114 -27 118 -5 1 -14 1 -20 -1z"/>
<path d="M5231 5098 l-53 -10 6 -49 c11 -78 9 -77 77 -66 l61 10 -7 46 c-8 59
-15 81 -23 80 -4 -1 -31 -6 -61 -11z"/>
<path d="M4081 5079 c-24 -5 -46 -11 -49 -13 -2 -3 -1 -30 3 -61 6 -52 8 -55
34 -55 16 0 43 3 60 6 28 6 31 10 31 45 0 41 -15 90 -27 88 -5 -1 -28 -5 -52
-10z"/>
<path d="M5031 5063 c-22 -4 -23 -8 -17 -56 9 -65 11 -67 49 -66 60 2 82 13
80 40 -8 84 -12 89 -51 88 -20 -1 -48 -4 -61 -6z"/>
<path d="M4853 5030 c-19 -8 -21 -14 -16 -47 10 -62 21 -86 39 -79 9 3 33 9
55 12 42 7 45 13 33 87 -6 36 -8 37 -48 36 -22 0 -51 -4 -63 -9z"/>
<path d="M4715 5006 l-50 -12 3 -44 c6 -72 13 -78 73 -69 28 5 54 10 56 13 9
9 -9 115 -21 119 -6 2 -33 -1 -61 -7z"/>
<path d="M4520 4971 c-23 -7 -25 -11 -22 -62 2 -30 6 -57 11 -62 4 -4 33 -2
65 5 l58 11 -7 45 c-4 24 -9 51 -12 58 -5 15 -50 17 -93 5z"/>
<path d="M5507 4963 c-35 -6 -40 -18 -30 -79 10 -54 13 -55 102 -39 l33 6 -7
46 c-11 78 -13 79 -98 66z"/>
<path d="M4345 4941 c-27 -6 -30 -10 -27 -38 2 -17 7 -44 11 -60 7 -25 11 -28
46 -24 21 1 48 7 60 11 21 8 21 11 12 64 -10 54 -11 56 -41 55 -17 -1 -44 -4
-61 -8z"/>
<path d="M5335 4931 c-34 -7 -40 -25 -27 -86 9 -43 16 -45 100 -30 36 7 35 -1
16 95 -6 32 -21 36 -89 21z"/>
<path d="M4136 4904 c-38 -7 -71 -15 -73 -18 -3 -3 -2 -30 2 -61 6 -48 9 -55
28 -55 27 0 179 29 185 35 2 2 1 29 -3 60 -6 54 -7 55 -38 54 -18 0 -63 -7
-101 -15z"/>
<path d="M5160 4901 c-23 -7 -25 -12 -24 -64 1 -32 4 -60 7 -63 5 -5 102 13
118 22 3 2 1 28 -4 59 -10 53 -11 55 -41 54 -17 -1 -42 -4 -56 -8z"/>
<path d="M4995 4873 c-44 -7 -48 -15 -35 -78 l12 -56 41 6 c81 13 80 11 73 68
-10 73 -8 72 -91 60z"/>
<path d="M4815 4841 c-28 -6 -30 -10 -28 -46 5 -82 9 -87 56 -80 80 12 80 12
72 62 -11 78 -18 82 -100 64z"/>
<path d="M5832 4835 c-34 -7 -65 -15 -68 -18 -7 -7 5 -90 16 -107 7 -11 26
-10 107 6 109 21 103 14 88 102 -5 30 -9 32 -43 31 -20 -1 -65 -7 -100 -14z"/>
<path d="M4657 4810 c-20 -4 -40 -10 -44 -13 -3 -4 -2 -30 3 -59 9 -53 9 -53
44 -51 71 5 80 11 80 48 0 44 -16 85 -32 84 -7 -1 -30 -5 -51 -9z"/>
<path d="M5630 4801 l-35 -6 1 -53 c1 -30 6 -58 12 -64 6 -6 29 -7 63 -1 59 9
59 8 43 101 -5 34 -11 36 -84 23z"/>
<path d="M4472 4780 c-18 -4 -35 -10 -38 -12 -4 -5 13 -109 20 -115 6 -6 90 7
105 17 10 5 11 21 4 61 -7 48 -11 54 -33 56 -14 1 -40 -2 -58 -7z"/>
<path d="M5463 4773 c-46 -6 -53 -19 -41 -82 l11 -53 49 6 c63 9 80 16 74 31
-2 7 -8 33 -11 59 -8 49 -6 48 -82 39z"/>
<path d="M4297 4748 c-41 -11 -40 -3 -21 -99 6 -30 7 -31 51 -24 75 11 75 11
68 69 -4 28 -9 54 -12 59 -6 9 -38 7 -86 -5z"/>
<path d="M5282 4738 c-42 -9 -43 -10 -37 -46 15 -90 10 -85 68 -78 29 4 56 11
60 16 5 4 5 32 0 61 -9 61 -16 64 -91 47z"/>
<path d="M4137 4720 c-20 -4 -40 -10 -43 -13 -10 -10 7 -108 21 -113 6 -3 34
-1 61 3 46 9 49 11 47 38 -7 97 -9 100 -86 85z"/>
<path d="M5111 4708 l-43 -10 6 -51 c4 -28 10 -55 13 -60 5 -8 79 -2 109 10 8
3 11 17 8 41 -12 91 -10 89 -93 70z"/>
<path d="M4951 4679 c-24 -5 -46 -11 -49 -13 -2 -3 -1 -31 3 -62 l7 -56 56 7
c32 4 60 9 64 11 15 10 -12 126 -30 123 -4 -1 -27 -5 -51 -10z"/>
<path d="M5931 4669 c-24 -5 -46 -11 -48 -13 -11 -10 10 -108 23 -113 8 -3 35
-1 62 4 51 10 53 14 37 101 -6 34 -7 34 -74 21z"/>
<path d="M4781 4649 c-25 -5 -47 -12 -51 -16 -4 -5 -2 -32 3 -62 l9 -53 51 6
c29 4 56 11 60 16 11 10 -5 113 -18 116 -5 1 -30 -2 -54 -7z"/>
<path d="M5753 4638 c-38 -8 -43 -12 -43 -37 0 -16 3 -43 6 -61 l7 -32 56 6
c31 4 59 10 63 14 12 12 -16 117 -32 118 -8 1 -34 -2 -57 -8z"/>
<path d="M4605 4616 c-49 -11 -50 -12 -48 -46 6 -81 8 -83 65 -76 29 4 56 10
60 12 12 8 -7 125 -20 123 -4 0 -29 -6 -57 -13z"/>
<path d="M5395 4574 c-274 -50 -581 -104 -769 -136 l-128 -22 6 -55 c4 -31 10
-59 14 -63 5 -5 105 9 223 31 118 22 286 52 374 67 88 15 250 43 360 63 l200
36 -1 36 c-1 52 -13 89 -27 88 -6 -1 -120 -21 -252 -45z"/>
<path d="M4426 4588 l-48 -11 6 -50 c4 -28 10 -55 13 -60 6 -10 95 -3 114 8 9
6 7 37 -7 103 -5 24 -7 24 -78 10z"/>
<path d="M4225 4552 c-49 -7 -94 -17 -98 -22 -9 -8 0 -89 12 -109 6 -9 29 -9
102 4 52 9 97 19 101 23 8 8 -9 103 -20 112 -4 4 -47 0 -97 -8z"/>
<path d="M4355 4391 c-28 -6 -30 -9 -26 -46 5 -60 18 -87 39 -81 9 3 34 8 55
12 40 7 43 14 31 87 -6 34 -9 37 -38 36 -17 -1 -44 -4 -61 -8z"/>
<path d="M4190 4363 c-14 -3 -28 -8 -33 -12 -7 -7 8 -109 17 -119 3 -2 30 2
61 8 l57 12 -7 51 c-4 29 -9 55 -12 60 -4 7 -40 7 -83 0z"/>
<path d="M6912 6263 c-66 -23 -147 -103 -172 -169 -20 -55 -20 -65 -18 -1117
l3 -1062 24 -49 c31 -63 82 -113 145 -142 49 -23 59 -24 301 -24 l249 0 36 33
35 32 -29 -32 c-20 -22 -25 -33 -15 -33 8 0 372 0 809 0 l795 0 65 33 c41 20
65 39 64 49 -1 8 6 15 14 14 10 -1 29 24 49 62 l33 64 0 819 c0 653 -3 819
-12 813 -10 -6 -10 -4 0 7 9 10 12 75 12 254 0 232 -1 242 -24 292 -32 68 -95
127 -162 153 -54 20 -71 20 -1107 19 -911 0 -1058 -3 -1095 -16z m-22 -128
c35 -36 62 -65 59 -65 -2 0 -34 29 -69 65 -35 36 -62 65 -59 65 2 0 34 -29 69
-65z m110 -110 c19 -19 32 -35 29 -35 -3 0 -20 16 -39 35 -19 19 -32 35 -29
35 3 0 20 -16 39 -35z m80 -80 c19 -19 32 -35 29 -35 -3 0 -20 16 -39 35 -19
19 -32 35 -29 35 3 0 20 -16 39 -35z m227 -65 l163 0 1 -167 c0 -93 0 -221 -1
-285 -1 -114 0 -117 27 -148 l28 -31 485 0 485 1 28 30 27 30 0 285 0 285 57
0 58 0 112 -112 113 -113 0 -782 0 -783 -880 0 -880 0 -2 905 c-2 571 0 901 7
895 5 -6 82 -10 172 -10z m1221 -286 l-3 -286 -24 -19 c-22 -18 -45 -19 -492
-19 -561 0 -509 -14 -509 143 0 67 -4 107 -12 115 -9 9 -9 12 0 12 9 0 12 44
12 170 l0 170 516 0 515 0 -3 -286z m742 -57 c0 -2 -17 -19 -37 -38 l-38 -34
34 38 c33 34 41 42 41 34z m-80 -80 c0 -2 -12 -14 -27 -28 l-28 -24 24 28 c23
25 31 32 31 24z"/>
<path d="M7324 4981 c-12 -5 -31 -22 -43 -37 -21 -26 -21 -34 -21 -375 l0
-349 750 0 750 0 0 353 0 353 -31 30 -30 29 -677 2 c-381 2 -686 -1 -698 -6z
m1309 -173 c10 -5 17 -20 17 -38 l0 -30 -637 2 -638 3 0 30 0 30 485 5 c734 8
754 8 773 -2z m12 -228 l0 -35 -635 0 -635 0 -3 23 c-8 54 -31 52 647 50 l626
-3 0 -35z m0 -200 l0 -35 -624 -3 c-452 -1 -628 1 -637 9 -15 12 -19 51 -7 62
3 4 290 6 637 5 l631 -3 0 -35z"/>
<path d="M8170 5800 c-19 -19 -20 -33 -20 -225 0 -251 -3 -245 118 -245 116 0
112 -9 112 248 0 250 4 242 -117 242 -60 0 -77 -4 -93 -20z"/>
<path d="M9883 6259 c-95 -37 -169 -131 -180 -232 l-6 -52 29 25 29 25 -27
-31 -28 -30 0 -1020 0 -1021 31 -61 c34 -69 71 -105 145 -138 l50 -24 578 0
c541 -1 580 1 600 17 19 17 20 17 7 1 -13 -17 11 -18 465 -18 455 0 481 1 523
20 66 31 114 73 147 132 l29 53 0 1080 0 1080 -24 49 c-33 67 -91 121 -157
146 -54 20 -73 20 -906 20 l-852 0 30 -32 29 -33 -35 33 -36 32 -154 0 c-154
0 -154 0 -184 -27 l-31 -28 24 28 24 27 -34 -1 c-19 0 -57 -9 -86 -20z m67
-43 c0 -2 -8 -10 -17 -17 -16 -13 -17 -12 -4 4 13 16 21 21 21 13z m490 -41
c19 -19 32 -35 29 -35 -3 0 -20 16 -39 35 -19 19 -32 35 -29 35 3 0 20 -16 39
-35z m-530 2 c0 -2 -17 -19 -37 -38 l-38 -34 34 38 c33 34 41 42 41 34z m610
-82 c19 -19 32 -35 29 -35 -3 0 -20 16 -39 35 -19 19 -32 35 -29 35 3 0 20
-16 39 -35z m-690 2 c0 -2 -17 -19 -37 -38 l-38 -34 34 38 c33 34 41 42 41 34z
m770 -82 c19 -19 32 -35 29 -35 -3 0 -20 16 -39 35 -19 19 -32 35 -29 35 3 0
20 -16 39 -35z m80 -80 c19 -19 32 -35 29 -35 -3 0 -20 16 -39 35 -19 19 -32
35 -29 35 3 0 20 -16 39 -35z m80 -80 c19 -19 32 -35 29 -35 -3 0 -20 16 -39
35 -19 19 -32 35 -29 35 3 0 20 -16 39 -35z m80 -80 c19 -19 32 -35 29 -35 -3
0 -20 16 -39 35 -19 19 -32 35 -29 35 3 0 20 -16 39 -35z m80 -80 c19 -19 32
-35 29 -35 -3 0 -20 16 -39 35 -19 19 -32 35 -29 35 3 0 20 -16 39 -35z m-140
-21 c80 -18 210 -81 271 -131 25 -21 56 -46 70 -56 13 -10 18 -15 10 -11 -9 5
-12 3 -7 -4 4 -7 13 -12 21 -12 8 0 17 -5 21 -12 4 -6 3 -8 -3 -5 -6 4 13 -29
43 -73 68 -103 104 -211 111 -340 25 -426 -323 -773 -748 -747 -181 11 -319
75 -454 211 -73 73 -99 107 -133 176 -53 108 -74 200 -74 321 0 259 145 501
371 618 173 88 316 107 501 65z m780 -5 c223 -59 403 -229 487 -459 25 -68 27
-88 28 -215 0 -160 -8 -200 -69 -324 -69 -142 -217 -280 -365 -339 -178 -72
-409 -64 -573 19 l-37 19 92 93 c51 50 108 119 127 152 l34 61 86 -1 c73 0 93
4 142 28 107 53 169 146 176 269 4 70 2 83 -25 140 -35 73 -87 128 -152 160
-38 19 -63 23 -138 23 l-92 0 -16 35 c-9 19 -25 46 -36 60 -12 14 -18 19 -14
13 10 -21 0 -15 -26 14 -22 25 -22 26 -1 9 14 -12 22 -15 22 -7 0 15 -156 171
-170 171 -41 0 47 49 140 79 107 34 252 34 380 0z m-575 -39 c10 -11 16 -20
13 -20 -3 0 -13 9 -23 20 -10 11 -16 20 -13 20 3 0 13 -9 23 -20z m81 -82 l29
-33 -32 29 c-31 28 -38 36 -30 36 2 0 16 -15 33 -32z m414 -324 c87 -37 150
-137 150 -240 0 -106 -69 -204 -168 -240 -41 -15 -138 -18 -146 -6 -3 5 2 34
10 64 8 31 15 68 16 82 2 22 7 26 35 26 43 0 73 30 73 74 0 43 -27 76 -70 85
-31 6 -34 10 -45 61 -7 30 -15 67 -19 82 -7 22 -4 27 16 31 34 7 108 -3 148
-19z m-300 -1439 c-24 -25 -46 -45 -49 -45 -3 0 15 20 39 45 24 25 46 45 49
45 3 0 -15 -20 -39 -45z"/>
<path d="M10473 5270 c-110 -54 -164 -138 -171 -266 -4 -73 -1 -88 23 -143 32
-70 93 -132 163 -164 65 -30 188 -30 252 0 67 31 125 87 157 151 24 49 28 69
28 142 -1 104 -27 163 -105 233 -62 56 -122 77 -214 77 -58 0 -82 -6 -133 -30z
m241 -45 c124 -52 185 -196 140 -328 -19 -57 -103 -138 -161 -155 -171 -51
-336 72 -336 250 0 181 188 304 357 233z"/>
<path d="M10560 5042 c-34 -34 -37 -50 -15 -91 24 -46 74 -55 119 -20 51 40
26 122 -41 135 -27 5 -37 1 -63 -24z"/>
<path d="M995 3361 c-86 -22 -173 -92 -209 -170 -21 -46 -21 -50 -24 -1086 -2
-737 0 -1055 8 -1092 6 -28 25 -72 42 -97 33 -51 112 -111 130 -100 6 4 8 3 5
-3 -19 -30 91 -33 1111 -33 1111 0 1077 -2 1157 53 52 35 102 100 117 151 10
32 13 279 13 1091 0 1011 -1 1052 -19 1100 -25 65 -94 137 -159 166 l-52 24
-1045 2 c-575 0 -1058 -2 -1075 -6z m1315 -26 c13 -14 21 -25 18 -25 -2 0 -15
11 -28 25 -13 14 -21 25 -18 25 2 0 15 -11 28 -25z m970 -88 c0 -2 -17 -19
-37 -38 l-38 -34 34 38 c33 34 41 42 41 34z m-80 -80 c0 -2 -17 -19 -37 -38
l-38 -34 34 38 c33 34 41 42 41 34z m-80 -80 c0 -2 -17 -19 -37 -38 l-38 -34
34 38 c33 34 41 42 41 34z m-80 -80 c0 -2 -17 -19 -37 -38 l-38 -34 34 38 c33
34 41 42 41 34z m-825 -88 c33 -6 76 -19 96 -30 63 -32 188 -139 252 -215 33
-40 65 -70 70 -67 6 3 7 2 4 -4 -3 -5 3 -24 13 -41 73 -120 68 -359 -11 -515
-40 -80 -204 -324 -239 -357 -3 -3 -45 -51 -93 -107 -172 -199 -254 -260 -383
-284 -81 -15 -216 -5 -286 21 -169 63 -480 374 -541 540 -42 114 -39 286 8
388 52 114 282 331 535 503 171 117 221 141 345 164 89 17 156 18 230 4z m525
-14 c13 -14 21 -25 18 -25 -2 0 -15 11 -28 25 -13 14 -21 25 -18 25 2 0 15
-11 28 -25z m185 -15 c-32 -33 -36 -40 -20 -40 21 0 104 -42 146 -73 l24 -17
-27 -25 -27 -24 -57 34 c-65 39 -106 48 -83 18 13 -16 12 -17 -3 -4 -10 7 -15
18 -11 23 4 7 -6 9 -25 6 -19 -3 -29 0 -25 5 13 21 -132 -4 -194 -32 l-61 -29
-24 25 -23 24 25 20 c57 43 130 63 243 64 107 2 108 2 140 33 17 18 34 32 36
32 3 0 -13 -18 -34 -40z m-125 -123 c0 -2 -17 -19 -37 -38 l-38 -34 34 38 c33
34 41 42 41 34z m-80 -80 c0 -2 -17 -19 -37 -38 l-38 -34 34 38 c33 34 41 42
41 34z"/>
<path d="M2395 2690 c-30 -31 -42 -37 -56 -30 -10 6 -22 10 -27 10 -6 0 -87
-76 -182 -170 -95 -93 -176 -167 -181 -164 -19 11 -163 212 -206 285 -25 43
-48 79 -52 79 -3 0 -17 -9 -30 -19 l-25 -19 41 -68 c76 -128 167 -246 282
-366 62 -65 123 -123 133 -129 16 -9 25 -6 46 13 l27 23 -25 -28 -24 -28 29
-24 c17 -14 73 -53 125 -89 155 -103 176 -111 199 -67 10 18 4 24 -61 62 -79
46 -212 139 -268 188 l-35 30 169 169 c165 166 169 171 163 205 -5 30 -1 39
34 73 l39 38 -32 33 c-18 18 -35 33 -38 33 -3 0 -23 -18 -45 -40z m-43 -107
c15 -15 28 -34 28 -42 0 -17 -218 -241 -234 -241 -16 0 -66 53 -66 69 0 17
218 241 234 241 6 0 23 -12 38 -27z"/>
<path d="M3950 3355 c-71 -23 -140 -82 -175 -150 l-30 -59 -3 -619 c-2 -582
-2 -621 15 -641 17 -20 17 -20 0 -7 -17 14 -18 -5 -15 -430 l3 -444 28 -57
c32 -64 80 -111 146 -142 46 -21 49 -21 1116 -21 l1070 0 47 23 c62 31 114 85
147 152 l26 55 3 973 2 972 -42 48 c-35 39 -36 42 -7 15 19 -18 39 -33 43 -33
15 0 -4 153 -25 200 -27 61 -91 124 -152 150 -32 14 -81 24 -131 27 l-81 6 35
-39 35 -39 -40 38 -41 37 -964 -1 c-801 0 -973 -3 -1010 -14z m2100 -100 c19
-19 32 -35 29 -35 -3 0 -20 16 -39 35 -19 19 -32 35 -29 35 3 0 20 -16 39 -35z
m80 -80 c19 -19 32 -35 29 -35 -3 0 -20 16 -39 35 -19 19 -32 35 -29 35 3 0
20 -16 39 -35z m-1106 -41 c12 -5 16 -20 16 -60 l0 -54 -250 0 -250 0 0 48 c0
26 5 53 12 60 13 13 441 18 472 6z m1186 -39 c19 -19 32 -35 29 -35 -3 0 -20
16 -39 35 -19 19 -32 35 -29 35 3 0 20 -16 39 -35z m-565 -116 c53 -15 129
-91 144 -144 7 -26 11 -170 11 -409 0 -349 1 -368 18 -355 16 13 16 13 0 -6
-15 -19 -17 -61 -20 -425 l-3 -405 -28 -48 c-15 -26 -47 -60 -69 -75 l-42 -27
-636 0 -636 0 -42 27 c-22 15 -54 49 -69 75 l-28 48 -3 774 c-3 870 -5 845 66
914 69 68 53 66 707 67 402 0 603 -4 630 -11z m665 -422 c0 -2 -17 -19 -37
-38 l-38 -34 34 38 c33 34 41 42 41 34z m-80 -80 c0 -2 -17 -19 -37 -38 l-38
-34 34 38 c33 34 41 42 41 34z m-80 -80 c0 -2 -17 -19 -37 -38 l-38 -34 34 38
c33 34 41 42 41 34z m-80 -80 c0 -2 -17 -19 -37 -38 l-38 -34 34 38 c33 34 41
42 41 34z m-80 -80 c0 -2 -17 -19 -37 -38 l-38 -34 34 38 c33 34 41 42 41 34z
m-80 -80 c0 -2 -17 -19 -37 -38 l-38 -34 34 38 c33 34 41 42 41 34z m-2050
-372 c13 -14 21 -25 18 -25 -2 0 -15 11 -28 25 -13 14 -21 25 -18 25 2 0 15
-11 28 -25z"/>
<path d="M4400 2919 c-14 -6 -36 -20 -48 -32 -54 -50 -52 -17 -52 -852 0 -866
-3 -822 69 -871 l36 -24 615 0 615 0 36 24 c68 47 69 51 69 457 l0 363 -32
-30 -33 -29 33 36 33 36 -3 416 c-3 402 -4 416 -24 443 -11 15 -33 37 -48 48
-27 21 -39 21 -634 23 -390 1 -616 -2 -632 -8z m1022 -198 l33 -29 3 -258 4
-258 33 -47 c48 -64 94 -165 101 -222 l7 -48 36 33 36 33 -32 -35 c-31 -33
-33 -41 -33 -106 0 -312 -247 -572 -560 -591 -204 -12 -398 85 -516 258 -141
208 -139 456 7 674 l50 74 -2 239 c-1 161 2 246 10 260 28 52 28 52 423 52
l368 0 32 -29z"/>
<path d="M4900 2234 c-87 -23 -141 -55 -208 -121 -279 -275 -118 -742 273
-793 219 -28 438 110 500 318 8 26 15 56 15 66 0 19 0 19 -22 0 -15 -12 -14
-8 5 12 30 34 34 66 17 155 -50 262 -321 432 -580 363z m364 -436 c3 -13 8
-52 11 -88 3 -36 8 -86 12 -112 l5 -46 -53 -4 c-30 -3 -152 -15 -272 -28 -120
-12 -219 -21 -221 -19 -8 8 -33 254 -27 261 7 7 420 55 493 57 42 1 48 -2 52
-21z m166 -122 c0 -2 -8 -10 -17 -17 -16 -13 -17 -12 -4 4 13 16 21 21 21 13z"/>
<path d="M6937 3356 c-63 -17 -124 -62 -164 -120 -41 -60 -53 -103 -53 -190
l0 -70 38 35 37 34 -38 -41 -37 -40 2 -985 3 -984 27 -51 c30 -56 77 -102 141
-136 l42 -23 1075 0 1075 0 45 23 c57 30 116 86 143 137 22 39 22 50 25 500
l3 460 -48 -45 -48 -45 48 51 48 50 -1 606 c0 677 1 660 -71 742 -22 25 -65
57 -97 73 l-57 28 -974 3 -975 2 -45 -42 -46 -43 40 43 39 42 -64 -1 c-36 0
-87 -6 -113 -13z m93 -79 c0 -2 -17 -19 -37 -38 l-38 -34 34 38 c33 34 41 42
41 34z m-80 -80 c0 -2 -17 -19 -37 -38 l-38 -34 34 38 c33 34 41 42 41 34z
m-80 -80 c0 -2 -17 -19 -37 -38 l-38 -34 34 38 c33 34 41 42 41 34z m1723
-161 c43 -17 93 -76 106 -123 7 -23 11 -159 11 -335 l0 -298 -60 0 -60 0 0
325 0 325 -580 0 -580 0 0 -325 0 -325 -61 0 -60 0 3 318 c3 342 4 347 60 399
58 54 39 53 636 53 442 0 559 -3 585 -14z m-63 -466 l0 -290 -515 0 -515 0 0
290 0 290 515 0 515 0 0 -290z m-1760 45 c19 -19 32 -35 29 -35 -3 0 -20 16
-39 35 -19 19 -32 35 -29 35 3 0 20 -16 39 -35z m80 -80 c19 -19 32 -35 29
-35 -3 0 -20 16 -39 35 -19 19 -32 35 -29 35 3 0 20 -16 39 -35z m80 -80 c19
-19 32 -35 29 -35 -3 0 -20 16 -39 35 -19 19 -32 35 -29 35 3 0 20 -16 39 -35z
m80 -80 c19 -19 32 -35 29 -35 -3 0 -20 16 -39 35 -19 19 -32 35 -29 35 3 0
20 -16 39 -35z m203 -145 l57 0 0 -58 c0 -51 11 -82 30 -82 3 0 4 31 2 70 l-4
70 711 0 711 0 0 -90 c0 -107 -15 -151 -62 -180 -32 -19 -49 -20 -622 -20
-522 0 -587 -2 -576 -15 11 -13 90 -15 599 -15 l586 0 36 24 c55 38 69 77 69
195 l0 101 105 0 c131 0 172 -17 204 -83 19 -39 21 -61 21 -207 l0 -163 23 19
22 19 -22 -26 c-20 -22 -23 -36 -23 -109 0 -95 -20 -151 -68 -185 -24 -18 -45
-20 -192 -23 l-165 -3 -49 116 c-27 63 -53 115 -58 115 -5 0 -9 24 -8 53 1 28
1 58 1 65 -1 10 -103 12 -492 12 l-491 -1 18 -22 19 -22 -26 23 c-15 13 -38
22 -57 22 l-32 0 0 -65 c0 -36 -4 -65 -9 -65 -4 0 -30 -52 -57 -115 l-48 -115
-157 0 c-145 0 -158 2 -189 23 -18 12 -43 35 -54 50 -20 27 -21 40 -21 307 0
267 1 280 21 307 35 47 82 73 133 73 l45 0 -49 53 -50 52 55 -52 c54 -51 58
-53 113 -53z m1987 -343 c0 -2 -17 -19 -37 -38 l-38 -34 34 38 c33 34 41 42
41 34z m-615 -337 l48 -110 124 0 c137 0 146 -4 123 -61 -18 -41 -44 -53 -124
-53 -62 0 -71 2 -92 27 l-23 27 -629 0 -629 0 -23 -25 c-21 -23 -31 -25 -102
-25 -92 0 -118 17 -118 75 l0 34 126 3 126 3 45 108 46 107 527 0 527 0 48
-110z"/>
<path d="M8846 2059 c-48 -38 -22 -119 38 -119 62 0 91 75 46 120 -26 26 -51
25 -84 -1z m74 -24 c15 -19 6 -61 -16 -69 -27 -10 -53 3 -60 30 -8 30 11 54
41 54 12 0 28 -7 35 -15z"/>
<path d="M7270 1989 c0 -85 71 -159 154 -159 33 0 37 2 26 15 -7 8 -22 15 -34
15 -27 0 -82 34 -95 59 -6 11 -12 32 -13 46 -1 14 -10 33 -20 42 -17 15 -18
14 -18 -18z"/>
<path d="M8840 1868 c-11 -12 -20 -34 -20 -48 0 -29 32 -70 55 -70 32 0 63 20
72 47 25 71 -56 125 -107 71z m88 -42 c5 -23 -16 -46 -42 -46 -46 0 -62 48
-24 74 19 13 25 14 43 2 11 -7 21 -21 23 -30z"/>
<path d="M8842 1684 c-32 -22 -27 -79 8 -106 48 -35 113 11 101 72 -9 47 -66
64 -109 34z m69 -14 c37 -20 18 -80 -26 -80 -42 0 -59 44 -29 74 18 19 28 20
55 6z"/>
<path d="M9920 3356 c-77 -20 -171 -90 -155 -116 3 -6 1 -9 -5 -8 -7 2 -22
-15 -34 -37 -20 -39 -21 -53 -24 -460 l-3 -419 33 29 33 30 -32 -35 -33 -36 0
-640 c0 -718 -2 -695 72 -779 22 -25 64 -58 92 -73 l51 -27 1075 0 1075 0 51
27 c29 15 70 49 93 75 76 89 72 14 69 1204 l-3 1064 -27 51 c-31 59 -84 108
-147 138 -45 21 -59 21 -690 24 l-645 3 -60 -58 -61 -58 55 58 54 57 -394 -1
c-279 0 -408 -4 -440 -13z m720 -109 c0 -2 -17 -19 -37 -38 l-38 -34 34 38
c33 34 41 42 41 34z m-80 -80 c0 -2 -17 -19 -37 -38 l-38 -34 34 38 c33 34 41
42 41 34z m-80 -80 c0 -2 -17 -19 -37 -38 l-38 -34 34 38 c33 34 41 42 41 34z
m-80 -80 c0 -2 -17 -19 -37 -38 l-38 -34 34 38 c33 34 41 42 41 34z m755 -82
c115 -24 214 -65 307 -127 48 -33 88 -62 88 -64 0 -7 -39 -164 -45 -181 -2 -8
-27 -2 -77 17 -255 99 -607 99 -865 0 -42 -16 -77 -29 -78 -27 -9 11 -45 188
-41 196 15 24 162 112 233 139 156 60 332 78 478 47z m-835 2 c0 -2 -17 -19
-37 -38 l-38 -34 34 38 c33 34 41 42 41 34z m-80 -81 c0 -2 -8 -10 -17 -17
-16 -13 -17 -12 -4 4 13 16 21 21 21 13z m-39 -43 c7 -10 9 -15 4 -10 -5 4
-34 -16 -64 -45 l-56 -53 53 56 c29 30 49 58 46 62 -4 4 -5 7 -2 7 3 0 12 -8
19 -17z m40 -40 c13 -16 12 -17 -3 -4 -10 7 -18 15 -18 17 0 8 8 3 21 -13z
m-161 -76 c0 -2 -17 -19 -37 -38 l-38 -34 34 38 c33 34 41 42 41 34z m303 -51
c4 4 7 2 7 -4 0 -7 17 -31 37 -54 35 -40 35 -41 4 -13 -19 18 -30 23 -26 13 4
-11 -11 -39 -46 -85 -60 -78 -103 -164 -120 -238 -11 -49 -14 -52 -53 -63 -22
-6 -42 -9 -44 -7 -2 2 1 30 8 62 17 86 100 247 164 318 l54 60 -31 35 -32 35
36 -33 c19 -18 38 -29 42 -26z m1332 -121 c23 -33 55 -84 70 -114 27 -54 71
-208 62 -217 -3 -3 -23 0 -45 7 -38 11 -41 15 -53 63 -17 75 -66 171 -121 240
-44 55 -49 65 -43 96 4 19 9 39 12 43 8 12 68 -48 118 -118z m-1715 92 c0 -2
-17 -19 -37 -38 l-38 -34 34 38 c33 34 41 42 41 34z m-80 -80 c0 -2 -17 -19
-37 -38 l-38 -34 34 38 c33 34 41 42 41 34z m-80 -80 c0 -2 -17 -19 -37 -38
l-38 -34 34 38 c33 34 41 42 41 34z m608 -724 l2 -443 -60 0 -60 0 0 438 c0
241 3 442 7 446 4 4 30 6 58 4 l50 -3 3 -442z m1207 2 l0 -440 -57 -3 -58 -3
0 446 0 446 58 -3 57 -3 0 -440z m-1345 -6 l0 -422 -40 7 c-120 19 -237 98
-301 204 -103 172 -69 390 81 531 57 53 161 99 228 100 l32 1 0 -421z m1535
380 c299 -147 311 -573 21 -743 -40 -23 -141 -56 -173 -56 -10 0 -13 84 -13
421 l0 422 50 -6 c28 -3 80 -20 115 -38z m-554 -386 c13 -16 12 -17 -3 -4 -10
7 -18 15 -18 17 0 8 8 3 21 -13z"/>
</g>
</svg>
