<?xml version="1.0" standalone="no"?>
<!DOCTYPE svg PUBLIC "-//W3C//DTD SVG 20010904//EN"
 "http://www.w3.org/TR/2001/REC-SVG-20010904/DTD/svg10.dtd">
<svg version="1.0" xmlns="http://www.w3.org/2000/svg"
 width="8000.000000pt" height="7200.000000pt" viewBox="0 0 8000.000000 7200.000000"
 preserveAspectRatio="xMidYMid meet">

<g transform="translate(0.000000,7200.000000) scale(0.100000,-0.100000)"
fill="#000000" stroke="none">
<path d="M30715 59266 c-174 -55 -286 -182 -317 -357 -22 -124 26 -264 121
-359 111 -111 260 -152 412 -115 136 34 252 141 298 275 24 73 24 220 0 286
-43 114 -156 226 -262 260 -66 21 -200 26 -252 10z"/>
<path d="M35458 58161 l-33 -29 -2 -6814 -3 -6813 -32 -1 c-18 0 -140 -2 -270
-4 -208 -3 -358 -13 -517 -35 -25 -4 -61 -8 -80 -11 -40 -5 -85 -12 -121 -19
-14 -3 -41 -7 -60 -10 -19 -2 -46 -7 -60 -10 -64 -12 -117 -24 -135 -28 -11
-3 -42 -11 -70 -17 -27 -6 -57 -13 -65 -15 -505 -121 -1089 -379 -1545 -684
-473 -316 -871 -694 -1241 -1176 -56 -73 -220 -318 -281 -420 -142 -236 -255
-464 -345 -690 -21 -55 -46 -114 -53 -132 -8 -17 -15 -34 -15 -38 0 -4 -15
-51 -34 -104 -32 -90 -65 -194 -71 -216 -9 -42 -18 -74 -26 -95 -5 -14 -16
-56 -25 -95 -38 -175 -73 -344 -79 -385 -8 -49 -9 -57 -20 -139 -4 -30 -8 -61
-10 -70 -1 -9 -6 -45 -9 -81 -4 -36 -9 -85 -12 -110 -3 -25 -8 -181 -10 -348
-5 -268 1 -439 22 -607 2 -22 7 -58 9 -80 8 -67 15 -118 25 -175 5 -30 12 -71
15 -90 3 -19 12 -64 20 -100 8 -36 16 -76 19 -90 2 -14 9 -43 14 -65 6 -22 13
-51 16 -65 25 -129 125 -440 213 -665 53 -133 197 -436 264 -555 388 -687 901
-1256 1519 -1685 131 -90 374 -245 385 -245 3 0 23 -11 44 -24 70 -44 315
-165 486 -239 115 -50 418 -160 505 -183 8 -2 71 -19 140 -39 123 -34 151 -41
220 -52 19 -3 42 -9 50 -13 8 -4 40 -11 70 -15 30 -4 57 -8 60 -10 3 -2 26 -6
50 -10 81 -11 95 -13 140 -21 51 -8 71 -10 155 -20 33 -3 74 -8 90 -10 103
-11 287 -19 458 -19 l197 0 0 -10767 c0 -5921 3 -10773 6 -10782 6 -15 -192
-16 -2190 -16 -1659 0 -2196 3 -2196 12 0 6 -25 52 -56 102 -49 78 -233 380
-419 686 -121 199 -114 190 -226 253 -57 32 -124 69 -149 84 -25 14 -60 34
-77 44 -86 49 -106 60 -140 80 -47 26 -414 235 -582 331 -19 11 -134 76 -255
145 -122 68 -246 140 -276 158 -30 18 -77 45 -105 60 -27 15 -126 71 -220 125
-93 53 -195 111 -225 127 -30 17 -109 62 -175 100 l-120 69 -3 179 -2 180 254
0 c254 0 254 0 280 24 28 26 33 46 41 146 6 89 13 180 20 275 4 41 8 102 10
135 3 33 7 83 10 110 2 28 8 100 11 160 3 61 8 128 9 150 2 22 6 85 10 140 3
55 8 114 10 130 3 17 7 86 11 155 7 139 8 162 18 270 3 41 9 127 12 190 3 63
7 135 9 160 2 25 6 95 9 155 4 61 8 121 11 135 2 14 7 97 11 185 8 187 9 201
19 365 4 69 9 145 10 170 1 25 5 95 9 155 3 61 8 166 11 235 3 69 7 141 10
160 2 19 7 115 10 213 4 98 8 206 10 240 7 118 20 448 30 722 2 83 7 184 10
225 2 41 7 190 11 330 3 140 7 307 9 370 16 501 19 867 20 1835 0 611 -4 1225
-9 1365 -4 140 -8 269 -8 285 0 34 -16 411 -23 525 -2 41 -6 131 -10 200 -3
69 -8 145 -10 170 -2 25 -6 99 -10 165 -4 66 -8 134 -10 150 -1 17 -5 73 -9
125 -4 52 -9 115 -11 140 -2 25 -6 81 -10 125 -3 44 -8 94 -10 110 -3 17 -7
57 -10 90 -9 108 -19 204 -30 300 -3 28 -8 70 -11 95 -2 25 -6 56 -9 70 -2 14
-7 57 -11 95 -4 39 -8 72 -9 75 -1 3 -5 34 -9 70 -5 36 -10 74 -12 85 -2 10
-6 37 -9 60 -70 492 -183 1007 -295 1345 -158 478 -297 724 -558 986 -286 288
-630 523 -1127 770 l-250 125 262 -3 c252 -3 262 -2 290 18 29 22 34 39 139
453 27 107 30 123 44 181 4 19 20 80 35 135 40 152 87 337 91 365 3 14 9 36
14 50 8 21 28 97 86 335 3 11 7 31 10 45 3 14 8 34 11 45 4 11 8 25 9 30 2 6
24 91 49 190 26 99 49 189 52 200 2 11 8 36 13 55 4 19 24 98 45 175 20 77 38
148 40 158 2 9 11 45 20 80 78 298 197 761 200 777 3 14 34 134 140 540 46
176 163 632 170 660 2 8 18 69 35 135 17 66 36 138 42 160 5 22 11 47 13 55 7
26 62 239 100 385 62 239 106 409 110 425 2 8 27 105 55 215 103 395 161 620
164 635 5 26 16 72 38 155 11 44 21 85 22 90 1 6 5 19 9 30 3 11 9 31 11 45
12 56 25 109 45 188 21 81 38 157 47 217 3 17 9 44 14 60 20 67 39 224 32 260
-2 15 -14 30 -26 35 -11 5 -732 9 -1601 9 l-1580 0 -23 73 c-12 40 -26 87 -31
103 -83 287 -243 756 -357 1050 -20 50 -46 117 -59 150 -39 101 -106 268 -120
300 -7 17 -45 105 -84 196 -76 181 -201 457 -287 637 -30 63 -54 116 -54 118
0 7 -339 685 -395 789 -26 50 -65 120 -86 157 -56 100 -56 100 -4 140 126 98
122 126 -49 366 -402 564 -1106 1262 -1756 1741 -76 56 -91 73 -147 164 -34
56 -70 116 -79 132 -9 17 -64 102 -122 190 -403 612 -753 1046 -1232 1526
-335 336 -571 543 -910 796 -164 122 -634 433 -655 433 -4 0 -21 10 -40 23
l-33 23 139 133 c422 402 767 897 826 1185 8 34 17 44 77 81 130 79 217 171
297 315 34 63 89 194 105 250 24 88 49 214 62 309 9 72 9 425 -1 516 -11 107
-18 159 -22 165 -2 4 -7 29 -10 56 -7 53 -49 226 -65 269 -5 14 -12 40 -15 57
-3 16 -21 70 -40 119 -19 49 -35 91 -35 93 0 5 -16 41 -74 166 -92 200 -254
437 -422 619 -128 139 -348 303 -524 391 -96 48 -237 106 -295 121 -16 4 -55
15 -85 23 -58 17 -171 36 -293 51 -123 15 -379 10 -492 -8 -16 -3 -55 -8 -85
-12 -30 -3 -82 -12 -115 -20 -33 -8 -71 -17 -85 -19 -81 -18 -110 -24 -150
-36 -25 -8 -47 -14 -50 -15 -3 0 -31 -9 -63 -18 -56 -17 -77 -16 -77 4 0 18
-105 153 -153 197 -116 106 -238 160 -378 169 -223 14 -466 -105 -710 -347
-125 -124 -180 -200 -257 -356 -40 -78 -101 -240 -119 -309 -1 -5 -9 -39 -18
-75 -9 -36 -19 -78 -22 -95 -2 -16 -9 -47 -14 -67 -5 -20 -14 -74 -20 -120 -6
-46 -13 -94 -15 -108 -19 -146 -26 -645 -11 -860 11 -153 17 -221 22 -257 3
-18 7 -57 10 -85 3 -29 11 -84 16 -123 6 -38 12 -81 14 -95 2 -14 11 -68 21
-120 24 -127 25 -172 4 -239 -9 -31 -17 -59 -18 -64 0 -4 -6 -31 -11 -60 -6
-28 -14 -63 -16 -77 -6 -31 -24 -151 -31 -205 -3 -22 -7 -56 -9 -75 -6 -48
-17 -268 -19 -365 0 -47 -5 -79 -11 -78 -5 1 -55 4 -110 7 -188 12 -215 14
-415 32 -276 24 -902 23 -1245 -1 -33 -3 -96 -7 -140 -10 -74 -5 -101 -7 -225
-20 -25 -3 -74 -7 -110 -10 -36 -3 -72 -8 -80 -10 -8 -2 -46 -6 -85 -10 -38
-3 -81 -8 -95 -10 -27 -5 -60 -10 -130 -20 -25 -4 -54 -8 -65 -10 -11 -2 -38
-6 -60 -9 -22 -4 -65 -11 -95 -16 -30 -5 -71 -12 -90 -15 -29 -5 -103 -19
-200 -40 -8 -2 -73 -15 -145 -29 -71 -15 -181 -41 -244 -57 -63 -17 -123 -33
-134 -35 -119 -22 -646 -192 -847 -272 -14 -5 -43 -17 -65 -26 -71 -28 -258
-107 -315 -133 -163 -76 -407 -198 -494 -247 -54 -31 -100 -56 -101 -56 -5 0
-264 -159 -338 -208 -477 -312 -942 -725 -1297 -1152 -481 -578 -864 -1274
-1112 -2020 -100 -300 -185 -586 -211 -710 -3 -14 -8 -35 -11 -47 -7 -26 -10
-38 -26 -108 -6 -27 -14 -58 -16 -67 -2 -10 -6 -27 -9 -39 -2 -11 -6 -28 -9
-37 -3 -9 -8 -35 -11 -57 -3 -22 -10 -53 -15 -70 -5 -16 -12 -50 -15 -75 -4
-24 -8 -47 -10 -50 -2 -3 -6 -21 -9 -40 -3 -19 -8 -45 -10 -56 -2 -12 -7 -37
-10 -55 -3 -19 -8 -45 -11 -59 -3 -14 -7 -43 -10 -65 -3 -22 -8 -51 -10 -65
-3 -14 -8 -41 -10 -60 -3 -19 -7 -46 -10 -60 -2 -14 -7 -45 -10 -70 -3 -25 -8
-62 -11 -82 -9 -68 -13 -103 -19 -158 -4 -30 -8 -66 -11 -80 -2 -14 -6 -54
-10 -90 -3 -36 -7 -76 -9 -90 -1 -14 -6 -61 -9 -105 -4 -44 -9 -105 -12 -135
-2 -30 -7 -93 -9 -140 -2 -47 -8 -152 -12 -235 -10 -196 -10 -861 0 -1090 10
-214 14 -276 32 -505 2 -30 7 -89 10 -130 3 -41 8 -89 10 -105 2 -17 8 -77 14
-135 13 -119 20 -183 26 -220 2 -14 6 -52 10 -85 8 -79 22 -181 30 -226 2 -9
6 -40 10 -69 4 -29 9 -62 11 -74 2 -11 6 -38 9 -61 3 -22 17 -107 31 -190 14
-82 27 -159 28 -170 2 -11 6 -33 9 -50 4 -16 9 -46 12 -65 3 -19 17 -91 31
-160 15 -69 28 -136 30 -150 3 -14 18 -88 35 -165 17 -77 33 -151 35 -165 3
-14 7 -33 10 -42 3 -9 7 -26 9 -37 3 -12 7 -29 9 -38 3 -10 11 -47 20 -83 23
-103 72 -298 95 -385 12 -44 30 -112 41 -152 10 -40 25 -94 33 -120 8 -26 22
-77 32 -113 10 -36 24 -82 31 -102 8 -21 12 -38 10 -38 -2 0 16 -64 41 -142
24 -79 46 -150 48 -158 2 -8 14 -49 28 -90 14 -41 58 -174 97 -295 76 -233
135 -407 150 -440 5 -11 24 -63 43 -116 l34 -96 -50 -99 c-108 -215 -181 -431
-241 -709 -17 -78 -23 -117 -31 -191 -3 -28 -8 -61 -11 -75 -23 -114 -24 -592
0 -774 2 -16 7 -59 10 -95 4 -36 9 -76 11 -90 2 -14 9 -61 15 -105 6 -44 15
-96 20 -115 5 -19 11 -51 13 -70 3 -19 12 -71 22 -115 9 -44 18 -87 20 -95 2
-8 17 -69 33 -135 109 -432 268 -877 454 -1265 76 -159 242 -482 285 -555 248
-416 393 -634 644 -965 428 -566 1018 -1187 1629 -1714 69 -60 125 -116 125
-125 1 -9 -2 -34 -6 -56 -4 -22 -10 -80 -14 -128 -3 -48 -8 -96 -10 -105 -1
-9 -6 -51 -10 -92 -4 -41 -8 -82 -10 -90 -2 -8 -6 -44 -9 -80 -3 -36 -8 -81
-10 -100 -6 -46 -25 -221 -32 -285 -3 -27 -7 -66 -9 -85 -2 -19 -7 -62 -10
-95 -3 -33 -8 -67 -10 -75 -2 -8 -6 -55 -10 -103 -3 -48 -8 -97 -10 -107 -2
-10 -6 -50 -10 -87 -3 -37 -8 -81 -10 -98 -9 -57 -15 -110 -20 -180 -3 -38 -8
-81 -10 -95 -3 -23 -11 -85 -20 -170 -2 -19 -7 -64 -10 -100 -4 -36 -8 -78
-10 -95 -2 -16 -6 -57 -10 -90 -3 -33 -10 -91 -15 -130 -5 -38 -12 -101 -15
-140 -4 -38 -8 -81 -9 -95 -2 -14 -7 -54 -11 -90 -3 -36 -8 -78 -10 -95 -2
-16 -7 -64 -11 -105 -3 -41 -8 -82 -9 -90 -1 -8 -6 -44 -9 -80 -8 -75 -17
-154 -21 -190 -2 -14 -7 -54 -10 -90 -4 -36 -8 -81 -11 -100 -2 -19 -6 -62 -9
-95 -3 -33 -7 -71 -10 -85 -5 -32 -13 -110 -20 -180 -3 -30 -7 -71 -10 -90 -2
-19 -7 -60 -10 -90 -7 -72 -15 -146 -20 -190 -2 -19 -7 -66 -11 -105 -3 -38
-8 -78 -10 -89 -2 -11 -6 -50 -9 -86 -4 -36 -8 -78 -10 -95 -2 -16 -6 -59 -9
-95 -4 -36 -9 -76 -11 -90 -3 -14 -12 -95 -20 -180 -9 -85 -17 -168 -20 -185
-2 -16 -6 -59 -10 -95 -3 -36 -8 -76 -10 -90 -4 -27 -11 -89 -20 -190 -3 -36
-8 -76 -10 -90 -6 -41 -13 -112 -31 -285 -2 -27 -7 -66 -9 -85 -2 -19 -7 -60
-10 -90 -3 -30 -8 -71 -10 -90 -3 -19 -8 -64 -11 -100 -4 -36 -7 -72 -9 -80
-1 -8 -5 -51 -10 -95 -9 -90 -10 -102 -19 -165 -3 -25 -8 -74 -11 -110 -4 -36
-8 -78 -10 -94 -2 -16 -6 -57 -10 -90 -3 -34 -8 -74 -10 -91 -2 -16 -7 -58
-10 -93 -3 -35 -8 -78 -10 -95 -2 -18 -7 -61 -11 -97 -3 -36 -7 -78 -10 -95
-2 -16 -6 -59 -10 -95 -3 -35 -7 -71 -9 -80 -2 -8 -6 -49 -10 -90 -3 -41 -8
-86 -10 -100 -12 -87 -15 -113 -20 -183 -4 -43 -8 -87 -10 -97 -2 -10 -6 -47
-10 -82 -3 -35 -8 -76 -10 -93 -2 -16 -7 -57 -10 -90 -3 -33 -8 -76 -10 -95
-2 -19 -7 -64 -10 -100 -7 -65 -11 -105 -20 -170 -2 -19 -7 -64 -10 -100 -4
-36 -8 -81 -11 -100 -2 -19 -6 -60 -9 -90 -3 -30 -10 -86 -15 -125 -5 -38 -12
-101 -15 -140 -3 -38 -8 -83 -10 -100 -2 -16 -7 -56 -10 -89 -4 -32 -8 -73
-10 -90 -3 -17 -7 -64 -11 -105 -3 -41 -7 -82 -9 -90 -2 -9 -6 -47 -10 -86 -3
-38 -8 -86 -11 -105 -11 -90 -25 -223 -39 -368 -4 -35 -8 -72 -10 -82 -2 -11
-6 -50 -10 -87 -3 -37 -8 -84 -10 -103 -3 -19 -7 -57 -10 -85 -3 -27 -7 -66
-9 -85 -3 -19 -8 -62 -11 -95 -3 -33 -7 -76 -10 -95 -2 -19 -6 -63 -10 -97 -3
-34 -7 -70 -10 -80 -2 -11 -6 -53 -10 -94 -3 -41 -8 -85 -10 -99 -2 -14 -7
-59 -10 -100 -4 -41 -9 -82 -10 -92 -2 -9 -9 -69 -15 -135 -6 -65 -13 -129
-15 -143 -3 -14 -7 -50 -10 -80 -3 -30 -7 -70 -9 -88 -3 -18 -8 -67 -11 -110
-4 -42 -9 -84 -10 -93 -2 -8 -6 -47 -10 -85 -3 -38 -8 -80 -9 -94 -2 -14 -9
-72 -15 -130 -6 -58 -13 -123 -16 -145 -16 -142 -35 -319 -40 -370 -4 -33 -8
-73 -10 -90 -2 -16 -7 -59 -10 -95 -3 -36 -8 -81 -10 -100 -3 -19 -7 -60 -10
-90 -3 -30 -8 -73 -11 -95 -5 -41 -9 -81 -19 -170 -3 -27 -7 -66 -9 -85 -3
-19 -7 -64 -11 -100 -4 -36 -8 -78 -10 -95 -2 -16 -7 -61 -11 -100 -4 -38 -8
-77 -9 -85 -1 -8 -5 -46 -9 -85 -4 -38 -9 -80 -11 -93 -2 -12 -7 -57 -10 -100
-4 -42 -9 -86 -11 -97 -2 -11 -7 -49 -10 -85 -3 -36 -7 -78 -9 -95 -1 -16 -3
-36 -4 -42 -1 -10 -404 -13 -1981 -13 -1747 0 -1984 -2 -2010 -15 -37 -19 -50
-43 -50 -90 0 -49 15 -74 55 -91 52 -21 68638 -21 68690 0 40 17 55 42 55 91
0 47 -13 71 -50 90 -26 13 -421 15 -3476 15 l-3447 0 94 67 c342 243 651 547
908 893 92 123 113 154 296 435 357 548 720 1026 1129 1485 171 193 574 593
756 751 553 482 1020 787 1620 1061 224 102 552 210 815 268 22 5 60 13 85 19
25 5 97 17 160 25 63 9 135 19 160 22 25 4 143 7 262 8 214 1 217 1 242 25 14
13 28 39 32 57 8 43 -26 106 -201 369 -716 1077 -1719 2051 -2750 2672 -200
120 -248 147 -460 254 -99 50 -183 94 -186 98 -7 6 28 125 55 191 8 19 46 121
85 225 39 105 85 228 104 275 141 350 403 867 582 1150 279 438 494 715 795
1024 352 360 718 636 1046 787 45 20 89 47 98 60 26 37 21 94 -11 128 -58 62
-573 329 -978 506 -16 7 -51 22 -77 34 -26 12 -49 21 -52 21 -3 0 -29 11 -58
24 -77 35 -380 156 -391 156 -5 0 -23 6 -40 14 -125 53 -623 221 -752 253 -11
3 -63 18 -115 34 -99 29 -385 104 -455 118 -22 5 -89 20 -150 34 -60 14 -121
28 -135 31 -14 2 -32 7 -40 10 -8 3 -32 8 -53 11 -21 3 -71 12 -110 20 -143
28 -327 59 -427 70 -25 3 -56 7 -70 10 -64 11 -205 28 -425 51 -457 46 -1048
54 -1440 19 -22 -2 -74 -6 -115 -9 -152 -13 -192 -17 -522 -61 -15 -2 -53 -9
-85 -14 -32 -6 -71 -13 -88 -16 -62 -10 -94 -17 -235 -46 -216 -45 -246 -52
-355 -81 -38 -11 -102 -28 -140 -38 -416 -112 -928 -310 -1340 -518 -384 -193
-924 -527 -1161 -718 -23 -18 -46 -34 -52 -36 -9 -2 -12 1283 -12 4877 0 2684
4 4879 8 4878 4 -1 57 -23 117 -48 251 -104 515 -192 785 -259 58 -15 121 -31
140 -36 43 -11 123 -28 170 -35 19 -3 67 -12 105 -20 97 -19 155 -28 260 -40
33 -3 70 -8 81 -10 21 -3 74 -9 169 -20 232 -25 720 -25 990 0 22 2 71 7 108
10 99 8 178 18 247 30 8 2 38 6 65 9 28 4 57 9 65 11 8 2 31 6 50 9 31 5 260
51 300 60 52 13 263 68 305 80 121 35 222 67 240 76 11 5 47 18 80 28 73 24
273 102 349 137 30 14 57 25 60 25 21 0 356 173 591 305 89 50 397 255 515
344 388 291 791 682 1090 1061 392 494 726 1097 915 1645 15 44 31 89 35 100
5 11 27 81 50 155 22 74 45 149 50 165 5 17 22 85 39 151 26 107 38 162 57
271 3 16 7 35 9 43 3 8 7 33 10 55 4 22 8 47 10 55 2 8 7 38 11 65 3 28 8 58
10 69 2 10 6 44 9 75 4 31 8 63 10 71 2 8 7 53 10 100 4 47 8 96 11 110 23
145 23 810 0 961 -3 13 -7 56 -11 96 -3 39 -8 82 -10 95 -2 13 -6 48 -10 78
-4 30 -8 64 -10 75 -1 11 -6 41 -9 65 -3 25 -8 56 -11 70 -3 14 -9 50 -15 80
-6 30 -13 66 -15 80 -3 14 -10 45 -15 70 -5 25 -14 65 -19 90 -6 25 -13 55
-15 68 -3 13 -8 32 -11 42 -3 10 -8 27 -10 37 -41 203 -203 668 -321 922 -24
51 -44 95 -44 97 0 19 -171 342 -263 499 -708 1198 -1849 2121 -3162 2557 -82
28 -163 54 -180 58 -16 4 -97 26 -180 47 -284 75 -493 116 -755 147 -156 19
-182 22 -330 33 -202 15 -779 8 -935 -12 -16 -2 -55 -7 -85 -10 -80 -8 -211
-24 -240 -30 -14 -2 -70 -11 -125 -20 -55 -9 -116 -20 -135 -25 -19 -5 -80
-19 -135 -31 -130 -29 -263 -63 -350 -89 -38 -11 -80 -23 -92 -25 -12 -3 -73
-23 -135 -46 -62 -22 -140 -49 -173 -61 -33 -11 -73 -26 -90 -33 -64 -30 -229
-95 -232 -91 -2 1 -3 2825 -3 6275 0 5552 -2 6275 -15 6301 -8 16 -25 36 -37
44 -20 15 -1338 16 -13875 16 l-13853 0 -32 -29z m8448 -181 c6 0 31 -55 54
-122 24 -68 47 -127 52 -133 4 -5 8 -15 8 -23 0 -8 6 -28 14 -45 13 -30 38
-97 122 -324 32 -89 53 -143 74 -198 5 -11 18 -47 30 -80 12 -33 26 -69 31
-80 5 -11 18 -47 29 -80 12 -33 28 -76 35 -95 12 -30 47 -125 211 -570 14 -36
31 -79 39 -97 8 -17 15 -34 15 -38 0 -6 118 -326 185 -500 12 -33 44 -118 70
-190 33 -91 56 -138 76 -157 l29 -28 4369 0 4369 0 24 29 c14 15 29 41 36 57
6 16 33 90 60 164 28 74 83 221 122 325 40 105 99 264 132 355 61 167 70 191
108 290 12 30 26 69 31 85 5 17 13 39 18 50 8 18 33 84 66 175 7 19 24 64 38
100 14 36 42 110 62 165 43 118 112 305 161 430 19 50 72 190 117 313 l83 222
4142 3 4142 2 -2 -6268 -3 -6269 -115 -60 c-63 -33 -146 -78 -185 -100 -38
-22 -84 -48 -101 -58 -134 -77 -345 -218 -509 -341 -648 -484 -1183 -1090
-1593 -1805 -48 -82 -217 -421 -255 -509 -139 -321 -299 -796 -332 -987 -3
-17 -8 -34 -10 -38 -2 -3 -6 -17 -8 -31 -3 -13 -16 -80 -30 -149 -14 -69 -28
-143 -32 -165 -3 -22 -10 -65 -15 -95 -5 -30 -12 -77 -15 -105 -3 -27 -7 -59
-9 -70 -2 -11 -7 -58 -11 -105 -4 -47 -9 -93 -11 -103 -9 -47 -19 -330 -18
-507 0 -179 17 -530 28 -590 3 -14 7 -50 10 -81 4 -49 17 -134 31 -220 3 -15
7 -44 10 -65 3 -22 7 -50 10 -64 3 -14 12 -63 21 -110 8 -47 17 -94 21 -105 3
-11 5 -21 5 -22 -1 -2 5 -24 13 -50 8 -27 17 -64 20 -83 7 -41 50 -196 72
-260 8 -25 16 -49 17 -55 15 -67 135 -396 203 -555 100 -235 311 -638 428
-817 19 -29 52 -79 72 -110 246 -380 606 -796 967 -1119 377 -338 738 -589
1183 -824 l142 -75 1 -11040 0 -11040 -13715 -2 -13715 -1 0 10789 0 10789 28
1 c15 0 38 2 52 3 14 2 59 6 100 10 41 4 86 9 100 12 49 9 66 12 115 18 333
45 830 188 1185 341 755 324 1415 825 1932 1466 347 429 613 904 816 1455 44
118 136 428 147 495 3 19 10 48 15 64 5 17 11 42 14 56 2 14 13 73 25 130 11
57 23 120 25 139 3 19 7 51 10 70 16 107 21 151 31 245 27 273 27 712 0 970
-8 70 -16 139 -19 165 -2 14 -7 45 -10 70 -13 93 -47 286 -58 325 -6 22 -17
69 -25 105 -8 36 -16 72 -18 80 -17 58 -26 93 -39 145 -8 33 -20 74 -26 90 -7
17 -13 37 -15 45 -8 32 -75 220 -119 332 -363 926 -1042 1765 -1881 2325 -126
83 -230 148 -329 203 -75 41 -433 220 -442 220 -3 0 -20 6 -37 14 -211 96
-565 215 -744 252 -12 2 -34 9 -48 14 -14 5 -25 8 -25 5 0 -2 -15 1 -32 6 -51
15 -318 65 -396 74 -20 3 -53 7 -72 10 -89 13 -193 24 -232 24 l-28 1 0 6748
0 6747 4133 -2 c2272 -2 4137 -3 4143 -3z m3215 -1045 c62 -22 101 -56 133
-115 56 -103 33 -230 -55 -304 -54 -45 -96 -58 -198 -58 -83 0 -100 3 -149 29
-121 61 -169 213 -106 335 22 43 82 96 128 112 55 19 192 20 247 1z m4736 -23
c97 -63 136 -162 107 -274 -17 -65 -64 -122 -127 -153 l-52 -25 -1788 0 -1787
0 -42 21 c-198 99 -194 359 6 450 40 18 107 19 1836 16 l1795 -2 52 -33z
m-33762 -6685 c17 -4 46 -9 65 -12 19 -3 62 -15 95 -26 59 -20 61 -23 142
-137 324 -460 718 -877 1033 -1094 141 -97 326 -178 443 -193 26 -3 47 -10 47
-15 0 -38 -93 -230 -162 -336 -70 -106 -180 -254 -190 -254 -4 0 -11 12 -14
28 -22 87 -124 212 -210 255 -128 64 -337 62 -387 -5 -28 -37 -30 -78 -7 -116
24 -39 63 -56 110 -47 146 29 238 -20 297 -157 20 -45 33 -61 64 -76 l38 -19
-56 -64 c-208 -236 -462 -463 -703 -631 -139 -97 -369 -233 -485 -287 -98 -46
-239 -24 -346 55 -57 42 -140 136 -169 193 -38 76 -114 94 -172 42 -48 -43
-45 -88 15 -182 48 -77 153 -187 222 -233 40 -26 39 -29 -15 -28 -93 1 -189
18 -279 48 -111 37 -188 99 -246 196 -11 18 -37 41 -58 52 -36 17 -41 17 -82
2 -85 -33 -98 -93 -55 -263 84 -333 315 -579 635 -676 28 -9 66 -18 85 -21 70
-10 135 -19 147 -19 7 0 21 -23 33 -51 12 -28 25 -60 30 -71 5 -11 23 -55 40
-98 65 -167 105 -201 262 -222 26 -3 50 -10 53 -15 5 -8 -6 -89 -24 -172 -13
-61 -73 -215 -117 -302 -103 -202 -289 -405 -484 -527 -124 -79 -316 -158
-435 -180 -27 -5 -61 -11 -75 -14 -83 -17 -223 -22 -340 -11 -528 48 -978 388
-1184 896 -52 127 -80 277 -79 422 0 83 2 89 42 159 50 87 198 381 230 459 65
157 111 273 111 282 0 5 6 24 14 41 18 41 56 145 56 155 0 4 6 30 15 57 36
124 63 234 81 330 4 22 8 45 10 50 1 6 5 27 9 49 4 21 8 48 11 59 20 104 21
232 10 912 -2 182 -1 362 4 400 5 39 12 91 15 118 11 97 58 334 69 344 3 3 36
-2 73 -10 109 -25 287 -18 388 17 202 69 336 199 510 496 145 245 382 419 608
446 29 4 53 7 54 8 6 5 181 -2 208 -7z m-2719 -4423 c13 -168 55 -356 104
-469 168 -389 404 -648 756 -831 238 -124 467 -175 754 -169 96 2 186 6 200 9
14 3 41 9 60 12 19 3 58 12 86 20 28 8 60 16 70 18 106 22 288 108 444 212
289 193 539 538 625 864 22 82 32 125 40 184 4 25 12 46 17 46 14 0 179 -40
208 -50 14 -5 36 -11 50 -14 14 -2 45 -10 70 -17 25 -7 50 -13 55 -15 10 -2
117 -33 205 -59 320 -94 856 -287 1050 -377 25 -11 62 -26 82 -34 97 -34 609
-282 818 -396 176 -96 602 -350 596 -355 -2 -2 -28 6 -58 17 -31 11 -77 27
-104 34 -27 8 -83 23 -124 35 -41 12 -82 23 -90 26 -73 20 -293 74 -324 79
-21 4 -41 8 -45 10 -3 3 -26 7 -51 11 -25 4 -47 8 -51 10 -3 2 -34 9 -70 15
-35 5 -75 12 -89 14 -14 3 -41 7 -60 10 -99 15 -120 18 -175 27 -104 16 -123
13 -161 -25 -43 -43 -46 -90 -9 -134 26 -31 42 -37 130 -47 28 -3 61 -7 75
-10 14 -2 50 -7 80 -10 61 -6 71 -7 220 -35 58 -11 121 -22 140 -25 34 -6 205
-47 320 -78 133 -36 304 -89 345 -108 11 -5 45 -17 75 -28 186 -63 569 -248
755 -364 545 -339 977 -736 1406 -1292 117 -152 232 -317 233 -335 1 -11 -9
-15 -35 -15 -60 0 -95 -28 -919 -745 -305 -266 -721 -627 -925 -803 -203 -175
-385 -334 -402 -353 -41 -42 -43 -88 -8 -168 14 -31 24 -59 24 -64 -1 -8 11
-125 16 -162 2 -14 6 -55 10 -91 3 -36 8 -76 10 -90 2 -13 6 -51 9 -84 4 -33
8 -78 11 -100 2 -22 12 -103 20 -180 9 -77 18 -156 20 -175 2 -19 7 -62 10
-95 3 -33 8 -73 10 -90 3 -16 7 -52 9 -80 3 -27 7 -70 10 -95 15 -124 36 -312
42 -370 3 -36 8 -67 10 -70 17 -30 -16 -31 -1515 -30 -826 0 -1638 3 -1804 6
-887 17 -1031 19 -1129 14 -141 -7 -150 -15 -189 -167 -15 -59 -46 -180 -69
-268 -23 -88 -44 -169 -46 -179 -2 -10 -8 -33 -13 -50 -6 -17 -13 -42 -15 -56
-9 -45 -177 -705 -252 -990 -16 -60 -66 -259 -69 -273 -2 -10 -7 -27 -10 -37
-6 -20 -14 -50 -22 -90 -3 -14 -16 -63 -28 -110 -19 -69 -165 -637 -181 -702
-2 -10 -6 -27 -9 -38 -3 -11 -7 -29 -10 -40 -3 -11 -7 -28 -9 -37 -29 -123
-51 -196 -61 -199 -6 -3 -68 14 -136 36 -151 51 -576 198 -604 210 -11 4 -36
13 -55 20 -19 7 -44 16 -55 21 -11 4 -65 24 -120 44 -55 20 -129 48 -164 61
-36 14 -126 48 -200 75 -75 28 -210 79 -301 114 -163 63 -620 234 -755 282
-196 70 -328 116 -400 139 -44 14 -124 41 -177 60 -54 18 -98 32 -98 29 0 -2
-19 3 -42 11 -42 15 -166 51 -199 59 -10 2 -77 19 -150 38 -124 32 -240 59
-314 72 -58 11 -250 43 -290 48 -169 23 -193 26 -304 32 -160 10 -158 9 -155
53 14 193 22 439 39 1217 7 312 14 549 21 640 10 151 15 211 19 245 3 19 7 69
11 110 3 41 7 77 9 80 2 3 6 28 9 55 4 28 9 61 11 75 3 14 12 57 20 95 22 108
39 164 73 242 45 101 43 125 -15 182 -27 26 -293 272 -593 546 -299 275 -606
556 -680 625 -75 69 -239 220 -365 336 -127 116 -350 321 -496 455 -633 582
-583 539 -628 542 -23 2 -48 10 -56 18 -14 14 -8 28 67 145 366 573 818 1131
1276 1575 147 142 427 394 458 412 10 6 8 -6 -7 -45 -45 -112 -69 -178 -64
-178 2 0 -2 -17 -9 -38 -12 -34 -18 -64 -31 -167 -16 -124 -12 -290 9 -395 27
-129 44 -153 109 -153 90 0 122 53 99 161 -16 74 -22 319 -9 397 23 145 62
261 133 394 151 286 377 506 734 716 409 240 678 374 1115 555 199 83 612 223
805 274 133 36 340 88 360 92 14 3 50 11 80 19 30 7 73 16 95 21 22 4 45 8 50
9 35 8 195 38 218 41 15 2 39 6 55 9 15 3 43 8 62 10 19 3 46 7 60 10 14 2 44
7 68 10 23 3 61 8 85 11 106 16 153 20 160 14 4 -4 10 -34 13 -66z m50464 21
c96 -4 191 -8 210 -10 88 -7 168 -15 200 -20 19 -2 59 -7 89 -11 30 -3 63 -8
75 -10 12 -2 41 -7 66 -10 25 -3 89 -14 143 -25 53 -10 112 -21 130 -24 63
-11 173 -37 262 -62 50 -14 101 -27 114 -29 13 -3 67 -19 120 -36 53 -18 98
-32 101 -33 33 -7 307 -110 425 -159 232 -98 595 -286 790 -410 387 -246 678
-478 995 -796 289 -288 506 -553 725 -885 100 -151 138 -214 230 -379 98 -176
242 -485 318 -681 115 -298 224 -677 272 -945 8 -47 16 -88 20 -110 3 -13 7
-40 10 -60 3 -20 7 -46 9 -57 3 -12 7 -48 11 -80 3 -32 10 -80 15 -108 5 -27
12 -93 15 -145 4 -52 9 -117 11 -145 7 -70 7 -655 0 -737 -14 -167 -16 -185
-31 -313 -13 -105 -40 -280 -56 -355 -5 -25 -11 -55 -14 -68 -2 -13 -6 -31 -9
-40 -3 -9 -7 -28 -10 -42 -7 -36 -23 -111 -30 -137 -3 -13 -8 -31 -10 -40 -23
-92 -58 -219 -65 -232 -5 -9 -10 -20 -10 -26 -6 -39 -88 -274 -157 -445 -108
-270 -212 -482 -374 -765 -101 -178 -430 -650 -452 -650 -3 0 -75 46 -159 102
-276 183 -623 370 -879 472 -30 13 -74 31 -98 42 -23 10 -47 19 -53 19 -6 0
-25 7 -42 15 -41 18 -361 125 -395 131 -14 3 -30 8 -35 11 -5 3 -25 10 -43 14
-19 5 -51 14 -71 19 -21 6 -45 12 -53 15 -66 18 -344 86 -420 104 -102 23
-129 30 -260 60 -47 11 -116 25 -153 32 -42 8 -71 19 -76 28 -11 22 -56 226
-66 301 -4 27 -16 162 -17 190 0 3 0 64 1 135 l1 131 64 42 c182 120 383 422
551 831 89 216 184 492 209 606 2 6 8 30 15 55 7 25 15 56 17 70 3 14 9 36 14
50 5 14 12 36 14 50 3 14 7 34 10 45 13 59 45 203 49 225 3 14 14 73 26 131
19 97 44 258 56 354 29 241 32 269 42 415 4 63 8 228 8 365 0 266 -7 389 -29
540 -3 17 -8 53 -11 80 -19 135 -80 369 -122 465 -105 242 -210 381 -361 481
-136 89 -257 120 -452 115 -69 -2 -154 -11 -190 -19 -84 -20 -133 -28 -275
-44 -111 -13 -520 -9 -615 5 -47 8 -96 15 -110 17 -14 2 -86 15 -160 30 -74
15 -143 28 -153 30 -29 6 -206 56 -292 82 -102 32 -642 216 -680 233 -28 12
-244 82 -247 80 -2 -1 -21 5 -43 14 -43 16 -134 42 -175 50 -14 2 -59 12 -100
21 -104 23 -326 31 -431 16 -305 -45 -563 -262 -781 -656 -21 -38 -47 -88 -57
-110 -58 -126 -70 -155 -84 -200 -47 -154 -56 -327 -23 -470 2 -11 9 -42 16
-70 25 -112 137 -312 244 -439 l57 -67 -5 -57 c-29 -309 -29 -987 -1 -1212 3
-19 7 -62 10 -95 3 -33 7 -71 10 -85 6 -30 10 -56 29 -180 8 -52 17 -104 19
-115 3 -11 12 -54 21 -95 58 -267 121 -456 223 -670 158 -333 390 -587 643
-707 103 -49 160 -70 227 -84 42 -9 63 -18 66 -29 2 -10 5 -91 6 -181 3 -235
-24 -376 -106 -561 -28 -64 -23 -62 -163 -73 -85 -7 -106 -10 -244 -31 -55 -8
-102 -17 -106 -19 -3 -2 -24 -6 -47 -9 -33 -4 -89 -16 -235 -52 -10 -2 -26 -6
-35 -8 -97 -23 -371 -108 -463 -143 -617 -235 -1097 -516 -1564 -915 -43 -38
-82 -68 -85 -68 -8 0 -107 119 -207 250 -413 539 -725 1156 -918 1816 -19 65
-37 126 -40 134 -3 8 -8 26 -10 40 -3 14 -21 95 -40 180 -20 85 -41 184 -46
220 -5 36 -12 76 -15 89 -2 14 -9 61 -15 105 -6 45 -13 91 -15 102 -42 251
-53 933 -20 1209 2 17 6 57 10 90 3 33 8 71 9 85 2 14 7 48 10 75 4 28 8 61
11 75 3 14 7 41 10 60 3 19 12 71 21 115 8 44 17 96 20 115 3 19 8 38 9 41 2
3 11 39 20 80 9 41 18 82 21 92 9 37 14 58 19 78 8 37 66 231 95 319 24 71 94
266 110 305 59 143 89 213 121 285 48 108 168 342 223 433 25 43 46 80 46 82
0 9 171 272 242 375 306 435 701 854 1115 1182 433 344 921 625 1413 814 36
14 74 29 85 34 34 15 355 121 414 137 148 39 329 84 356 89 17 3 48 9 70 14
22 5 56 11 75 15 19 3 58 10 85 15 60 11 117 19 240 35 28 4 64 8 80 11 75 10
117 14 216 20 222 12 415 20 449 18 19 -2 114 -6 210 -9z m-30185 -1538 c106
-13 144 -18 190 -22 28 -3 59 -7 70 -9 11 -2 56 -9 100 -15 44 -6 98 -16 120
-20 22 -5 65 -14 95 -20 102 -21 113 -23 230 -54 156 -42 169 -46 310 -94 143
-49 160 -55 227 -84 24 -11 46 -19 49 -19 11 0 164 -69 304 -138 239 -118 439
-237 658 -394 743 -531 1318 -1249 1659 -2073 88 -210 134 -339 177 -492 19
-65 37 -125 40 -133 3 -8 8 -27 11 -42 3 -16 7 -40 10 -55 3 -16 8 -34 10 -42
5 -13 32 -140 41 -188 2 -13 6 -35 9 -50 10 -54 34 -219 40 -273 4 -30 9 -66
11 -80 9 -52 19 -333 18 -540 0 -226 -8 -377 -29 -525 -2 -16 -7 -52 -10 -80
-4 -27 -13 -88 -21 -135 -9 -47 -17 -103 -20 -125 -3 -22 -11 -65 -19 -95 -8
-30 -24 -95 -35 -145 -24 -99 -22 -92 -84 -290 -153 -488 -400 -974 -704
-1385 -46 -63 -86 -116 -87 -118 -2 -2 -56 19 -121 47 -66 27 -146 59 -179 70
-33 11 -107 36 -165 56 -58 20 -112 38 -120 40 -8 2 -44 12 -80 23 -121 38
-165 51 -190 55 -14 3 -70 16 -125 30 -85 22 -188 45 -270 61 -11 3 -54 11
-95 19 -41 9 -109 21 -150 27 -74 12 -90 15 -140 24 -14 3 -47 8 -75 11 -27 3
-63 8 -80 10 -111 17 -255 32 -375 41 -52 4 -108 8 -125 9 -16 2 -42 3 -57 4
l-28 1 0 254 0 253 53 6 c123 13 235 78 369 214 189 191 325 410 467 751 106
255 190 574 217 827 3 32 8 68 10 79 12 57 15 410 5 506 -18 160 -20 180 -36
255 -67 325 -182 580 -387 857 -283 383 -588 623 -1020 802 -76 32 -307 95
-407 112 -18 3 -43 7 -54 10 -12 2 -39 6 -62 9 -22 4 -51 8 -65 10 -238 36
-637 28 -1040 -21 -19 -2 -62 -7 -95 -10 -33 -3 -76 -9 -95 -14 -35 -7 -75
-11 -179 -15 -61 -2 -174 18 -226 39 -55 23 -127 103 -150 166 -11 30 -20 57
-20 60 -13 92 -56 265 -74 298 -18 33 -88 88 -129 100 -94 28 -201 -45 -276
-187 -62 -118 -125 -342 -142 -501 -3 -36 -8 -68 -10 -71 -8 -15 -19 -230 -18
-379 0 -138 4 -179 23 -250 37 -140 123 -303 222 -420 40 -48 46 -71 30 -128
-31 -108 -34 -503 -6 -717 2 -16 7 -68 11 -115 3 -47 8 -87 9 -90 2 -3 6 -30
10 -60 3 -30 8 -66 10 -80 2 -14 7 -45 10 -70 3 -25 8 -63 11 -85 10 -68 14
-99 19 -135 3 -19 7 -44 9 -55 4 -20 14 -85 22 -140 2 -16 6 -41 9 -55 3 -14
7 -40 10 -57 12 -74 16 -99 20 -113 2 -8 7 -33 10 -55 3 -23 8 -52 10 -65 3
-14 7 -37 10 -52 3 -16 7 -40 10 -55 3 -16 7 -37 9 -48 9 -45 17 -136 21 -250
5 -116 10 -187 22 -270 2 -22 6 -51 8 -65 9 -69 47 -226 73 -306 56 -168 126
-298 221 -405 l40 -46 -1 -114 c-2 -134 -5 -148 -26 -144 -20 3 -293 -18 -387
-30 -16 -2 -57 -7 -90 -11 -33 -4 -62 -8 -65 -9 -3 -1 -30 -5 -60 -9 -52 -7
-158 -26 -287 -51 -227 -45 -572 -158 -866 -284 -151 -65 -476 -230 -644 -327
-23 -13 -44 -24 -47 -24 -9 0 -208 243 -291 354 -299 406 -542 873 -694 1334
-51 153 -110 369 -137 502 -32 155 -36 173 -49 255 -7 42 -36 282 -40 335 -3
30 -7 79 -10 108 -7 73 -7 528 -1 577 3 22 8 83 11 135 4 88 9 139 20 215 15
99 36 228 45 275 6 30 13 69 16 85 3 17 19 86 35 155 149 618 438 1230 825
1746 258 344 633 717 979 974 354 263 742 477 1135 625 69 26 134 51 145 56
11 5 52 19 90 30 39 12 99 30 135 41 36 10 73 21 84 23 10 3 42 11 70 19 85
24 414 91 501 102 28 3 58 8 68 10 10 2 46 6 80 10 34 3 78 8 97 9 19 2 76 7
125 11 50 3 91 7 93 9 5 5 613 -3 657 -8z m29985 -2443 c-5 -12 -12 -41 -15
-65 -4 -24 -9 -47 -11 -51 -6 -9 -18 -150 -18 -208 1 -347 173 -636 390 -654
124 -11 231 85 304 274 71 185 85 216 108 255 31 50 87 110 129 136 45 28 128
32 180 9 115 -51 205 -221 229 -430 8 -78 8 -240 -1 -301 -24 -163 -38 -229
-76 -346 -5 -18 -12 -40 -14 -50 -2 -10 -11 -43 -19 -73 -27 -96 -46 -210 -66
-400 -8 -75 -6 -412 3 -427 3 -4 8 -46 12 -93 3 -46 8 -87 10 -91 2 -3 7 -21
10 -40 23 -141 88 -376 137 -493 27 -65 29 -78 23 -146 -15 -173 -12 -376 9
-517 15 -100 22 -140 31 -183 3 -14 8 -36 11 -50 3 -14 7 -36 10 -50 3 -14 10
-45 15 -69 7 -34 7 -47 -4 -60 -8 -9 -476 -555 -1041 -1214 -569 -665 -1028
-1193 -1030 -1185 -3 7 -12 49 -21 93 -15 78 -20 102 -30 148 -3 12 -7 33 -10
46 -4 23 -19 98 -31 151 -2 14 -13 68 -24 120 -11 52 -22 106 -25 120 -3 14
-7 37 -10 53 -3 15 -12 60 -21 100 -8 39 -18 83 -20 97 -12 64 -46 229 -55
263 -6 21 -17 73 -24 115 -8 43 -16 86 -19 97 -6 24 -45 209 -51 245 -15 83
-86 423 -89 428 -2 4 -7 23 -10 42 -3 19 -18 96 -34 171 l-28 137 31 68 c44
97 90 231 84 246 0 2 4 15 10 30 6 15 13 49 17 75 3 27 8 57 10 68 2 11 7 60
10 110 5 76 10 92 28 104 42 29 150 137 204 205 108 135 288 448 276 479 -12
32 -37 27 -103 -21 -206 -150 -432 -251 -530 -238 -300 41 -530 197 -727 497
-52 79 -164 308 -194 399 -54 160 -92 294 -116 405 -14 66 -27 129 -29 140 -3
10 -7 35 -10 55 -3 20 -7 45 -9 55 -2 11 -7 45 -11 75 -4 30 -9 64 -11 75 -10
55 -23 202 -33 375 -7 115 -6 157 2 163 32 20 145 46 210 48 81 2 134 -12 187
-47 43 -30 77 -30 107 -2 45 42 23 102 -50 140 -113 60 -252 73 -390 37 -39
-10 -74 -19 -76 -19 -4 0 7 488 12 545 4 35 18 38 87 18 25 -8 61 -16 80 -19
19 -3 38 -8 42 -10 4 -3 44 -9 90 -15 46 -6 94 -12 108 -14 93 -14 265 -20
520 -20 266 0 571 10 610 20 8 2 49 7 90 10 41 4 91 8 110 10 19 2 62 7 95 10
33 3 71 8 85 10 14 2 49 7 79 10 30 4 63 8 74 11 10 2 42 6 71 9 28 4 67 10
86 14 57 13 69 10 60 -15z m-41502 -286 c134 -262 273 -541 367 -743 18 -38
54 -115 80 -170 26 -55 69 -149 95 -210 26 -60 59 -135 72 -165 48 -104 96
-215 142 -330 26 -63 58 -140 70 -170 31 -73 67 -166 109 -275 19 -49 46 -119
60 -155 14 -36 44 -119 67 -185 23 -66 46 -129 51 -140 8 -19 112 -334 114
-345 0 -3 13 -43 27 -90 38 -119 72 -233 73 -245 0 -5 -2 -12 -6 -15 -4 -3
-643 -3 -1420 0 l-1413 5 -37 100 c-21 55 -76 208 -124 340 -47 132 -95 263
-105 290 -28 71 -183 495 -242 660 -28 77 -62 169 -75 205 -66 176 -74 205
-60 215 8 5 74 62 148 127 133 116 283 244 1234 1062 275 236 525 451 554 478
30 26 58 48 61 48 4 0 75 -132 158 -292z m-13877 -653 c173 -155 629 -561
1014 -904 385 -343 710 -633 722 -645 l22 -21 -24 -70 c-13 -38 -26 -81 -29
-95 -2 -14 -13 -65 -24 -115 -11 -49 -23 -115 -27 -145 -4 -30 -10 -73 -15
-95 -5 -22 -11 -78 -15 -125 -4 -47 -8 -98 -10 -115 -2 -16 -6 -77 -10 -135
-3 -58 -8 -112 -10 -120 -5 -19 -15 -387 -31 -1125 -3 -170 -8 -341 -9 -380
-4 -95 -16 -284 -20 -315 -2 -14 -4 -40 -4 -57 -1 -29 -33 -65 -255 -294 -284
-292 -266 -263 -266 -426 0 -71 3 -93 13 -93 25 0 159 124 408 377 l247 251
58 -3 c173 -10 331 -23 384 -31 19 -2 51 -7 70 -9 19 -3 46 -7 60 -10 14 -3
45 -8 70 -11 41 -4 256 -47 305 -60 11 -3 36 -9 55 -14 55 -12 257 -66 355
-95 50 -15 97 -28 106 -30 21 -4 314 -100 404 -131 39 -14 140 -50 225 -80
154 -55 327 -119 365 -135 11 -5 74 -28 140 -53 66 -24 206 -76 310 -116 105
-40 217 -83 250 -95 33 -12 123 -45 200 -74 77 -28 147 -54 155 -58 100 -41
558 -204 840 -298 125 -42 185 -67 184 -76 -2 -19 -10 -51 -33 -139 -53 -205
-72 -279 -76 -299 -2 -12 -11 -47 -19 -79 -8 -31 -30 -118 -49 -192 -20 -74
-44 -169 -56 -210 -16 -60 -122 -479 -137 -540 -4 -18 -100 -392 -178 -700
l-58 -225 -237 1 c-225 1 -630 12 -736 19 -27 2 -108 6 -180 10 -126 6 -165 9
-305 20 -36 3 -103 7 -150 10 -47 3 -105 8 -130 10 -25 2 -74 7 -110 10 -36 3
-83 8 -105 10 -22 2 -65 6 -95 9 -194 18 -239 23 -280 30 -14 3 -54 8 -90 11
-36 4 -76 8 -90 10 -109 14 -136 17 -154 21 -12 2 -46 7 -76 10 -73 8 -77 9
-135 18 -27 4 -59 9 -70 11 -11 2 -36 6 -55 9 -19 3 -48 8 -65 10 -16 2 -41 6
-55 10 -14 3 -43 8 -65 10 -57 8 -155 25 -290 51 -38 7 -88 17 -110 21 -22 4
-44 8 -50 9 -19 5 -120 25 -140 29 -123 24 -400 92 -475 117 -405 131 -783
485 -1020 954 -36 72 -73 148 -82 170 -8 22 -24 63 -36 90 -28 68 -70 218 -97
349 -27 126 -47 155 -113 163 -33 4 -45 0 -70 -24 -35 -31 -44 -71 -31 -129
27 -129 43 -189 79 -295 137 -409 304 -704 559 -988 l63 -71 -83 31 c-46 17
-131 48 -189 69 -376 137 -763 325 -1024 498 -318 210 -565 476 -702 757 -73
150 -101 225 -145 385 -5 19 -12 42 -14 50 -10 36 -26 103 -31 138 -3 20 -10
54 -15 75 -6 21 -12 55 -15 75 -2 20 -7 48 -9 62 -3 14 -10 59 -16 100 -22
155 -27 199 -35 295 -3 44 -8 96 -11 115 -8 61 -10 899 -2 1035 7 117 12 190
24 325 2 25 7 83 10 130 3 47 8 96 10 110 2 14 6 54 10 90 7 76 11 115 21 190
4 30 8 66 9 80 1 14 6 50 10 80 4 30 9 66 10 80 7 54 16 126 20 151 3 15 7 47
10 70 3 24 12 85 20 134 20 127 23 148 41 259 8 55 16 102 18 105 2 3 7 31 10
61 4 30 11 71 16 90 5 19 12 55 15 80 4 25 19 110 35 190 16 80 31 162 34 182
3 21 10 57 15 80 6 24 12 55 15 70 2 16 12 61 21 100 30 132 45 203 50 238 3
19 10 51 15 70 5 19 19 78 30 130 12 52 26 113 31 135 5 22 11 49 14 60 8 45
178 731 211 855 9 30 17 62 19 70 2 8 12 42 21 75 9 33 17 67 19 75 2 8 13 49
25 90 12 41 33 116 46 165 14 50 27 96 29 103 3 7 103 -76 243 -200 131 -117
380 -339 553 -493z m24035 -574 c150 -49 223 -70 246 -75 16 -2 58 -11 95 -20
101 -22 173 -35 223 -41 25 -3 56 -7 69 -10 200 -38 754 -38 1086 0 l50 6 -83
-57 c-100 -69 -212 -186 -247 -259 -30 -64 -38 -141 -20 -207 14 -57 80 -146
139 -190 l44 -33 4 -225 c3 -196 5 -230 21 -253 12 -19 26 -27 47 -27 35 0 51
19 214 253 65 92 120 167 123 167 3 0 3 -19 -1 -42 -42 -296 -54 -930 -22
-1128 2 -14 7 -47 11 -75 18 -143 84 -342 131 -396 19 -21 16 -635 -3 -632
-13 3 -100 -89 -887 -924 -296 -315 -542 -573 -546 -573 -4 0 -15 17 -23 38
-8 20 -29 67 -46 104 -17 36 -31 68 -31 71 0 3 -16 39 -35 80 -19 41 -35 77
-35 80 0 3 -20 48 -45 101 -25 53 -45 99 -45 101 0 3 -13 34 -30 70 -16 36
-30 68 -30 70 0 2 -11 28 -24 57 -29 64 -149 336 -240 545 -36 83 -66 156 -66
162 0 6 10 11 23 12 71 4 110 10 182 28 44 11 100 23 124 26 62 9 229 75 309
123 78 47 163 117 222 184 40 46 110 154 110 170 0 5 -26 -5 -58 -21 -58 -29
-252 -97 -304 -106 -15 -3 -56 -12 -90 -20 -35 -8 -85 -17 -113 -21 -27 -3
-57 -7 -65 -9 -8 -2 -64 -6 -125 -9 -60 -4 -137 -9 -170 -12 l-61 -5 -45 53
c-164 190 -247 400 -285 718 -11 98 -12 107 -13 365 -1 232 1 284 13 390 3 28
8 82 12 120 3 39 7 81 9 95 2 14 7 48 11 75 12 96 18 110 29 76 10 -34 58 -61
108 -61 60 0 106 32 125 88 39 118 -78 212 -190 152 l-37 -19 5 22 c2 12 8 46
14 76 12 63 21 72 70 65 116 -18 171 -38 241 -90 46 -33 52 -35 79 -24 40 16
53 35 52 71 -1 35 -20 60 -77 98 -72 49 -155 76 -267 88 -32 3 -58 9 -58 12 0
3 4 22 9 41 6 19 12 49 15 65 13 70 35 176 40 183 2 4 12 43 21 87 22 107 45
185 54 185 5 0 21 -4 37 -9z m-12156 -1296 c16 -44 44 -120 63 -170 19 -49 55
-148 81 -220 27 -71 54 -144 62 -162 8 -17 14 -35 14 -40 0 -6 6 -23 14 -39 7
-16 17 -41 20 -56 l6 -28 -82 -1 c-46 -1 -96 -2 -111 -3 -37 -4 -42 10 -57
154 -6 63 -13 126 -15 140 -2 14 -6 57 -10 95 -4 39 -9 81 -10 95 -5 35 -16
138 -20 180 -2 19 -6 53 -8 75 -3 22 -8 67 -11 100 l-6 60 20 -50 c12 -27 34
-86 50 -130z m6536 -957 c-7 -50 -16 -91 -23 -113 -4 -11 -8 -24 -9 -30 -1 -5
-23 -91 -49 -190 -26 -99 -48 -188 -51 -197 -7 -31 -12 -51 -28 -108 -23 -87
-66 -256 -71 -276 -7 -37 -32 -135 -150 -589 -34 -129 -162 -630 -170 -665
-17 -70 -39 -159 -75 -295 -63 -240 -151 -587 -156 -615 -2 -14 -7 -32 -10
-40 -6 -16 -91 -341 -104 -400 -5 -19 -11 -45 -14 -57 -7 -27 -4 -14 -56 -218
-22 -88 -43 -169 -46 -180 -3 -11 -9 -36 -14 -55 -26 -108 -158 -621 -210
-815 -10 -38 -21 -81 -24 -95 -3 -14 -21 -88 -41 -165 -20 -77 -38 -147 -40
-155 -12 -53 -89 -353 -205 -800 -28 -107 -52 -204 -55 -215 -2 -11 -20 -83
-40 -160 -21 -77 -41 -158 -47 -180 -5 -22 -11 -47 -13 -55 -7 -27 -96 -375
-101 -390 -2 -8 -7 -30 -11 -48 l-8 -32 -5268 -3 c-2897 -1 -5267 1 -5267 5 0
5 21 88 46 185 26 98 50 194 54 213 4 19 20 80 34 135 15 55 60 231 101 390
41 160 101 398 135 530 34 132 63 247 65 255 16 70 88 348 125 485 12 44 25
98 30 120 4 22 27 112 50 200 43 164 59 226 65 258 2 10 7 27 10 37 3 10 8 27
10 37 2 10 20 81 40 158 20 77 38 145 39 150 1 6 5 19 9 30 3 11 8 31 11 45 3
14 7 34 10 45 3 11 23 92 46 180 22 88 42 168 45 178 3 9 7 25 9 35 6 23 101
392 121 467 8 33 18 74 21 90 2 17 9 44 14 60 5 17 29 109 54 205 24 96 61
238 81 315 30 115 96 375 111 435 11 48 121 477 169 660 30 118 57 224 60 235
2 11 25 101 50 200 25 99 47 187 49 195 2 8 30 114 61 235 31 121 59 228 61
238 2 9 6 26 9 37 12 47 16 66 21 89 3 14 7 28 10 33 3 4 2375 8 5270 8 l5266
0 -6 -32z m39469 -707 c209 -56 462 -141 640 -214 33 -14 89 -37 125 -52 92
-38 342 -160 425 -208 232 -133 485 -293 499 -316 10 -16 -249 -295 -424 -457
-361 -334 -754 -612 -1189 -843 -84 -44 -155 -81 -157 -81 -2 0 -41 -18 -86
-41 -107 -52 -395 -170 -543 -220 -184 -63 -352 -110 -640 -179 -55 -13 -305
-59 -357 -66 -24 -3 -54 -7 -68 -10 -24 -4 -135 -16 -267 -29 -197 -20 -667
-25 -873 -10 -101 7 -193 16 -220 20 -14 2 -50 6 -81 10 -31 3 -67 8 -79 10
-12 2 -54 9 -93 14 -40 6 -85 13 -102 16 -127 24 -196 37 -230 45 -104 24
-330 82 -365 93 -8 3 -62 20 -120 37 -119 37 -304 103 -367 131 -24 10 -45 19
-49 19 -5 0 -88 35 -169 70 -90 39 -387 188 -458 229 -49 28 -90 51 -92 51 -8
0 -218 133 -341 215 -255 173 -525 396 -777 644 -103 101 -186 188 -185 192 5
13 210 181 323 264 129 94 289 199 430 280 112 65 575 299 580 293 3 -3 53
-111 80 -173 7 -16 26 -59 43 -95 16 -36 48 -110 72 -165 24 -55 46 -104 50
-110 4 -5 29 -59 55 -120 26 -60 72 -164 102 -230 30 -66 60 -133 68 -150 7
-16 25 -56 39 -88 14 -32 26 -59 26 -62 0 -2 17 -41 39 -87 21 -46 58 -126 81
-178 42 -95 52 -117 108 -240 16 -36 51 -114 77 -175 26 -60 58 -120 71 -132
20 -18 175 -74 243 -88 9 -2 48 -13 86 -25 110 -35 243 -76 325 -100 41 -12
93 -28 115 -35 22 -7 74 -23 115 -35 41 -12 98 -29 125 -37 28 -9 52 -16 55
-16 3 1 14 -4 25 -10 14 -8 303 -11 1040 -9 962 2 1021 3 1045 20 26 19 117
189 189 357 24 55 52 119 62 142 11 23 19 44 19 47 0 2 15 37 34 78 19 40 59
132 91 203 66 154 74 171 110 250 15 33 49 110 75 170 48 110 79 178 151 333
21 46 39 86 39 88 0 2 21 47 46 101 25 54 56 124 70 155 13 31 48 109 79 173
30 64 55 118 55 120 0 18 114 235 123 235 7 0 44 -9 82 -19z m-30665 -596
c147 -23 155 -25 320 -60 121 -27 317 -74 445 -109 174 -47 596 -196 623 -220
10 -10 -14 -41 -111 -147 -438 -477 -1044 -904 -1652 -1163 -60 -26 -119 -51
-130 -57 -65 -30 -385 -137 -495 -165 -30 -8 -62 -16 -70 -19 -30 -8 -336 -73
-380 -80 -25 -4 -54 -8 -65 -10 -211 -34 -809 -58 -1025 -41 -19 2 -75 6 -125
10 -49 4 -101 9 -115 11 -14 2 -45 7 -70 10 -25 3 -58 8 -75 11 -16 3 -45 7
-64 10 -50 6 -75 11 -181 34 -52 12 -124 28 -160 35 -96 21 -431 121 -485 146
-11 4 -47 18 -80 29 -33 12 -82 31 -110 42 -27 12 -63 26 -80 33 -173 71 -475
225 -640 324 -316 192 -595 405 -830 633 -128 124 -132 104 40 194 61 31 115
60 120 64 17 12 356 171 410 191 28 11 59 24 70 29 214 96 747 253 771 227 9
-11 154 -265 237 -417 17 -30 52 -92 78 -138 27 -45 49 -84 49 -87 0 -2 22
-41 48 -87 27 -46 64 -112 84 -148 63 -115 175 -314 250 -445 l34 -60 64 0
c36 0 157 4 270 9 113 5 396 10 630 10 374 1 514 -3 706 -19 l50 -4 759 719
c418 395 767 719 775 719 8 1 58 -6 110 -14z m-23030 -4450 c58 -3 121 -8 140
-10 19 -2 114 -7 210 -11 96 -4 207 -8 245 -10 39 -2 225 -6 415 -9 l345 -6
-2 -22 c-1 -12 -7 -42 -13 -67 -7 -25 -13 -53 -15 -63 -2 -10 -7 -27 -10 -37
-3 -10 -7 -27 -9 -37 -2 -10 -11 -44 -21 -75 l-16 -58 -760 0 c-601 0 -759 3
-759 13 0 6 5 31 10 55 6 23 13 59 16 80 3 20 7 48 10 62 10 61 23 194 19 200
-3 4 17 6 43 4 26 -1 94 -5 152 -9z m11641 -1679 c101 -41 222 -91 269 -112
133 -58 514 -254 629 -323 412 -248 736 -529 906 -786 119 -181 224 -417 309
-700 61 -200 116 -413 142 -545 3 -14 7 -32 9 -40 3 -8 7 -33 10 -55 4 -22 8
-48 11 -57 6 -20 13 -53 20 -97 3 -18 8 -43 10 -55 3 -11 9 -48 14 -81 5 -33
11 -69 14 -80 10 -56 17 -99 22 -133 2 -20 13 -98 24 -172 11 -74 22 -155 25
-180 3 -25 8 -63 11 -85 11 -78 13 -91 19 -155 3 -36 8 -72 10 -80 2 -8 7 -53
10 -99 4 -47 8 -92 10 -100 2 -14 7 -64 20 -226 2 -16 6 -70 9 -120 4 -49 9
-108 11 -130 2 -22 7 -80 10 -130 4 -49 8 -108 10 -130 2 -22 6 -107 9 -190 4
-82 9 -163 11 -180 3 -16 7 -91 10 -165 3 -74 7 -187 10 -250 20 -466 25 -691
16 -686 -5 3 -12 18 -15 32 -10 39 -115 256 -182 376 -119 213 -270 424 -431
603 -100 111 -202 207 -214 203 -4 -2 -34 -36 -67 -77 l-61 -75 107 -110 c124
-129 215 -240 311 -381 107 -157 213 -336 257 -433 8 -18 28 -62 44 -98 97
-210 183 -488 229 -734 17 -92 21 -113 27 -175 3 -33 8 -67 11 -75 2 -8 4
-251 4 -540 -1 -562 -4 -786 -26 -1560 -3 -107 -8 -276 -10 -375 -3 -99 -7
-223 -10 -275 -2 -52 -8 -187 -11 -300 -3 -113 -8 -236 -10 -275 -1 -38 -6
-146 -10 -240 -3 -93 -8 -195 -9 -225 -2 -30 -6 -120 -9 -200 -8 -178 -14
-304 -22 -435 -3 -55 -7 -138 -9 -185 -2 -47 -6 -114 -9 -150 -3 -36 -8 -132
-12 -215 -3 -82 -7 -172 -9 -200 -2 -27 -6 -99 -9 -160 -3 -60 -8 -128 -11
-150 -2 -22 -7 -101 -11 -175 -3 -74 -7 -162 -9 -195 -3 -33 -7 -103 -10 -155
-5 -92 -8 -128 -20 -290 -3 -41 -8 -121 -11 -177 -6 -116 -8 -130 -16 -138 -3
-3 -558 -6 -1234 -6 -676 0 -1236 -3 -1245 -7 -13 -6 -16 -24 -16 -104 l0 -98
1245 0 1244 0 -6 -87 c-4 -49 -9 -115 -11 -148 -2 -33 -7 -98 -10 -145 -4 -47
-8 -105 -10 -130 -2 -25 -7 -94 -11 -155 -4 -60 -8 -121 -9 -135 -1 -14 -3
-33 -4 -43 -1 -16 -82 -17 -1593 -15 l-1593 3 -6 40 c-3 22 -9 63 -13 90 -4
28 -9 61 -12 75 -2 14 -7 45 -9 70 -3 25 -8 56 -10 70 -3 14 -9 61 -15 105 -6
44 -12 91 -14 105 -2 14 -7 46 -10 71 -4 25 -9 57 -11 70 -7 46 -14 94 -20
145 -3 28 -7 59 -9 70 -8 44 -22 142 -31 229 -4 33 -9 62 -10 65 -2 3 -6 33
-10 65 -3 33 -8 71 -11 85 -2 14 -6 34 -8 45 -2 11 -7 45 -10 76 -4 31 -8 65
-10 75 -2 11 -7 44 -11 74 -4 30 -9 63 -11 74 -2 10 -6 44 -9 75 -4 31 -8 63
-10 71 -2 8 -7 38 -10 65 -6 56 -15 120 -21 150 -2 11 -9 58 -14 105 -6 47
-13 96 -15 110 -7 39 -15 91 -19 130 -3 19 -7 52 -10 73 -3 20 -9 54 -12 75
-3 20 -7 53 -9 72 -3 19 -7 51 -10 70 -3 19 -8 53 -10 75 -3 22 -8 51 -10 65
-3 14 -7 48 -11 75 -3 28 -8 58 -10 68 -2 10 -6 46 -9 80 -3 34 -8 69 -10 77
-2 8 -7 35 -10 60 -6 47 -9 68 -19 135 -4 22 -8 58 -11 80 -2 22 -7 51 -10 65
-2 14 -7 45 -10 70 -3 25 -7 56 -9 70 -8 41 -16 98 -22 148 -2 26 -7 58 -9 72
-3 14 -7 48 -10 75 -3 28 -10 78 -16 113 -5 34 -12 82 -15 106 -2 24 -7 55 -9
67 -3 13 -8 44 -11 69 -3 25 -7 56 -9 70 -2 14 -7 48 -11 75 -3 28 -8 59 -10
70 -2 11 -6 45 -9 75 -3 30 -7 64 -10 76 -3 12 -7 37 -10 58 -3 20 -8 53 -11
74 -3 20 -7 55 -10 77 -3 22 -7 51 -9 65 -3 14 -9 61 -15 105 -6 44 -12 91
-14 105 -2 14 -7 46 -10 71 -4 25 -9 57 -11 70 -7 46 -14 94 -20 145 -3 28 -7
60 -9 71 -3 12 -7 43 -11 70 -4 26 -8 59 -10 73 -2 14 -7 52 -11 85 -3 33 -8
62 -9 65 -2 3 -6 33 -10 65 -3 33 -8 71 -11 85 -2 14 -6 34 -8 45 -2 11 -7 45
-10 76 -4 31 -8 65 -10 75 -2 11 -7 44 -11 74 -4 30 -9 63 -11 74 -2 10 -6 44
-9 75 -4 31 -8 63 -10 71 -2 8 -7 38 -10 65 -6 56 -15 120 -21 150 -2 11 -9
58 -14 105 -6 47 -13 96 -15 110 -7 39 -15 91 -19 130 -3 19 -8 53 -11 75 -13
91 -16 112 -20 145 -3 19 -7 51 -10 70 -3 19 -8 53 -10 75 -3 22 -8 51 -10 65
-3 14 -7 48 -11 75 -3 28 -8 58 -10 68 -2 10 -6 46 -9 80 -3 34 -8 69 -10 77
-2 8 -7 35 -10 60 -6 47 -9 68 -19 135 -4 22 -8 58 -11 80 -2 22 -7 51 -10 65
-2 14 -7 45 -10 70 -3 25 -7 56 -9 70 -8 41 -16 98 -22 148 -2 26 -7 58 -9 72
-3 14 -7 48 -10 75 -3 28 -10 78 -16 113 -5 34 -12 82 -15 106 -2 24 -7 55 -9
67 -3 13 -8 44 -11 69 -3 25 -7 56 -9 70 -2 14 -7 48 -11 75 -3 28 -8 59 -10
70 -2 11 -6 45 -9 75 -3 30 -7 64 -10 76 -3 12 -7 37 -10 58 -3 20 -8 53 -11
74 -3 20 -7 55 -10 77 -3 22 -7 51 -9 65 -3 14 -9 61 -15 105 -6 44 -12 91
-14 105 -2 14 -7 46 -10 71 -4 25 -9 57 -11 70 -7 46 -14 94 -20 145 -3 28 -7
59 -9 70 -5 29 -15 94 -21 142 -3 23 -7 59 -10 81 l-6 38 113 74 c158 102 360
233 585 379 139 90 191 129 187 140 -7 21 -98 160 -104 160 -3 0 -83 -51 -178
-112 -95 -62 -207 -135 -250 -163 -42 -27 -140 -90 -217 -140 -77 -50 -171
-110 -208 -134 l-68 -44 -82 7 c-45 3 -92 8 -104 10 -11 3 -54 7 -95 10 -40 4
-89 8 -108 11 -39 5 -115 12 -208 21 -35 3 -71 7 -80 9 -10 1 -55 6 -102 10
-46 4 -96 9 -110 11 -14 1 -56 6 -95 10 -38 4 -79 8 -90 10 -11 1 -27 3 -36 3
-12 1 -18 24 -28 114 -7 61 -14 123 -16 137 -2 14 -6 50 -10 80 -3 30 -7 66
-10 80 -2 14 -6 48 -9 75 -3 28 -8 67 -11 88 -9 68 -14 101 -20 152 -3 28 -8
59 -10 71 -2 11 -7 45 -11 75 -9 80 -109 666 -120 701 -3 9 -7 25 -9 35 -6 31
-36 167 -40 183 -2 8 -10 44 -18 80 -107 474 -281 959 -443 1227 -119 199
-354 423 -696 666 -115 82 -174 120 -368 242 -109 68 -160 99 -300 177 -102
57 -160 93 -160 98 0 3 1279 4 2843 3 l2843 -3 185 -74z m-6170 -10 c209 -110
234 -124 434 -239 381 -220 712 -449 929 -643 218 -194 347 -398 488 -769 29
-77 96 -274 103 -305 2 -8 16 -55 30 -105 14 -49 28 -101 31 -115 3 -14 9 -38
15 -55 15 -47 74 -305 95 -415 3 -14 9 -44 15 -68 5 -23 12 -59 15 -80 3 -20
8 -40 10 -43 2 -4 8 -35 13 -70 6 -35 19 -116 30 -179 20 -121 28 -165 36
-227 3 -21 8 -54 11 -73 3 -19 8 -44 9 -55 3 -19 14 -93 20 -145 9 -67 18
-127 20 -140 2 -9 6 -47 10 -85 3 -39 8 -81 10 -95 4 -30 13 -97 20 -165 3
-27 8 -66 10 -85 2 -19 7 -62 10 -95 3 -33 8 -80 10 -105 3 -25 7 -74 10 -110
3 -36 7 -85 10 -110 2 -25 7 -73 10 -107 3 -35 7 -89 10 -120 5 -56 8 -105 20
-263 3 -41 7 -100 10 -130 6 -80 14 -210 20 -325 3 -55 7 -131 10 -170 2 -38
7 -117 9 -175 3 -58 8 -163 12 -235 3 -71 7 -161 9 -200 2 -38 6 -180 10 -315
3 -135 10 -342 15 -460 5 -118 9 -314 9 -435 0 -121 3 -377 5 -570 l5 -350
-49 145 c-115 345 -264 671 -448 980 -118 199 -295 448 -391 550 -42 45 -52
50 -89 50 -78 0 -131 -78 -97 -143 7 -14 42 -59 77 -99 291 -334 520 -751 718
-1308 11 -29 90 -297 96 -322 2 -10 6 -26 8 -36 2 -9 9 -37 16 -62 7 -25 14
-56 17 -70 2 -14 9 -43 15 -65 5 -22 12 -51 15 -65 2 -14 9 -45 14 -70 6 -25
13 -63 15 -84 3 -22 7 -43 9 -46 2 -3 7 -33 10 -65 4 -33 9 -62 10 -65 2 -3 6
-30 10 -60 49 -434 49 -408 20 -1495 -2 -110 -7 -301 -10 -425 -2 -124 -7
-277 -10 -340 -2 -63 -7 -212 -11 -330 -6 -242 -9 -326 -23 -730 -11 -300 -20
-528 -27 -645 -2 -38 -6 -149 -10 -245 -3 -95 -8 -181 -9 -190 -2 -8 -4 -49
-4 -90 l-1 -75 -1217 0 -1218 0 -3 -107 -3 -108 1216 0 1215 0 -5 -82 c-2 -46
-7 -132 -10 -193 -5 -120 -15 -298 -20 -385 l-3 -55 -1776 -3 c-977 -1 -1777
1 -1777 5 -2 9 -3 22 -13 133 -4 41 -9 86 -11 100 -2 14 -7 56 -10 94 -3 38
-8 83 -10 100 -2 17 -7 60 -10 95 -4 36 -8 79 -10 95 -2 17 -6 65 -10 106 -4
41 -8 93 -11 115 -10 96 -15 142 -19 175 -2 19 -7 67 -10 105 -4 39 -8 81 -10
95 -2 14 -7 59 -11 100 -3 41 -8 86 -9 100 -2 14 -6 57 -10 95 -3 39 -8 84
-10 100 -2 17 -6 64 -10 105 -3 41 -11 113 -16 160 -10 85 -12 97 -24 225 -4
39 -8 81 -10 95 -2 14 -6 57 -9 95 -4 39 -9 86 -11 105 -3 19 -7 62 -9 95 -7
81 -15 164 -26 260 -6 44 -12 105 -15 135 -3 30 -7 75 -10 100 -7 63 -14 135
-20 205 -3 33 -8 71 -10 85 -2 14 -6 59 -10 100 -4 41 -8 86 -10 100 -2 14 -7
54 -10 90 -3 36 -7 81 -9 100 -3 19 -8 68 -11 109 -4 41 -8 82 -10 90 -1 9 -6
54 -10 101 -3 47 -8 92 -10 100 -2 8 -7 58 -10 110 -3 52 -8 102 -10 110 -3 8
-7 40 -10 70 -3 30 -7 71 -9 90 -2 19 -7 67 -11 105 -12 125 -14 149 -19 185
-3 19 -8 69 -11 110 -3 41 -8 91 -10 110 -2 19 -7 58 -9 85 -6 53 -16 154 -21
195 -3 28 -13 131 -21 205 -2 28 -7 70 -9 95 -6 52 -11 106 -20 205 -3 39 -8
93 -12 120 -8 66 -10 85 -18 180 -3 44 -8 87 -10 95 -2 8 -7 51 -11 95 -3 44
-7 87 -9 95 -2 8 -6 53 -10 100 -4 47 -9 93 -11 103 -2 10 -6 48 -9 85 -3 37
-8 83 -10 102 -3 19 -7 69 -10 110 -4 41 -8 86 -10 100 -2 14 -7 52 -10 85 -3
33 -8 76 -10 95 -4 35 -10 100 -20 220 -3 36 -8 76 -11 90 -2 14 -6 52 -9 85
-3 33 -8 80 -10 105 -3 25 -7 65 -10 90 -2 25 -7 72 -11 105 -3 33 -6 67 -6
75 0 8 -4 45 -9 81 -5 37 -11 93 -13 125 -5 55 -13 138 -21 209 -2 17 -6 57
-10 90 -3 33 -8 78 -10 100 -3 22 -7 78 -11 125 -3 47 -8 88 -10 91 -1 3 -6
40 -9 82 -6 73 -5 78 23 119 60 88 105 205 127 326 16 90 13 303 -5 377 -6 28
-14 59 -16 70 -3 11 -6 25 -8 30 -2 6 -9 31 -16 58 -7 26 -16 50 -21 53 -28
17 -8 27 351 194 69 32 169 78 223 104 53 25 99 46 101 46 2 0 66 30 141 66
76 36 170 80 209 98 152 71 167 79 178 99 39 74 -10 161 -89 160 -16 0 -62
-16 -103 -35 -144 -68 -252 -118 -255 -118 -2 0 -68 -31 -147 -69 -78 -37
-168 -80 -198 -93 -30 -14 -127 -59 -215 -101 -88 -41 -191 -89 -230 -107
l-70 -32 -20 28 c-101 140 -220 245 -349 308 -143 69 -397 159 -816 286 -1166
354 -1769 658 -2235 1125 -206 206 -328 374 -459 632 -110 216 -202 521 -231
763 -4 30 -8 69 -11 85 -12 97 -14 165 -14 390 0 138 2 264 4 280 2 17 7 59
11 95 12 126 27 232 41 304 2 11 7 37 10 56 7 47 33 175 44 225 26 116 50 209
55 213 9 9 54 10 1480 17 776 4 1411 8 1412 9 1 0 678 3 1506 5 l1504 4 164
-87z m48484 -4141 c55 -3 138 -7 185 -10 47 -3 110 -7 140 -10 30 -3 80 -8
110 -10 30 -3 73 -8 95 -10 22 -3 60 -7 85 -10 76 -8 134 -16 160 -20 14 -2
48 -7 75 -11 28 -3 59 -8 70 -10 11 -2 66 -11 122 -19 56 -8 108 -17 115 -20
7 -3 42 -9 78 -15 111 -17 333 -62 400 -80 50 -13 210 -51 240 -56 14 -3 36
-9 50 -13 27 -10 245 -69 276 -75 38 -8 323 -96 474 -146 287 -97 733 -266
900 -342 36 -17 81 -36 100 -43 67 -25 451 -210 628 -302 l133 -70 -93 -53
c-577 -329 -1135 -878 -1595 -1570 -290 -435 -512 -863 -740 -1425 -74 -181
-81 -201 -168 -453 -35 -101 -65 -186 -68 -188 -2 -2 -26 5 -53 17 -27 11 -59
25 -71 30 -13 5 -33 13 -45 18 -140 59 -484 175 -633 216 -49 13 -97 26 -105
29 -8 4 -45 13 -82 21 -38 8 -98 22 -135 30 -61 14 -156 34 -238 49 -16 3 -59
11 -95 16 -36 6 -75 13 -87 15 -44 7 -170 24 -224 30 -31 3 -66 7 -77 10 -11
2 -66 6 -123 10 -57 4 -126 9 -154 11 -248 17 -667 12 -875 -10 -19 -2 -78 -7
-130 -11 -52 -4 -97 -8 -100 -10 -3 -2 -32 -6 -66 -9 -33 -4 -71 -8 -85 -11
-13 -2 -40 -6 -59 -9 -235 -35 -247 -37 -395 -67 -55 -12 -109 -23 -119 -25
-47 -9 -170 -39 -274 -66 -62 -16 -120 -31 -130 -33 -97 -22 -623 -189 -677
-215 -11 -5 -81 -32 -156 -59 -74 -27 -168 -63 -209 -80 -40 -17 -75 -29 -78
-27 -9 9 244 279 459 491 504 496 932 825 1624 1250 11 7 102 58 202 113 618
343 1254 601 2020 822 125 36 152 56 160 118 4 33 1 44 -25 73 -24 26 -37 33
-68 33 -40 0 -169 -33 -334 -86 -52 -16 -103 -32 -114 -34 -17 -3 -77 -23
-341 -115 -112 -39 -284 -102 -320 -118 -11 -5 -60 -26 -110 -46 -1415 -581
-2607 -1465 -3527 -2616 l-70 -88 -181 -94 c-261 -135 -522 -289 -726 -429
-47 -32 -85 -57 -85 -55 -1 1 0 959 2 2130 l2 2127 83 65 c111 89 346 255 492
350 66 43 136 88 155 100 71 46 259 154 399 230 130 70 505 255 517 255 3 0
25 9 49 20 120 55 400 162 590 225 162 54 528 158 635 180 38 8 96 21 185 40
105 22 111 23 175 35 30 5 64 11 75 13 11 3 40 8 65 12 25 4 53 9 64 11 10 2
44 6 75 9 31 3 67 8 81 11 14 2 34 6 45 8 12 2 50 7 85 10 36 4 79 8 95 10 17
2 68 7 115 11 47 4 99 9 115 11 17 2 129 7 250 10 121 4 222 8 224 10 5 4 448
-4 566 -11z m-45755 -279 c30 -4 80 -8 110 -11 30 -3 75 -7 100 -10 25 -3 65
-7 90 -10 25 -2 65 -6 90 -9 25 -3 74 -8 110 -11 77 -7 131 -13 182 -21 32 -5
37 -9 44 -42 4 -20 9 -41 10 -47 2 -5 6 -23 9 -40 3 -16 22 -100 41 -185 19
-85 37 -164 39 -175 6 -26 31 -137 56 -245 11 -47 22 -95 24 -108 2 -13 6 -31
9 -40 3 -9 8 -33 11 -52 3 -19 12 -60 20 -90 8 -30 16 -66 19 -80 9 -43 15
-71 20 -88 3 -9 8 -30 10 -47 3 -16 17 -82 32 -145 31 -136 46 -201 74 -330
31 -146 47 -214 54 -238 3 -9 8 -35 12 -57 3 -22 8 -43 11 -48 4 -6 21 -116
38 -246 5 -40 15 -107 20 -141 2 -14 7 -45 10 -70 3 -25 8 -56 10 -70 2 -14 6
-43 9 -65 11 -84 26 -191 30 -215 3 -14 7 -47 11 -75 7 -54 14 -106 20 -144 5
-30 14 -95 20 -141 2 -19 6 -51 9 -70 5 -34 23 -163 31 -225 5 -38 18 -128 20
-135 2 -9 14 -95 20 -140 4 -25 8 -56 10 -70 2 -14 7 -50 10 -80 4 -30 9 -64
11 -75 2 -11 6 -40 9 -65 3 -25 8 -56 10 -70 3 -14 7 -47 11 -75 3 -27 8 -57
9 -66 2 -9 6 -40 10 -69 4 -29 8 -61 10 -70 2 -9 6 -41 10 -71 3 -30 8 -65 10
-79 2 -14 7 -45 10 -70 6 -50 15 -115 21 -144 3 -17 19 -130 29 -203 1 -16 6
-46 9 -68 3 -22 8 -56 10 -75 9 -68 18 -135 22 -155 2 -11 6 -40 9 -65 6 -51
35 -252 40 -279 2 -10 6 -42 10 -72 3 -30 8 -65 10 -79 2 -14 7 -45 10 -70 3
-25 8 -57 10 -71 5 -29 10 -64 25 -188 6 -47 13 -87 15 -90 1 -3 6 -37 9 -76
4 -38 9 -77 11 -85 4 -13 13 -69 20 -125 2 -11 6 -38 9 -60 3 -22 12 -92 21
-155 8 -63 17 -126 19 -140 2 -14 7 -50 11 -80 4 -30 9 -64 11 -75 2 -11 6
-42 9 -69 4 -27 8 -57 10 -66 2 -9 6 -41 10 -71 3 -30 11 -85 16 -124 6 -38
12 -83 14 -100 6 -47 16 -115 20 -133 1 -10 6 -39 9 -67 4 -27 9 -61 11 -75 2
-14 6 -45 9 -70 3 -25 8 -55 10 -67 3 -12 8 -53 11 -90 4 -37 9 -71 11 -74 2
-3 6 -33 9 -65 4 -32 8 -66 10 -74 2 -8 7 -35 10 -60 11 -86 15 -116 19 -136
2 -12 7 -45 11 -75 3 -30 8 -65 10 -79 5 -29 16 -105 21 -140 7 -56 17 -126
20 -144 2 -11 6 -40 9 -65 7 -61 13 -99 19 -136 9 -52 17 -115 31 -225 7 -61
23 -172 29 -210 4 -24 16 -105 21 -145 2 -11 6 -38 9 -60 3 -22 8 -62 12 -90
3 -27 8 -57 9 -66 2 -9 6 -40 10 -70 3 -30 15 -112 25 -184 34 -229 36 -245
45 -320 7 -55 29 -94 65 -112 16 -8 116 -12 333 -12 171 0 312 -2 314 -4 1 -2
7 -24 12 -48 5 -24 19 -84 30 -133 28 -121 28 -126 -6 -117 -16 4 -43 4 -60
-1 -67 -18 -63 57 -63 -1248 l0 -1180 -525 0 c-437 0 -525 2 -525 14 0 12 -62
118 -196 336 -29 47 -80 130 -113 185 -33 55 -83 136 -110 180 -27 44 -71 116
-97 160 -26 44 -57 91 -68 103 -12 13 -82 58 -156 99 -74 42 -168 96 -207 120
-40 23 -74 43 -76 43 -2 0 -102 56 -221 125 -120 69 -220 125 -221 125 -2 0
-37 20 -79 45 -42 24 -163 94 -270 155 -107 60 -212 120 -233 132 -57 32 -158
89 -248 140 -44 25 -154 88 -245 140 -91 52 -185 106 -210 120 -199 113 -266
152 -272 162 -4 6 -6 87 -5 179 l2 169 427 -1 c459 -2 482 0 508 50 13 23 14
29 25 269 4 80 9 168 10 195 10 174 15 276 20 395 4 74 8 167 10 205 1 39 10
228 19 420 14 314 18 421 31 780 2 55 6 159 9 230 4 72 8 204 11 295 3 91 7
237 10 325 15 504 21 736 30 1130 8 368 20 1510 20 1880 0 405 -13 1536 -20
1720 -3 72 -7 211 -10 310 -3 99 -8 227 -10 285 -2 58 -7 182 -10 275 -3 94
-8 193 -10 220 -3 28 -8 106 -11 175 -4 69 -8 143 -9 165 -2 22 -8 130 -14
240 -6 110 -13 218 -15 240 -2 22 -7 94 -11 160 -4 66 -8 127 -10 135 -2 8 -7
56 -10 105 -4 50 -8 108 -10 130 -3 22 -7 74 -11 115 -4 41 -8 82 -9 90 -4 25
5 30 48 26 23 -3 67 -7 97 -10z m-8925 -346 c379 -208 526 -286 791 -416 l305
-149 -6 -80 c-3 -44 -8 -93 -10 -110 -2 -16 -6 -55 -9 -85 -3 -30 -10 -104
-16 -165 -5 -60 -12 -137 -15 -170 -11 -117 -20 -206 -30 -292 -2 -23 -7 -77
-10 -120 -3 -43 -7 -85 -10 -93 -2 -8 -7 -55 -10 -104 -4 -50 -8 -97 -10 -106
-2 -9 -6 -56 -10 -106 -4 -49 -8 -100 -10 -114 -4 -26 -10 -82 -20 -185 -3
-33 -7 -76 -10 -95 -2 -19 -7 -69 -10 -110 -4 -41 -9 -88 -11 -105 -2 -16 -6
-68 -9 -115 -4 -47 -8 -96 -10 -109 -3 -14 -7 -54 -10 -90 -3 -36 -8 -79 -10
-96 -5 -41 -14 -127 -20 -200 -9 -105 -15 -169 -20 -210 -2 -22 -7 -71 -10
-110 -7 -77 -12 -123 -20 -205 -3 -30 -8 -80 -10 -110 -3 -30 -7 -62 -10 -70
-2 -8 -6 -53 -10 -100 -3 -47 -8 -105 -10 -130 -10 -103 -15 -158 -20 -205 -3
-27 -7 -75 -10 -105 -2 -30 -7 -75 -9 -100 -3 -25 -8 -70 -11 -100 -3 -30 -7
-78 -10 -105 -3 -28 -7 -75 -10 -105 -3 -30 -9 -91 -15 -135 -5 -44 -12 -116
-15 -160 -3 -44 -8 -96 -10 -115 -2 -19 -7 -68 -10 -108 -4 -41 -8 -86 -10
-100 -2 -15 -6 -56 -9 -92 -4 -36 -8 -81 -11 -100 -4 -35 -16 -157 -20 -215
-4 -47 -16 -176 -21 -215 -4 -33 -10 -97 -19 -180 -19 -195 -26 -264 -30 -320
-3 -36 -8 -83 -10 -105 -3 -22 -7 -69 -10 -105 -4 -36 -8 -78 -10 -95 -2 -16
-7 -61 -10 -100 -13 -156 -16 -191 -20 -215 -2 -14 -7 -56 -10 -95 -4 -38 -8
-83 -10 -99 -2 -16 -7 -68 -10 -115 -4 -46 -8 -92 -10 -100 -3 -18 -11 -100
-21 -206 -3 -38 -7 -81 -9 -95 -1 -14 -6 -61 -10 -105 -4 -44 -9 -91 -10 -105
-1 -14 -5 -59 -9 -100 -4 -41 -9 -91 -11 -110 -3 -19 -7 -62 -10 -95 -3 -33
-8 -85 -11 -115 -3 -30 -7 -75 -10 -99 -2 -24 -6 -65 -8 -90 -3 -25 -8 -75
-11 -111 -6 -73 -14 -148 -20 -200 -2 -19 -6 -64 -9 -100 -7 -72 -16 -171 -21
-210 -2 -14 -6 -56 -9 -95 -4 -38 -8 -90 -11 -115 -3 -25 -7 -70 -10 -100 -3
-30 -7 -75 -10 -100 -3 -25 -7 -67 -9 -95 -11 -119 -18 -192 -21 -220 -8 -73
-16 -144 -19 -190 -4 -44 -16 -165 -31 -315 -2 -25 -7 -74 -10 -110 -6 -67
-12 -128 -20 -190 -2 -19 -6 -69 -10 -110 -3 -41 -8 -93 -11 -115 -2 -22 -7
-65 -9 -95 -3 -30 -7 -66 -9 -80 -3 -14 -8 -63 -11 -110 -4 -47 -8 -101 -10
-120 -9 -91 -17 -178 -20 -205 -2 -16 -7 -68 -10 -115 -4 -47 -9 -94 -11 -105
-2 -11 -6 -49 -9 -85 -6 -68 -13 -141 -20 -200 -2 -19 -7 -67 -10 -107 -3 -40
-8 -87 -10 -105 -2 -18 -7 -67 -10 -108 -4 -41 -8 -77 -10 -80 -1 -3 -6 -50
-10 -105 -4 -55 -9 -111 -10 -125 -2 -14 -3 -33 -4 -42 -1 -17 -97 -18 -1867
-18 l-1866 0 6 23 c4 12 8 29 10 37 4 14 51 195 61 230 26 100 47 179 50 194
3 11 16 58 29 105 13 47 45 165 70 261 25 96 62 238 82 315 20 77 56 214 80
305 24 91 53 201 65 245 11 44 23 88 25 98 2 9 6 25 9 35 2 9 14 53 26 97 11
44 22 87 24 95 10 41 82 316 121 460 9 30 30 114 49 185 18 72 43 165 54 207
12 43 24 85 26 95 4 20 80 309 95 363 13 46 49 186 60 230 4 19 18 71 30 115
11 44 30 114 41 155 11 41 22 82 24 90 24 92 41 156 71 270 19 74 47 178 61
230 14 52 27 102 29 110 2 8 13 51 24 95 11 44 23 87 25 95 13 51 57 217 60
230 3 8 9 31 14 50 5 19 21 80 36 135 14 55 39 150 55 210 15 61 31 117 34
125 3 8 7 26 10 40 2 14 12 52 21 85 9 33 18 67 20 75 2 8 17 69 35 135 18 66
45 172 62 235 16 63 36 140 44 170 8 30 17 66 20 80 2 14 11 45 19 70 12 38
67 243 81 303 2 9 6 25 9 35 2 9 22 85 44 167 21 83 56 213 76 290 20 77 39
147 41 155 9 38 97 373 115 440 26 93 24 88 49 185 12 44 23 87 25 95 2 8 13
49 24 90 10 41 21 82 25 90 3 8 8 26 10 40 3 14 14 61 26 105 12 44 23 87 25
95 2 8 10 40 19 71 9 31 18 65 20 75 2 11 18 73 36 139 17 66 43 163 56 215
33 125 30 114 54 205 12 44 23 87 25 96 2 9 12 47 23 85 11 38 34 123 51 189
16 66 41 163 55 215 14 52 32 121 40 153 8 31 17 61 19 65 3 4 8 23 11 42 3
19 17 76 31 125 15 50 37 133 50 185 13 52 33 129 44 170 11 41 27 101 35 133
9 32 41 155 71 274 31 119 58 219 60 223 2 3 6 17 9 31 9 43 14 63 35 144 43
157 204 771 216 815 2 8 15 60 30 115 15 55 29 111 31 125 3 14 9 36 14 50 8
22 27 90 35 130 3 12 24 93 50 190 37 136 56 210 60 230 2 14 16 63 30 109 14
47 25 86 25 87 0 2 66 -37 148 -85 81 -48 183 -107 227 -131z m3080 -1344 c11
-2 38 -9 60 -14 22 -6 56 -14 75 -17 19 -3 46 -8 60 -10 210 -43 450 -20 602
56 20 11 39 15 42 11 3 -5 8 -33 10 -63 3 -30 8 -81 11 -114 3 -33 8 -71 10
-85 2 -14 7 -56 10 -95 4 -38 9 -86 11 -105 2 -19 7 -62 10 -95 3 -33 7 -71 9
-85 2 -14 6 -54 9 -90 6 -63 15 -149 22 -200 3 -25 11 -100 19 -195 3 -27 7
-70 10 -95 11 -96 13 -117 19 -180 4 -36 9 -81 11 -100 3 -19 8 -62 11 -95 3
-33 7 -73 9 -90 1 -16 6 -61 10 -100 3 -38 8 -81 10 -95 2 -14 7 -56 11 -95 7
-78 9 -94 18 -180 3 -33 9 -85 11 -115 12 -121 16 -156 20 -170 2 -8 7 -58 10
-110 3 -52 8 -102 10 -110 2 -8 6 -42 9 -75 14 -153 16 -177 21 -215 11 -87
14 -118 20 -185 4 -38 8 -83 10 -100 2 -16 6 -64 10 -105 3 -41 11 -113 16
-160 10 -85 12 -97 24 -225 4 -38 8 -81 10 -95 8 -74 15 -142 20 -205 4 -38 8
-81 11 -95 2 -14 6 -65 10 -115 3 -49 9 -108 14 -130 4 -22 8 -47 8 -55 -1
-25 13 -189 17 -212 3 -11 7 -55 10 -97 3 -42 8 -92 11 -112 5 -37 6 -46 19
-199 4 -47 10 -103 15 -125 4 -22 8 -47 7 -55 0 -17 13 -170 19 -215 5 -37 19
-179 29 -295 3 -36 8 -81 10 -100 2 -19 7 -64 10 -100 3 -36 8 -81 10 -100 2
-19 7 -66 11 -105 3 -38 7 -83 9 -100 2 -16 6 -61 9 -100 4 -38 9 -83 11 -100
2 -16 7 -66 10 -110 3 -44 7 -96 10 -115 4 -35 11 -93 19 -185 3 -27 7 -72 10
-100 8 -83 16 -167 21 -230 3 -33 10 -103 15 -155 6 -52 12 -122 15 -155 3
-33 8 -80 11 -105 5 -45 8 -82 19 -200 3 -36 8 -83 11 -105 2 -22 9 -89 14
-150 14 -152 26 -265 35 -335 3 -19 7 -59 10 -90 5 -49 17 -148 31 -250 7 -46
31 -131 44 -150 12 -19 -16 -17 395 -19 l345 -1 0 -156 0 -155 -22 7 c-44 14
-91 5 -118 -21 l-25 -25 -3 -1190 -2 -1190 -2638 0 -2639 0 14 63 c8 34 15 69
17 77 5 18 37 151 40 165 1 6 5 19 9 30 3 11 8 31 11 45 4 20 56 238 71 300 2
8 10 44 18 80 8 36 26 110 40 165 14 55 28 111 31 125 2 14 19 84 36 155 17
72 33 139 36 150 2 11 15 67 30 125 14 58 28 114 30 125 6 31 34 146 44 180 7
23 91 376 116 488 6 25 10 45 28 117 8 36 27 117 42 180 14 63 32 135 39 160
14 46 53 214 61 260 3 14 9 39 14 55 5 17 26 100 46 185 19 85 37 163 40 173
2 9 6 27 10 40 3 12 7 33 10 47 3 14 18 77 34 140 16 63 50 203 75 310 25 107
52 220 60 250 22 88 35 143 40 168 2 13 7 32 10 42 3 10 8 27 10 37 2 10 16
67 30 127 15 60 28 117 30 127 2 10 15 66 30 126 14 59 35 146 46 193 11 47
26 110 34 140 8 30 21 84 29 120 8 36 18 79 22 95 4 17 9 39 11 49 2 11 11 47
19 80 9 34 17 66 18 71 1 6 5 19 9 30 3 11 8 31 11 45 2 14 12 57 21 95 9 39
18 77 20 85 2 8 15 65 30 125 15 61 28 115 29 120 2 6 6 21 9 35 10 40 59 244
62 260 2 8 9 38 15 65 6 28 13 57 15 65 1 8 8 35 15 60 7 25 14 52 15 60 2 8
9 38 15 65 6 28 13 57 15 65 2 8 18 73 35 144 18 71 33 137 35 145 3 13 47
196 60 251 22 86 37 151 41 180 3 19 8 38 11 42 2 5 6 16 8 25 1 10 10 45 19
79 8 33 17 69 19 80 2 10 7 30 10 44 13 51 86 358 102 430 9 41 25 107 36 146
10 39 20 81 22 95 3 13 17 74 32 134 15 61 28 115 30 120 1 6 6 28 12 50 6 22
23 94 38 160 39 168 111 468 145 605 16 63 31 126 34 140 10 49 16 77 47 200
45 182 69 282 74 305 8 39 54 231 74 310 21 85 53 218 71 300 7 28 14 58 16
68 2 9 6 26 8 37 3 11 14 57 25 102 11 46 23 97 27 113 4 17 8 35 10 40 1 6 9
42 19 80 24 101 26 109 29 120 8 29 45 182 50 210 4 20 22 93 32 126 4 16 10
15 67 -2 34 -11 71 -21 82 -23z m51360 -2719 c17 -2 68 -8 115 -12 47 -4 92
-9 100 -10 8 -1 42 -5 75 -9 103 -13 175 -24 220 -32 45 -9 152 -27 185 -31
56 -6 431 -97 491 -118 22 -8 39 -12 39 -10 0 3 17 -1 38 -9 20 -8 96 -33 167
-56 120 -38 210 -69 260 -90 11 -5 67 -27 125 -50 231 -92 570 -255 783 -378
20 -12 54 -31 75 -43 20 -12 89 -53 152 -92 838 -518 1643 -1260 2306 -2127
173 -226 400 -559 382 -562 -7 0 -17 -2 -23 -3 -5 -1 -39 -5 -75 -9 -36 -4
-92 -12 -125 -18 -33 -5 -69 -11 -80 -13 -54 -7 -110 -17 -115 -20 -3 -2 -26
-6 -50 -10 -25 -4 -74 -13 -110 -22 -36 -8 -72 -16 -80 -18 -627 -136 -1269
-412 -1855 -800 -832 -550 -1571 -1312 -2337 -2410 -57 -81 -248 -368 -402
-604 -188 -287 -347 -482 -582 -711 -236 -231 -453 -397 -727 -558 l-88 -52
-1879 0 c-1497 0 -1880 3 -1880 13 0 6 0 827 0 1822 l0 1810 152 150 c565 557
1247 1062 1938 1435 193 104 516 258 695 330 44 17 89 35 100 40 154 64 646
231 675 229 3 0 19 5 35 11 17 7 37 13 45 15 8 2 40 10 71 19 31 9 66 19 78
21 11 3 30 7 41 10 11 3 29 7 40 10 48 12 67 16 90 21 14 3 41 9 60 14 19 5
46 11 60 14 14 2 45 9 70 15 25 5 59 12 75 15 17 3 71 12 120 21 50 8 100 17
111 19 12 2 45 7 74 11 29 4 62 8 73 11 33 6 167 23 237 29 36 3 81 8 100 10
19 2 76 7 125 10 50 3 117 8 150 11 65 5 735 4 800 -1 22 -2 81 -6 130 -10 50
-4 108 -8 130 -10 84 -8 161 -16 195 -20 19 -3 53 -7 75 -10 47 -6 319 -52
355 -60 14 -3 50 -10 80 -16 30 -6 110 -26 177 -45 68 -19 136 -34 153 -34 43
0 89 45 94 92 8 66 -39 111 -138 133 -12 2 -39 9 -61 14 -77 20 -250 59 -285
65 -19 3 -46 8 -60 11 -14 3 -45 8 -70 11 -25 3 -54 8 -65 10 -11 2 -40 7 -65
10 -25 3 -54 8 -65 10 -32 7 -261 33 -340 39 -155 11 -249 18 -305 20 -94 5
-603 5 -685 0 -150 -8 -344 -22 -405 -30 -19 -2 -60 -7 -90 -10 -69 -8 -128
-15 -160 -20 -14 -2 -50 -7 -80 -10 -30 -3 -62 -8 -70 -10 -8 -3 -46 -9 -85
-15 -94 -13 -115 -17 -220 -40 -49 -11 -101 -22 -115 -24 -96 -18 -183 -38
-325 -75 -44 -12 -88 -24 -98 -26 -55 -12 -223 -64 -407 -125 -150 -49 -426
-152 -525 -195 -266 -116 -464 -210 -679 -326 -89 -47 -178 -95 -198 -107 -21
-12 -53 -31 -72 -41 -514 -291 -1205 -815 -1643 -1245 l-93 -91 -1 1730 c-1
952 -2 1737 -3 1745 -1 8 2 22 6 31 15 33 523 361 733 474 50 27 128 69 175
95 96 52 292 148 480 232 271 123 705 281 1010 368 143 41 268 74 345 91 50
10 99 21 110 24 107 24 181 39 335 66 176 30 196 33 320 48 197 24 246 29 360
37 52 3 97 8 99 10 6 5 889 -3 926 -9z m-46825 -6312 l0 -171 -256 -309 c-140
-171 -261 -316 -268 -323 -10 -11 -27 -6 -92 24 -43 20 -124 56 -179 81 -55
25 -128 58 -163 74 -35 16 -65 29 -67 29 -2 0 -43 18 -92 41 -48 22 -113 51
-144 65 -31 13 -100 44 -154 69 -53 25 -99 45 -102 45 -3 0 -40 16 -82 36 -42
20 -107 49 -146 65 l-70 30 2 202 c1 111 2 204 2 207 1 3 408 5 906 5 l905 0
0 -170z m6461 -3 l1 -170 -237 -289 c-131 -158 -251 -303 -267 -321 l-29 -33
-42 19 c-104 49 -201 93 -259 118 -53 22 -249 110 -438 196 -25 11 -106 47
-180 80 -306 135 -350 156 -350 165 0 4 -1 96 -1 203 l-1 195 898 5 c495 3
900 5 902 4 1 -1 3 -78 3 -172z m-7182 -2526 l35 -36 -198 0 -197 0 34 63 c19
34 49 86 66 115 17 29 31 58 31 64 0 10 159 -132 229 -206z m6307 -34 c-104
-1 -191 0 -194 2 -2 3 10 31 28 63 18 32 44 78 58 103 14 25 30 53 36 62 9 15
28 0 136 -105 l125 -122 -189 -3z"/>
<path d="M38205 57228 c-35 -20 -1290 -1230 -1299 -1253 -13 -33 6 -73 41 -86
16 -6 65 -9 111 -7 45 2 82 0 82 -4 0 -5 0 -286 0 -626 0 -369 4 -632 10 -653
5 -19 22 -44 37 -56 28 -23 32 -23 320 -23 l293 0 32 29 33 29 5 314 5 314 33
66 c38 77 92 130 171 167 49 22 69 26 156 26 91 0 106 -3 160 -29 84 -41 144
-107 177 -192 26 -69 27 -70 28 -352 0 -155 5 -293 10 -306 4 -13 21 -33 36
-45 26 -20 36 -21 318 -21 248 0 295 2 314 16 52 36 51 24 52 705 0 347 2 634
5 637 2 2 39 4 82 4 94 0 140 16 149 53 4 14 3 35 -2 45 -5 11 -211 214 -459
451 -247 237 -536 515 -642 616 -191 184 -218 203 -258 181z"/>
<path d="M59884 56716 c-57 -25 -78 -79 -54 -140 22 -58 -26 -56 1100 -56
1155 0 1079 -5 1102 71 10 37 10 46 -8 78 -13 24 -30 40 -54 48 -55 19 -2043
17 -2086 -1z"/>
<path d="M59893 56083 c-32 -6 -73 -59 -73 -94 0 -41 23 -83 55 -97 20 -9 280
-12 1061 -12 l1036 0 33 33 c30 30 33 39 30 78 -3 29 -13 52 -30 69 l-25 25
-1033 1 c-567 1 -1042 -1 -1054 -3z"/>
<path d="M59871 55436 c-57 -31 -67 -107 -22 -158 l29 -33 1041 -3 c1150 -3
1073 -7 1107 59 22 44 17 74 -20 113 l-33 36 -1039 0 c-843 -1 -1044 -3 -1063
-14z"/>
<path d="M49180 51657 c-3 -3 -84 -8 -180 -11 -96 -4 -195 -9 -220 -10 -243
-17 -293 -22 -496 -51 -19 -3 -56 -8 -82 -11 -26 -3 -59 -7 -73 -9 -14 -3 -41
-7 -60 -9 -54 -7 -224 -38 -314 -56 -27 -6 -66 -13 -85 -16 -49 -8 -494 -119
-620 -155 -181 -53 -394 -125 -650 -221 -72 -27 -297 -122 -378 -159 -35 -16
-65 -29 -68 -29 -11 0 -378 -185 -514 -259 -495 -269 -1016 -630 -1430 -990
-41 -36 -82 -71 -92 -79 -14 -12 -29 0 -135 105 -295 296 -610 463 -1025 543
-159 31 -496 34 -624 6 -12 -2 -37 -7 -55 -10 -161 -27 -350 -91 -515 -174
-294 -149 -535 -364 -731 -652 -99 -145 -211 -398 -254 -570 -39 -162 -53
-285 -53 -475 0 -234 15 -350 73 -544 143 -478 463 -877 903 -1124 57 -31 137
-71 178 -88 41 -17 78 -34 83 -38 4 -4 -11 -54 -34 -112 -76 -192 -87 -223
-143 -389 -64 -193 -110 -345 -152 -510 -8 -30 -16 -62 -19 -70 -36 -114 -130
-582 -160 -792 -3 -23 -8 -54 -10 -68 -2 -14 -6 -45 -10 -70 -3 -25 -8 -61
-10 -80 -3 -19 -8 -56 -10 -82 -3 -26 -7 -64 -9 -85 -4 -37 -16 -167 -22 -248
-25 -349 -25 -949 0 -1185 3 -19 7 -75 11 -125 3 -49 8 -101 10 -115 2 -14 6
-56 10 -95 4 -38 9 -79 11 -89 2 -11 6 -42 9 -70 5 -48 7 -64 20 -140 2 -16 7
-50 11 -75 8 -53 10 -66 18 -101 3 -14 8 -41 11 -60 2 -19 7 -46 10 -60 3 -14
8 -40 11 -59 3 -18 8 -43 10 -55 7 -31 12 -56 24 -111 19 -91 21 -100 26 -117
3 -9 7 -26 9 -37 3 -12 8 -31 11 -43 3 -13 9 -39 14 -58 10 -44 14 -58 39
-150 44 -161 61 -218 90 -302 16 -49 28 -88 26 -88 -2 0 10 -37 27 -82 16 -46
36 -101 43 -124 12 -39 34 -95 92 -244 29 -75 24 -62 104 -250 79 -188 279
-593 364 -740 37 -63 77 -133 89 -155 339 -597 909 -1310 1456 -1820 524 -488
1042 -868 1630 -1195 157 -88 491 -256 623 -314 20 -9 52 -22 70 -30 17 -8 66
-29 107 -46 41 -17 89 -38 105 -45 79 -35 510 -190 558 -200 9 -2 21 -6 25 -9
7 -4 239 -74 267 -80 6 -2 30 -8 55 -15 25 -7 52 -15 60 -17 8 -1 71 -17 140
-33 257 -63 481 -110 600 -126 41 -5 104 -15 126 -19 12 -2 45 -7 75 -11 30
-3 61 -8 69 -10 8 -2 38 -7 65 -10 28 -3 66 -7 85 -10 53 -7 188 -19 335 -30
50 -3 115 -8 145 -10 246 -20 808 -15 1060 9 19 2 80 7 135 10 55 4 107 9 115
11 8 2 44 7 80 10 36 4 76 8 90 10 14 2 49 7 79 10 30 4 63 9 75 11 11 2 38 6
61 9 106 16 322 53 364 64 20 6 54 12 76 16 22 3 48 8 57 11 15 5 28 7 88 19
78 15 476 120 570 150 304 97 629 214 784 285 23 10 91 39 151 65 127 55 562
270 623 309 23 14 43 26 45 26 2 0 44 23 93 51 1097 631 2041 1520 2746 2584
278 420 538 908 720 1350 131 319 291 781 342 990 8 33 35 139 59 235 25 96
48 192 51 212 3 21 10 57 15 80 13 58 18 84 42 218 27 156 28 161 34 206 2 21
7 50 10 64 2 14 7 50 11 80 3 30 7 64 8 75 2 11 6 49 11 85 4 36 9 79 11 95 2
17 6 71 10 120 3 50 8 92 9 95 7 12 20 406 20 610 0 193 -10 487 -20 580 -2
19 -6 71 -9 115 -8 91 -14 162 -22 220 -2 22 -7 56 -9 75 -2 19 -7 60 -10 90
-11 92 -61 391 -81 485 -2 11 -13 65 -25 120 -11 55 -25 120 -30 145 -6 25
-12 56 -15 68 -5 27 -16 69 -72 272 -55 199 -114 384 -200 625 -154 431 -402
952 -650 1370 -637 1071 -1525 1997 -2567 2680 -95 62 -313 196 -386 238 -24
13 -73 41 -109 62 -158 91 -540 278 -760 373 -438 187 -967 360 -1390 452 -47
10 -127 28 -178 39 -91 20 -204 41 -364 66 -18 3 -44 7 -58 10 -14 2 -50 7
-80 11 -30 3 -64 8 -75 9 -11 2 -47 6 -80 10 -33 3 -73 8 -90 10 -136 18 -257
28 -500 41 -133 7 -560 15 -565 11z m585 -221 c77 -4 163 -9 190 -11 134 -12
173 -16 205 -20 19 -2 64 -7 100 -10 36 -4 76 -8 90 -10 14 -2 45 -7 70 -10
25 -3 86 -12 135 -20 50 -8 108 -16 129 -20 21 -3 48 -7 60 -10 12 -3 35 -7
51 -10 183 -34 359 -72 505 -110 74 -20 140 -37 145 -39 6 -1 30 -8 55 -15
1003 -280 1977 -780 2802 -1438 411 -327 832 -739 1175 -1150 254 -304 578
-764 735 -1043 11 -19 24 -39 28 -45 4 -5 22 -37 40 -70 19 -33 49 -87 67
-120 43 -76 238 -471 291 -590 34 -75 104 -247 179 -440 8 -22 19 -49 24 -60
16 -39 144 -433 165 -510 38 -138 75 -275 79 -290 2 -11 6 -31 9 -45 6 -27 22
-93 36 -150 5 -19 12 -51 15 -70 5 -30 28 -143 41 -205 2 -11 7 -36 10 -55 2
-19 9 -57 14 -85 5 -27 12 -72 15 -100 3 -27 8 -61 11 -75 3 -13 7 -40 9 -60
3 -19 7 -55 11 -80 7 -52 10 -72 18 -155 6 -55 9 -92 21 -230 14 -155 19 -323
19 -595 0 -268 -10 -595 -19 -610 -1 -3 -6 -52 -9 -110 -4 -58 -9 -114 -11
-125 -3 -11 -7 -47 -10 -80 -3 -33 -8 -73 -10 -90 -2 -16 -7 -54 -10 -83 -4
-29 -8 -63 -11 -75 -2 -12 -6 -33 -8 -47 -3 -14 -8 -47 -11 -73 -3 -26 -17
-107 -31 -180 -15 -73 -30 -156 -35 -186 -6 -30 -12 -57 -14 -61 -2 -4 -14
-49 -25 -101 -28 -122 -26 -112 -48 -199 -42 -157 -113 -399 -143 -485 -76
-222 -101 -291 -109 -310 -4 -11 -14 -36 -21 -55 -12 -34 -106 -262 -134 -325
-7 -16 -27 -64 -45 -105 -45 -103 -237 -483 -306 -605 -147 -260 -305 -509
-481 -755 -113 -159 -342 -452 -362 -465 -7 -4 -54 30 -114 82 -327 284 -650
498 -1057 702 -293 146 -555 254 -857 352 -51 16 -96 30 -100 30 -5 1 -15 5
-24 10 -18 9 -260 78 -329 94 -12 2 -54 13 -94 24 -40 11 -86 23 -102 26 -16
3 -33 7 -39 9 -5 1 -37 8 -70 15 -33 7 -85 19 -115 26 -47 12 -201 41 -320 60
-19 3 -46 8 -60 10 -14 3 -43 8 -65 11 -61 9 -82 12 -122 18 -21 4 -56 9 -78
11 -22 3 -56 7 -75 10 -51 7 -98 13 -165 20 -33 3 -78 9 -100 12 -54 7 -97 11
-185 18 -41 3 -95 8 -120 10 -53 5 -228 17 -285 20 -22 1 -45 3 -51 4 -7 0
-17 27 -23 59 -5 31 -13 68 -16 82 -3 14 -12 63 -20 110 -9 47 -18 97 -20 110
-10 47 -15 77 -19 111 -3 19 -7 48 -10 64 -3 17 -7 48 -11 70 -3 23 -7 50 -9
60 -2 11 -7 43 -10 70 -4 28 -9 67 -12 88 -6 42 -3 43 57 21 44 -15 237 -61
294 -70 134 -20 432 -26 575 -11 331 33 702 158 950 318 232 150 399 362 435
554 23 122 13 235 -31 350 -30 81 -49 116 -110 210 -69 106 -87 144 -123 255
-28 84 -39 134 -59 270 -14 97 -7 437 13 585 2 17 7 53 11 80 3 28 8 60 9 72
2 13 6 41 10 63 4 22 8 50 10 63 1 12 8 49 14 82 6 33 14 74 17 90 14 78 91
447 115 555 6 25 13 59 15 75 3 17 14 64 24 105 10 41 21 93 26 115 4 22 8 45
10 50 9 39 34 166 40 205 3 19 9 49 14 65 5 17 12 50 15 75 4 25 13 74 20 110
8 36 17 85 20 110 3 25 7 56 10 70 3 14 7 39 9 55 3 17 9 62 15 100 5 39 13
95 16 125 3 30 7 73 10 95 22 217 27 336 22 545 -5 216 -8 259 -23 360 -3 19
-7 55 -10 80 -3 25 -9 61 -14 80 -5 19 -12 51 -15 70 -21 124 -103 368 -175
515 -109 225 -224 388 -400 569 -199 205 -402 358 -700 529 -59 34 -329 167
-338 167 -5 0 -38 13 -73 29 -49 22 -239 87 -314 107 -89 24 -246 60 -305 70
-14 3 -36 7 -50 9 -25 5 -88 14 -145 20 -237 28 -563 28 -775 0 -19 -3 -55 -7
-80 -10 -25 -3 -81 -12 -125 -20 -44 -8 -96 -17 -115 -20 -97 -15 -495 -127
-555 -155 -33 -16 -133 -48 -137 -45 -2 2 -15 6 -28 8 -52 10 -90 21 -246 73
-146 48 -281 87 -345 99 -13 3 -37 8 -54 11 -155 35 -420 39 -624 9 -18 -2
-40 -7 -50 -9 -9 -3 -29 -8 -46 -11 -178 -31 -401 -113 -640 -236 -385 -198
-671 -425 -890 -709 -113 -147 -256 -398 -312 -550 -13 -36 -28 -74 -33 -85
-28 -62 -111 -363 -126 -460 -3 -22 -8 -43 -10 -47 -2 -4 -9 -40 -14 -80 -5
-40 -12 -89 -14 -108 -3 -19 -8 -60 -11 -90 -3 -30 -8 -71 -10 -90 -10 -93
-17 -297 -16 -510 0 -303 9 -497 36 -780 2 -25 7 -81 10 -125 4 -43 8 -82 10
-85 2 -3 6 -50 10 -105 3 -55 8 -111 10 -125 6 -35 13 -94 20 -170 4 -36 8
-76 10 -90 2 -14 6 -52 10 -85 3 -33 8 -73 10 -90 2 -16 7 -64 10 -105 4 -41
9 -83 11 -92 1 -10 6 -64 9 -120 4 -57 8 -110 10 -118 2 -8 7 -55 11 -105 3
-49 8 -110 10 -135 5 -67 5 -581 0 -610 -3 -14 -10 -65 -15 -115 -12 -96 -19
-140 -27 -167 -3 -9 -7 -26 -9 -37 -3 -12 -7 -29 -9 -38 -13 -59 -63 -180
-111 -269 -86 -162 -108 -231 -109 -349 -2 -300 281 -602 774 -824 88 -40 319
-126 361 -135 13 -3 58 -14 99 -25 99 -27 294 -71 339 -77 20 -2 47 -7 61 -9
14 -3 48 -8 75 -11 28 -3 56 -7 62 -9 56 -19 546 -27 719 -12 l91 8 6 -302 c4
-166 7 -358 7 -426 l0 -123 -32 -1 c-18 0 -40 -2 -49 -4 -8 -1 -42 -6 -75 -9
-83 -9 -146 -18 -169 -22 -11 -2 -42 -6 -70 -9 -27 -3 -61 -8 -75 -10 -14 -3
-38 -7 -55 -9 -16 -3 -84 -14 -150 -26 -66 -11 -137 -23 -157 -25 -21 -3 -66
-12 -100 -20 -35 -8 -78 -17 -96 -20 -334 -57 -864 -218 -1209 -366 -50 -21
-93 -39 -96 -39 -9 0 -331 -159 -402 -198 -122 -68 -168 -94 -231 -133 -398
-243 -756 -529 -1121 -896 l-181 -182 -109 117 c-454 487 -808 965 -1138 1537
-84 145 -254 477 -325 636 -23 52 -51 113 -61 136 -10 23 -19 44 -19 47 0 3
-11 29 -24 58 -56 123 -254 676 -271 756 -2 9 -15 55 -28 102 -25 84 -41 146
-77 290 -25 99 -77 335 -84 385 -4 22 -15 85 -25 140 -21 109 -37 212 -47 290
-3 28 -7 57 -9 65 -2 8 -6 47 -10 85 -4 39 -8 84 -10 100 -34 306 -42 487 -39
905 2 201 5 388 8 415 2 28 8 91 11 141 4 50 8 104 10 120 2 16 7 62 10 101 3
40 8 81 9 90 2 10 7 43 11 73 3 30 8 66 10 80 19 137 27 189 32 215 3 17 6 37
8 45 1 8 5 29 9 45 3 17 8 44 10 60 6 44 72 359 91 435 63 248 165 590 215
725 10 28 39 106 65 175 25 69 58 153 73 188 24 57 29 62 52 57 14 -3 43 -8
65 -11 22 -3 43 -8 46 -9 29 -18 448 -28 554 -13 104 14 159 26 277 57 421
113 813 397 1069 777 49 73 156 273 177 329 6 17 24 67 41 113 17 45 28 82 25
82 -2 0 0 8 5 18 12 22 49 204 59 287 15 125 8 435 -12 531 -2 12 -7 39 -10
60 -31 192 -147 490 -250 640 l-27 39 33 28 c220 191 529 436 691 549 501 349
1016 635 1527 848 247 103 753 281 899 316 9 2 75 19 146 38 133 35 408 99
480 112 22 4 47 9 55 11 8 1 30 5 49 8 18 2 41 7 50 9 9 3 63 12 121 21 58 8
114 16 125 19 11 2 45 7 76 10 31 4 67 9 80 11 36 7 94 13 284 31 121 10 146
12 310 19 88 4 161 8 162 9 5 4 542 -3 658 -8z m-7244 -2069 c49 -22 116 -97
124 -139 3 -18 6 -168 8 -333 l2 -300 298 -2 c175 -2 315 -7 339 -13 55 -15
123 -80 142 -137 23 -67 20 -121 -10 -181 -29 -59 -70 -94 -132 -116 -51 -18
1 -16 -347 -16 l-295 0 1 -313 c1 -296 0 -315 -19 -353 -58 -112 -196 -158
-308 -101 -57 29 -74 46 -104 104 -21 40 -21 53 -21 347 0 168 -3 307 -8 310
-4 3 -142 6 -306 6 -298 1 -299 1 -353 27 -173 82 -174 325 0 414 34 17 62 19
347 19 284 0 309 1 316 17 3 10 5 148 4 308 -1 255 1 295 16 333 20 48 93 118
139 132 42 12 123 6 167 -13z m6657 -3124 c5 -21 20 -91 32 -157 12 -65 26
-133 32 -150 5 -17 11 -38 13 -47 9 -40 77 -232 108 -304 219 -511 613 -893
1127 -1093 299 -116 668 -179 1002 -170 l138 3 -5 -50 c-3 -27 -8 -61 -10 -75
-2 -14 -6 -43 -10 -65 -9 -64 -15 -99 -20 -115 -2 -8 -7 -29 -10 -47 -12 -70
-71 -233 -118 -325 -55 -108 -142 -218 -214 -271 -85 -62 -231 -127 -323 -142
-52 -9 -128 -36 -138 -49 -5 -6 -16 -33 -25 -61 -8 -27 -29 -95 -46 -149 -17
-54 -33 -108 -36 -120 -7 -36 -13 -59 -28 -121 -8 -33 -18 -78 -22 -100 -14
-82 -16 -91 -25 -125 -5 -19 -11 -55 -14 -80 -5 -44 -13 -101 -22 -150 -2 -14
-6 -54 -10 -90 -3 -36 -7 -81 -9 -100 -26 -242 -26 -738 0 -1020 9 -99 16
-176 20 -200 2 -14 6 -55 10 -91 3 -36 7 -76 10 -90 8 -49 14 -95 20 -149 3
-30 8 -62 10 -70 2 -8 7 -33 10 -55 3 -23 8 -52 10 -65 3 -14 9 -50 15 -80 5
-30 11 -64 13 -75 3 -11 8 -40 13 -65 4 -25 8 -47 9 -50 3 -13 16 -77 19 -95
36 -185 39 -194 65 -219 29 -28 32 -28 231 -41 52 -4 115 -8 140 -10 160 -12
215 -17 218 -20 10 -9 -73 -225 -126 -330 -289 -578 -817 -986 -1452 -1121
-41 -8 -84 -17 -95 -20 -25 -5 -75 -12 -145 -20 -68 -8 -399 -8 -460 0 -256
32 -459 88 -675 183 -363 161 -656 413 -888 761 -58 88 -190 344 -202 394 -8
31 -3 35 60 42 119 15 209 27 214 31 3 1 37 6 76 10 38 3 72 8 75 10 3 1 32 6
65 9 284 32 293 35 316 105 15 45 6 776 -15 1201 -4 69 -9 164 -12 213 -6 84
-5 87 16 87 51 0 257 68 360 118 240 118 471 304 662 532 107 127 114 145 31
73 -268 -230 -552 -373 -853 -429 -75 -14 -136 -19 -260 -18 -168 0 -226 6
-355 38 -5 2 -23 6 -40 10 -16 4 -61 19 -100 33 -397 146 -680 415 -845 803
-41 99 -103 286 -116 354 -2 12 -8 41 -14 66 -18 78 -40 203 -45 255 -3 28 -7
64 -10 80 -14 103 -19 243 -20 485 0 275 9 474 30 640 6 51 12 103 20 175 3
28 10 75 15 105 9 57 17 110 26 170 2 19 6 42 8 50 4 19 15 77 20 110 3 14 10
50 16 80 6 30 13 66 15 80 3 14 18 88 35 164 29 132 43 171 59 162 9 -6 77
-13 196 -21 82 -6 278 4 395 19 14 2 48 7 75 10 28 4 57 9 65 11 8 2 29 7 45
9 221 38 516 133 743 241 295 141 588 338 794 535 51 49 96 89 100 90 4 0 11
-17 16 -37z"/>
<path d="M47101 45053 c-102 -26 -141 -63 -141 -137 0 -31 35 -84 57 -87 49
-6 74 -3 111 13 56 25 99 19 154 -21 50 -37 102 -41 141 -11 59 46 51 117 -19
179 -77 68 -193 93 -303 64z"/>
<path d="M48410 44943 c-142 -41 -180 -69 -180 -137 0 -33 6 -48 28 -68 39
-38 70 -43 130 -19 78 31 139 25 187 -18 76 -68 185 -26 185 71 0 81 -133 167
-265 173 -38 1 -77 1 -85 -2z"/>
<path d="M47650 44873 c-30 -11 -60 -47 -64 -77 -3 -17 -7 -121 -10 -231 -3
-110 -8 -216 -10 -235 -2 -19 -7 -75 -10 -125 -8 -104 -11 -129 -19 -170 -3
-16 -9 -57 -12 -90 -4 -32 -8 -62 -10 -66 -3 -3 -7 -24 -9 -45 -8 -60 -44
-185 -67 -230 -12 -23 -52 -69 -90 -103 -186 -167 -163 -379 51 -457 61 -22
262 -22 298 0 4 2 23 7 43 10 56 9 126 42 139 67 15 27 15 80 1 108 -25 45
-74 56 -156 35 -133 -34 -254 -39 -282 -11 -13 13 -13 18 1 45 9 17 36 45 61
63 40 29 62 55 108 130 28 47 78 197 92 281 4 18 10 51 15 74 5 22 12 58 14
80 3 21 7 55 10 74 12 84 15 110 22 195 10 139 12 174 14 410 l1 220 -30 27
c-30 27 -65 34 -101 21z"/>
<path d="M47083 44614 c-60 -29 -83 -99 -55 -168 35 -87 176 -94 219 -11 23
43 25 82 7 121 -30 62 -108 88 -171 58z"/>
<path d="M48374 44469 c-50 -14 -94 -71 -94 -122 0 -91 65 -152 153 -144 101
9 153 110 104 203 -30 58 -95 83 -163 63z"/>
<path d="M47875 42428 c-11 -6 -36 -23 -55 -38 -88 -68 -216 -74 -311 -14 -60
37 -109 35 -150 -5 -21 -22 -29 -39 -29 -66 0 -49 12 -69 63 -103 35 -25 146
-73 162 -71 3 0 25 -3 49 -6 129 -20 357 70 402 157 27 52 11 113 -35 138 -30
16 -75 20 -96 8z"/>
<path d="M40045 32748 c-3 -13 -4 -115 -3 -228 l3 -205 9300 0 9300 0 3 205
c1 113 0 215 -3 228 l-5 22 -9295 0 -9295 0 -5 -22z"/>
<path d="M48790 31372 c-179 -16 -382 -123 -496 -260 -63 -75 -134 -216 -157
-309 -16 -63 -18 -263 -3 -328 41 -184 163 -358 325 -462 221 -143 520 -155
753 -31 165 88 293 244 354 430 34 105 42 274 18 383 -21 96 -91 237 -156 315
-79 94 -139 137 -309 220 -54 27 -240 50 -329 42z"/>
<path d="M46712 31089 c-83 -16 -185 -74 -246 -140 -96 -103 -131 -198 -123
-330 6 -103 9 -119 47 -195 51 -105 189 -215 300 -239 135 -30 294 6 408 93
45 34 116 136 135 192 18 55 40 167 34 178 -3 4 -7 32 -11 62 -12 109 -94 237
-199 309 -88 60 -239 91 -345 70z"/>
<path d="M50815 31085 c-124 -30 -252 -130 -308 -241 -25 -49 -58 -191 -52
-223 1 -9 6 -36 10 -61 23 -144 104 -259 231 -331 130 -73 314 -73 451 2 95
51 184 165 217 279 20 65 19 192 0 257 -48 158 -186 283 -356 322 -59 14 -128
12 -193 -4z"/>
<path d="M38390 26513 c-54 -49 -42 -135 23 -167 29 -14 1072 -15 10942 -13
9614 2 10913 4 10932 17 13 8 30 32 38 53 13 32 13 42 1 71 -8 18 -24 41 -37
50 -22 15 -864 16 -10946 16 l-10923 0 -30 -27z"/>
<path d="M38414 25424 c-44 -21 -68 -76 -54 -120 6 -19 23 -43 37 -54 l26 -20
10923 0 10924 0 30 28 c16 15 31 38 34 52 7 42 -22 97 -59 114 -30 15 -1022
16 -10932 16 -9737 0 -10901 -2 -10929 -16z"/>
<path d="M38414 24316 c-37 -16 -44 -26 -55 -74 -9 -41 7 -81 43 -106 20 -15
1063 -16 10944 -16 10895 0 10921 0 10947 20 63 50 53 146 -18 176 -50 21
-21813 20 -21861 0z"/>
<path d="M38401 23204 c-55 -39 -59 -134 -6 -168 22 -15 934 -16 10951 -16
9516 0 10930 2 10950 14 21 15 42 59 38 84 -1 6 -2 19 -3 28 0 8 -14 29 -30
45 l-29 29 -10924 0 c-10083 0 -10925 -1 -10947 -16z"/>
<path d="M42529 21106 c-2 -2 -38 -7 -79 -10 -41 -3 -88 -8 -105 -11 -78 -13
-92 -15 -115 -20 -14 -3 -38 -8 -55 -11 -80 -14 -290 -75 -374 -108 -689 -272
-1206 -780 -1484 -1456 -32 -77 -90 -253 -102 -308 -3 -12 -7 -31 -10 -43 -2
-11 -6 -28 -9 -37 -3 -9 -7 -30 -10 -46 -3 -16 -10 -52 -15 -80 -40 -204 -48
-566 -17 -786 62 -445 224 -841 489 -1197 234 -316 563 -593 897 -757 63 -32
123 -61 133 -67 62 -34 337 -126 432 -145 330 -64 373 -69 600 -69 149 1 352
12 366 20 3 2 37 9 75 15 166 26 401 94 564 163 747 318 1291 949 1500 1739
17 64 32 129 35 145 2 15 8 57 14 93 33 195 37 607 7 755 -2 11 -7 45 -11 75
-14 115 -65 299 -140 510 -30 83 -151 324 -214 424 -190 303 -472 591 -776
794 -120 80 -341 193 -485 249 -149 58 -381 122 -505 139 -11 1 -42 5 -70 9
-27 3 -61 9 -75 11 -31 7 -455 15 -461 10z m321 -211 c63 -3 130 -8 148 -10
17 -3 44 -7 60 -9 552 -79 1078 -369 1447 -798 277 -322 479 -746 541 -1135 3
-19 8 -45 10 -57 4 -21 8 -57 19 -156 7 -63 8 -374 1 -406 -2 -11 -7 -47 -10
-80 -4 -32 -8 -66 -11 -74 -2 -8 -6 -33 -10 -55 -3 -22 -7 -47 -10 -55 -2 -8
-6 -26 -9 -40 -24 -137 -111 -380 -199 -557 -255 -507 -723 -935 -1244 -1136
-106 -41 -310 -103 -368 -113 -22 -3 -43 -8 -46 -10 -4 -2 -53 -11 -110 -20
-117 -18 -464 -27 -574 -14 -124 15 -197 26 -265 41 -25 6 -53 12 -62 14 -123
26 -324 98 -479 174 -630 309 -1097 879 -1265 1545 -29 117 -47 215 -63 341
-9 74 -7 465 3 525 3 19 8 51 11 70 3 19 8 51 11 70 8 46 74 307 84 334 70
175 90 224 127 299 296 603 880 1078 1528 1243 34 9 63 16 85 20 14 2 59 11
100 19 106 20 140 24 270 31 63 4 117 8 119 10 2 2 13 2 25 -1 12 -2 73 -6
136 -10z"/>
<path d="M42550 20338 c-130 -14 -146 -17 -215 -32 -302 -66 -560 -192 -792
-387 -180 -151 -354 -373 -455 -580 -73 -148 -145 -364 -163 -484 -3 -22 -9
-65 -14 -95 -9 -55 -7 -418 3 -475 2 -16 7 -46 10 -66 13 -88 58 -248 95 -340
103 -259 222 -440 411 -629 151 -151 277 -242 476 -344 80 -41 203 -91 245
-101 9 -2 47 -12 85 -23 87 -25 147 -38 224 -47 25 -3 56 -8 70 -11 30 -7 325
-6 360 0 14 3 47 8 75 11 27 3 77 12 111 20 34 8 74 16 88 19 14 3 29 7 34 10
5 3 21 7 37 10 90 16 352 139 475 222 334 225 595 560 716 921 30 91 29 84 53
193 74 325 57 670 -45 964 -20 56 -38 110 -41 121 -10 33 -104 216 -141 275
-120 189 -315 397 -492 522 -158 112 -430 240 -581 274 -45 10 -56 12 -94 22
-120 30 -394 45 -535 30z m281 -1078 c170 -56 276 -190 287 -362 6 -97 -22
-194 -76 -266 -59 -79 -84 -95 -129 -83 -108 29 -254 32 -368 6 l-77 -17 -44
43 c-84 83 -134 221 -119 336 32 254 289 421 526 343z m-311 -758 c127 -66
297 -62 401 9 33 23 63 15 174 -41 202 -104 367 -310 419 -525 28 -118 28
-114 2 -140 l-25 -25 -781 0 c-780 0 -780 0 -801 21 -18 18 -20 29 -15 73 24
207 175 433 374 561 61 39 171 93 192 95 3 0 30 -13 60 -28z"/>
<path d="M49149 21105 c-2 -1 -35 -6 -72 -10 -37 -3 -76 -8 -85 -10 -9 -1 -42
-6 -72 -10 -127 -16 -450 -108 -570 -163 -122 -55 -200 -94 -255 -125 -533
-301 -933 -760 -1152 -1322 -62 -159 -76 -201 -107 -335 -24 -103 -28 -123
-40 -205 -13 -90 -16 -114 -23 -210 -11 -161 -6 -417 12 -505 3 -14 7 -45 10
-70 13 -115 87 -393 142 -535 225 -581 662 -1069 1215 -1359 136 -72 336 -154
438 -181 8 -3 51 -14 95 -26 93 -24 98 -25 190 -44 71 -14 112 -19 240 -33
127 -13 483 -6 570 12 11 2 42 7 69 10 88 12 268 55 376 90 133 43 212 76 365
151 624 308 1109 876 1313 1540 32 104 66 241 76 310 4 22 9 54 11 70 3 17 7
43 10 59 32 204 22 560 -24 801 -72 380 -230 744 -458 1052 -79 107 -220 269
-293 336 -161 150 -368 303 -515 382 -38 21 -83 46 -100 55 -59 35 -292 129
-405 163 -200 61 -300 81 -525 106 -68 8 -429 13 -436 6z m336 -209 c72 -4
139 -8 150 -10 11 -2 43 -7 70 -10 72 -10 252 -52 348 -82 626 -195 1155 -658
1438 -1259 53 -112 111 -264 129 -335 6 -25 15 -56 20 -70 5 -14 12 -36 14
-50 3 -14 12 -59 20 -100 8 -41 18 -102 21 -135 4 -33 9 -69 11 -80 7 -33 5
-425 -1 -485 -6 -52 -34 -211 -54 -310 -14 -67 -84 -273 -126 -370 -248 -577
-716 -1032 -1310 -1275 -65 -27 -257 -88 -310 -99 -86 -18 -209 -41 -280 -52
-88 -13 -441 -12 -545 1 -98 13 -239 37 -285 49 -91 23 -245 71 -280 86 -11 5
-49 21 -85 35 -430 174 -841 525 -1099 939 -192 307 -312 661 -346 1020 -5 49
-6 439 -1 461 2 11 7 47 10 80 4 33 9 67 12 76 2 10 7 30 9 45 36 238 163 567
309 804 140 227 389 500 598 655 306 227 634 372 988 436 156 28 160 28 295
35 66 4 122 8 123 10 2 1 9 1 15 -1 7 -2 71 -6 142 -9z"/>
<path d="M49257 20344 c-1 -1 -38 -4 -82 -8 -192 -15 -382 -65 -570 -149 -371
-165 -686 -462 -870 -822 -28 -55 -56 -113 -62 -130 -7 -16 -23 -61 -38 -100
-30 -80 -71 -238 -80 -305 -20 -156 -23 -200 -20 -335 2 -82 5 -159 8 -170 2
-11 7 -47 11 -80 26 -201 121 -457 247 -665 174 -287 450 -536 759 -684 110
-53 291 -119 355 -130 17 -2 64 -11 105 -20 190 -37 408 -38 645 -2 11 2 36 7
55 11 19 5 37 9 40 10 61 14 89 22 164 46 382 125 746 413 964 764 92 149 200
407 218 522 3 21 8 41 10 44 2 3 6 19 8 35 3 16 8 40 11 54 31 155 26 480 -10
655 -23 110 -25 115 -57 215 -57 178 -177 403 -287 540 -228 285 -479 468
-821 599 -62 23 -274 78 -335 86 -103 13 -358 26 -368 19z m267 -1108 c143
-69 228 -203 229 -361 0 -93 -12 -138 -59 -217 -44 -72 -97 -120 -127 -114
-151 32 -199 38 -257 32 -80 -7 -115 -13 -161 -27 -45 -14 -65 -4 -112 53 -54
66 -73 105 -94 188 -7 27 -6 124 1 165 18 104 105 220 205 274 77 41 126 51
223 47 63 -3 90 -10 152 -40z m-390 -725 c78 -47 208 -69 296 -50 25 5 71 24
104 40 l58 31 76 -33 c233 -102 393 -279 470 -519 12 -36 24 -84 27 -107 5
-37 2 -47 -19 -68 l-25 -25 -776 0 -776 0 -24 25 c-28 28 -29 39 -11 115 35
141 108 280 203 381 89 95 270 209 362 228 2 1 18 -8 35 -18z"/>
<path d="M55798 21106 c-1 -2 -40 -6 -85 -10 -45 -3 -87 -8 -95 -10 -7 -3 -31
-7 -53 -10 -216 -29 -513 -125 -743 -240 -604 -303 -1083 -858 -1293 -1499
-21 -65 -41 -131 -44 -147 -3 -16 -9 -39 -14 -52 -5 -13 -12 -45 -15 -72 -4
-27 -9 -53 -11 -56 -6 -10 -24 -126 -32 -211 -15 -147 -6 -610 13 -640 2 -4 6
-31 10 -60 3 -30 8 -57 10 -61 3 -4 7 -26 10 -50 4 -24 10 -50 14 -58 4 -8 11
-33 14 -55 18 -100 110 -343 190 -500 235 -465 594 -839 1056 -1100 47 -27
110 -59 140 -73 30 -13 73 -32 95 -42 70 -30 245 -93 315 -111 25 -7 50 -14
55 -15 47 -13 243 -52 293 -59 161 -21 426 -27 592 -12 91 8 332 50 405 71 6
2 24 6 40 11 77 19 226 71 283 96 34 16 64 29 67 29 8 0 171 80 225 111 523
296 927 762 1150 1328 28 72 107 346 115 401 4 24 8 47 10 50 2 4 7 29 10 56
4 27 8 60 11 74 18 102 25 442 11 575 -14 141 -18 171 -28 215 -11 51 -17 82
-24 125 -15 81 -87 305 -136 420 -167 394 -430 745 -759 1012 -236 191 -569
370 -835 450 -157 47 -327 86 -430 99 -27 3 -66 8 -85 10 -41 6 -446 14 -452
10z m337 -210 c117 -6 131 -8 265 -32 120 -21 159 -31 300 -76 137 -43 149
-48 300 -120 394 -188 718 -471 968 -848 58 -88 200 -363 217 -420 4 -14 13
-38 20 -55 38 -87 86 -262 106 -385 5 -30 11 -65 13 -77 21 -102 29 -473 13
-615 -35 -321 -150 -659 -319 -945 -187 -313 -507 -638 -806 -815 -94 -56
-301 -160 -363 -183 -185 -67 -364 -117 -472 -131 -18 -2 -43 -6 -57 -9 -131
-27 -602 -27 -681 -1 -8 3 -32 7 -54 10 -88 12 -172 32 -310 74 -814 249
-1453 954 -1619 1787 -9 44 -18 89 -20 100 -2 12 -7 50 -10 85 -4 36 -9 79
-11 95 -5 39 -6 351 0 390 2 17 6 55 9 85 13 114 14 120 46 255 12 50 23 97
25 106 10 48 73 219 116 317 279 630 831 1117 1489 1315 71 21 186 48 205 48
2 0 19 5 37 10 18 5 60 12 93 15 33 3 63 8 67 10 4 3 63 7 130 11 68 3 124 7
126 8 2 1 17 1 35 -1 18 -1 82 -5 142 -8z"/>
<path d="M55890 20346 c-3 -2 -41 -7 -85 -10 -44 -3 -90 -8 -101 -10 -12 -2
-39 -7 -60 -10 -22 -4 -47 -9 -56 -12 -9 -3 -26 -7 -37 -9 -12 -3 -29 -7 -38
-9 -10 -2 -65 -20 -123 -39 -380 -128 -722 -399 -945 -747 -45 -70 -134 -243
-148 -286 -3 -10 -17 -50 -31 -89 -15 -38 -28 -79 -31 -90 -2 -11 -11 -49 -20
-85 -32 -137 -44 -224 -49 -370 -17 -508 187 -1004 560 -1360 222 -212 523
-381 794 -446 176 -42 281 -55 455 -55 157 -1 220 5 370 35 748 151 1327 770
1432 1531 10 75 11 422 1 492 -10 67 -33 174 -53 243 -9 30 -20 69 -24 85 -24
89 -126 300 -201 413 -328 499 -879 813 -1440 821 -69 1 -134 4 -145 7 -11 3
-23 3 -25 0z m204 -1080 c50 -12 103 -44 164 -100 173 -161 173 -430 -1 -595
-31 -29 -39 -32 -69 -25 -18 4 -37 9 -43 10 -124 29 -239 26 -368 -7 -33 -9
-41 -7 -66 13 -48 39 -99 116 -122 185 -31 94 -24 209 19 296 75 151 223 242
382 233 41 -2 88 -7 104 -10z m-156 -805 c98 -8 168 4 240 44 46 26 60 25 147
-15 250 -114 465 -402 469 -629 1 -49 -2 -56 -24 -68 -20 -10 -187 -13 -795
-13 -862 0 -815 -4 -815 68 0 103 92 314 182 419 92 108 216 197 332 239 l61
22 58 -30 c44 -22 80 -31 145 -37z"/>
<path d="M17948 49015 c-3 -3 -16 -8 -29 -10 -29 -5 -68 -48 -70 -76 -1 -10
-2 -25 -3 -31 -4 -22 22 -64 50 -83 21 -14 37 -16 73 -10 155 25 232 -12 291
-140 33 -72 56 -94 104 -102 61 -10 116 45 111 112 -2 43 -57 152 -101 204
-44 51 -119 101 -184 123 -45 15 -230 25 -242 13z"/>
<path d="M18710 48610 c-33 -13 -60 -59 -60 -100 0 -59 -41 -119 -171 -249
-215 -214 -260 -320 -214 -498 30 -115 10 -179 -68 -213 -57 -25 -112 -14
-174 34 -51 39 -86 45 -132 21 -29 -14 -51 -58 -51 -100 0 -31 69 -106 126
-137 112 -61 246 -54 359 17 130 82 180 213 149 393 -24 142 -15 162 156 337
75 77 148 158 162 180 69 111 86 242 36 291 -27 28 -81 38 -118 24z"/>
<path d="M17893 48565 c-142 -61 -100 -275 55 -275 83 0 142 61 142 147 0 96
-107 166 -197 128z"/>
<path d="M19001 48039 c-104 -22 -142 -175 -60 -243 74 -63 178 -46 220 36 59
115 -34 235 -160 207z"/>
<path d="M13095 37711 c-72 -21 -103 -96 -65 -159 15 -25 34 -36 97 -56 43
-14 292 -98 553 -186 261 -89 693 -234 960 -324 267 -90 656 -220 865 -291
374 -126 381 -127 419 -114 70 25 91 109 41 163 -12 13 -45 31 -71 40 -27 8
-276 92 -554 186 -278 94 -692 233 -920 310 -228 77 -606 204 -840 283 -481
162 -458 155 -485 148z"/>
<path d="M65087 41354 c-1 -1 -24 -4 -52 -7 -124 -12 -270 -71 -293 -119 -11
-23 -10 -32 3 -58 20 -40 56 -48 114 -25 122 46 156 56 219 59 77 4 142 -12
196 -49 46 -31 77 -32 112 -2 23 20 26 28 20 60 -8 42 -56 80 -140 112 -41 15
-171 36 -179 29z"/>
<path d="M64211 41094 c-25 -32 -24 -18 -6 -129 8 -49 17 -130 21 -180 3 -49
7 -106 8 -125 3 -34 -7 -142 -19 -217 -9 -61 -39 -116 -102 -187 -94 -105
-127 -220 -87 -299 52 -102 126 -154 245 -172 125 -19 150 127 26 149 -120 21
-164 82 -119 163 9 17 39 55 65 85 74 80 105 151 126 283 13 83 5 388 -13 480
-2 11 -7 44 -11 74 -13 94 -87 135 -134 75z"/>
<path d="M64983 40885 c-144 -61 -86 -283 69 -262 106 14 154 109 103 207 -30
57 -107 82 -172 55z"/>
<path d="M63511 40879 c-70 -14 -120 -101 -100 -171 25 -88 137 -129 210 -77
40 28 59 69 59 124 0 39 -5 50 -39 84 -41 41 -75 51 -130 40z"/>
<path d="M64095 39478 c-49 -26 -58 -69 -24 -112 24 -31 144 -89 214 -105 28
-6 75 -12 105 -15 111 -8 288 61 311 122 12 32 -8 73 -44 90 -26 12 -34 11
-100 -24 -116 -60 -227 -54 -356 18 -64 35 -81 39 -106 26z"/>
<path d="M11882 35691 c-49 -40 -203 -227 -211 -258 -22 -79 46 -142 130 -120
26 7 213 206 238 254 31 60 -28 146 -99 141 -21 -1 -47 -9 -58 -17z"/>
<path d="M34933 39630 c-51 -20 -64 -84 -24 -123 21 -21 38 -23 131 -12 104
11 253 -25 316 -78 62 -51 94 -56 126 -19 9 9 18 29 22 44 13 57 -106 145
-244 181 -62 16 -292 21 -327 7z"/>
<path d="M34619 39476 c-33 -16 -46 -67 -53 -206 -9 -178 -26 -234 -97 -320
-93 -113 -118 -232 -68 -331 22 -45 90 -107 126 -115 16 -3 42 -9 58 -14 17
-4 44 -6 60 -5 17 2 43 3 58 4 35 1 77 42 77 74 0 14 -9 35 -19 48 -17 22 -27
24 -100 24 -75 1 -83 3 -108 28 -46 45 -31 126 38 205 52 59 90 147 105 238 3
21 8 42 10 45 5 8 18 182 18 241 1 71 -50 112 -105 84z"/>
<path d="M35078 39354 c-79 -42 -82 -177 -6 -224 95 -58 209 6 204 115 -2 48
-17 76 -52 104 -32 25 -105 28 -146 5z"/>
<path d="M34260 38187 c-34 -17 -46 -56 -29 -92 31 -64 214 -120 359 -110 119
8 256 60 280 105 17 31 11 65 -13 88 -27 25 -51 28 -89 8 -127 -66 -259 -72
-388 -18 -84 36 -86 36 -120 19z"/>
<path d="M22897 35454 c-1 -1 -23 -4 -49 -7 -165 -20 -350 -107 -495 -234
-164 -143 -288 -363 -321 -568 -8 -53 -9 -192 -1 -230 28 -132 71 -221 145
-303 143 -158 350 -223 596 -187 82 12 239 73 326 128 207 130 366 331 432
547 30 97 31 106 35 225 5 181 -45 320 -156 440 -121 129 -252 183 -457 190
-29 0 -53 0 -55 -1z"/>
<path d="M19725 32011 c-69 -29 -82 -129 -23 -179 10 -8 699 -13 2578 -17
1411 -4 2729 -7 2930 -8 410 -2 514 1 583 19 64 17 77 29 77 76 0 53 -23 94
-61 107 -38 13 -6052 15 -6084 2z"/>
<path d="M24530 26179 c-118 -72 -217 -132 -218 -134 -5 -5 65 -129 88 -157
l18 -22 128 78 c71 44 168 102 216 130 48 28 88 54 88 58 0 8 -99 178 -103
177 -1 0 -99 -59 -217 -130z"/>
<path d="M19095 25862 c-71 -38 -206 -108 -300 -156 -279 -145 -335 -177 -346
-198 -14 -26 -14 -80 0 -107 14 -25 61 -51 92 -51 12 0 105 43 208 96 102 54
242 126 311 162 288 148 283 145 293 203 6 32 -19 86 -46 101 -50 26 -79 20
-212 -50z"/>
<path d="M67195 25042 c-35 -8 -66 -34 -146 -124 -138 -158 -238 -332 -293
-512 -36 -116 -35 -157 5 -190 43 -36 110 -37 144 0 18 19 45 92 50 134 1 14
32 85 71 167 50 102 123 203 225 309 38 40 69 76 70 80 0 5 2 18 4 28 5 27
-20 82 -43 95 -24 13 -62 19 -87 13z"/>
<path d="M65308 23777 c-48 -22 -158 -120 -219 -195 -87 -108 -160 -273 -174
-395 -8 -61 -8 -222 -1 -256 14 -63 65 -92 136 -76 55 12 69 51 69 184 1 64 5
131 10 149 5 17 8 32 6 32 -7 0 45 123 70 166 33 56 124 154 185 199 58 42 73
78 57 130 -18 59 -84 88 -139 62z"/>
<path d="M68235 23152 c-38 -9 -65 -35 -75 -72 -19 -72 11 -106 167 -193 97
-53 189 -95 243 -109 19 -5 51 -13 70 -18 121 -32 350 -34 490 -5 14 3 39 8
57 11 34 6 82 44 84 66 0 7 2 23 3 36 4 30 -28 80 -59 94 -20 9 -44 8 -103 -2
-111 -19 -314 -22 -387 -5 -125 28 -261 85 -364 153 -61 41 -93 52 -126 44z"/>
<path d="M63728 22753 c-41 -43 -81 -150 -119 -313 -28 -123 -36 -410 -14
-540 17 -98 50 -215 71 -247 21 -33 86 -48 124 -28 66 34 72 71 32 218 -35
129 -45 271 -30 427 10 102 62 293 99 362 23 44 1 111 -42 134 -45 23 -92 18
-121 -13z"/>
<path d="M69440 20306 c-114 -36 -215 -83 -320 -152 -102 -66 -225 -185 -235
-226 -11 -42 19 -96 61 -114 51 -21 79 -11 144 50 76 73 174 143 245 176 69
33 195 81 195 75 0 -13 64 22 84 46 20 23 24 37 20 71 -8 87 -72 111 -194 74z"/>
<path d="M67605 20159 c-182 -36 -303 -97 -411 -211 -92 -95 -164 -224 -164
-293 0 -43 56 -94 104 -93 48 1 72 23 116 105 54 101 101 155 174 203 71 47
188 87 262 89 12 1 36 14 53 30 42 39 44 97 4 141 -32 35 -68 42 -138 29z"/>
<path d="M66115 20062 c-31 -6 -119 -78 -194 -158 -142 -152 -247 -346 -297
-550 -20 -81 -15 -115 23 -150 49 -45 143 -23 161 38 11 35 23 82 28 109 8 37
65 164 109 241 37 62 79 113 169 203 l121 120 0 48 c0 42 -4 52 -29 72 -31 25
-59 33 -91 27z"/>
<path d="M69483 18529 c-30 -11 -63 -58 -63 -91 0 -40 57 -148 127 -243 74
-99 176 -194 268 -248 92 -54 256 -117 303 -117 53 0 96 44 96 99 0 58 -23 85
-96 110 -35 12 -101 41 -147 64 -136 68 -280 218 -345 360 -27 59 -87 87 -143
66z"/>
<path d="M67729 18182 c-36 -32 -45 -81 -23 -124 46 -90 406 -315 594 -372
108 -32 191 -24 226 22 19 25 17 82 -5 118 -18 30 -49 43 -132 58 -139 24
-340 130 -459 241 -30 29 -66 59 -80 68 -38 26 -85 21 -121 -11z"/>
<path d="M65758 17755 c-31 -17 -52 -73 -43 -113 16 -73 266 -295 440 -392
112 -62 193 -89 257 -86 51 2 72 15 94 58 28 54 -10 133 -70 144 -44 8 -176
63 -239 100 -110 64 -201 144 -281 244 -49 60 -101 75 -158 45z"/>
<path d="M65623 56218 c-34 -16 -57 -69 -49 -112 8 -42 -11 -26 366 -302 372
-272 422 -304 479 -304 31 0 64 30 80 73 9 23 7 37 -6 67 -18 39 -79 86 -662
502 -127 91 -156 101 -208 76z"/>
<path d="M26348 55706 c-75 -50 -67 -123 20 -189 142 -109 681 -494 714 -510
64 -32 133 4 145 75 3 21 0 46 -9 62 -7 14 -99 87 -205 164 -105 75 -277 199
-382 275 -206 149 -230 159 -283 123z"/>
<path d="M11839 54741 c-37 -37 -42 -84 -14 -127 13 -20 230 -181 624 -464
168 -120 198 -130 251 -83 22 20 33 40 37 69 5 37 2 45 -28 77 -19 19 -164
128 -324 242 -159 115 -312 225 -340 245 -87 64 -99 70 -138 70 -29 0 -46 -7
-68 -29z"/>
<path d="M70987 53573 c-51 -26 -71 -91 -44 -140 7 -12 80 -68 162 -125 83
-58 220 -158 305 -224 254 -196 291 -219 346 -225 67 -7 121 59 103 126 -10
35 -33 56 -165 151 -54 39 -205 147 -334 240 -129 94 -247 178 -262 188 -34
22 -79 26 -111 9z"/>
<path d="M23855 50593 c-95 -21 -200 -85 -255 -154 -179 -226 -85 -569 183
-670 87 -33 218 -33 303 -1 350 133 375 621 39 786 -66 33 -84 38 -162 40 -48
2 -97 1 -108 -1z"/>
<path d="M67361 50215 c-108 -30 -221 -118 -266 -205 -26 -49 -51 -148 -54
-205 -2 -51 24 -158 52 -212 47 -91 175 -188 272 -208 196 -39 370 31 470 190
47 75 60 127 60 241 -1 94 -3 106 -34 168 -43 88 -121 165 -206 206 -82 39
-206 49 -294 25z"/>
<path d="M9398 49645 c-1 -1 -22 -5 -46 -9 -89 -12 -198 -84 -257 -170 -54
-80 -75 -147 -77 -246 -2 -121 54 -247 144 -325 134 -114 329 -136 488 -55 99
51 197 185 218 300 47 257 -142 494 -405 506 -33 1 -63 1 -65 -1z"/>
<path d="M31260 47507 c-249 -134 -491 -289 -719 -461 -201 -150 -233 -182
-237 -234 -2 -36 2 -49 25 -74 24 -27 35 -31 74 -31 42 1 55 8 157 89 245 195
554 398 803 529 73 39 135 78 144 92 30 46 15 119 -31 142 -55 28 -76 23 -216
-52z"/>
<path d="M72198 35423 c-331 -175 -770 -471 -945 -637 -37 -35 -43 -46 -43
-81 1 -44 11 -63 51 -89 43 -27 84 -17 151 37 233 188 539 394 780 526 89 50
175 97 190 105 37 20 56 83 38 126 -7 17 -23 38 -35 46 -45 30 -78 24 -187
-33z"/>
<path d="M33710 32643 c-60 -19 -94 -66 -84 -118 8 -46 9 -46 299 -255 72 -52
153 -110 180 -130 276 -203 306 -223 352 -223 56 0 90 31 99 89 4 31 1 46 -16
66 -17 22 -663 496 -750 550 -31 20 -61 28 -80 21z"/>
<path d="M67516 30424 c-118 -41 -202 -117 -251 -228 -30 -68 -37 -103 -37
-183 1 -201 143 -371 345 -414 148 -32 321 31 416 151 180 227 92 557 -179
670 -81 34 -204 36 -294 4z"/>
<path d="M31107 27495 c-172 -69 -271 -229 -266 -429 4 -168 78 -286 224 -358
63 -32 94 -39 176 -43 122 -6 240 38 322 120 97 96 132 194 124 338 -4 73 -10
99 -38 155 -57 117 -169 206 -293 232 -78 17 -187 10 -249 -15z"/>
<path d="M8903 24525 c-52 -22 -77 -90 -51 -139 7 -13 58 -57 113 -97 55 -40
123 -89 150 -109 45 -34 215 -156 433 -313 66 -48 90 -59 122 -60 79 -2 131
90 88 154 -8 13 -100 85 -204 160 -104 75 -272 196 -373 269 -101 73 -198 136
-215 141 -17 5 -31 9 -31 9 0 -1 -14 -7 -32 -15z"/>
</g>
</svg>
