<?xml version="1.0" standalone="no"?>
<!DOCTYPE svg PUBLIC "-//W3C//DTD SVG 20010904//EN"
 "http://www.w3.org/TR/2001/REC-SVG-20010904/DTD/svg10.dtd">
<svg version="1.0" xmlns="http://www.w3.org/2000/svg"
 width="518.000000pt" height="389.000000pt" viewBox="0 0 518.000000 389.000000"
 preserveAspectRatio="xMidYMid meet">

<g transform="translate(0.000000,389.000000) scale(0.100000,-0.100000)"
fill="#000000" stroke="none">
<path d="M4030 3463 c0 -118 10 -173 31 -173 22 0 23 20 12 158 -5 71 -8 82
-24 82 -17 0 -19 -8 -19 -67z"/>
<path d="M4270 3299 c0 -5 9 -9 20 -9 11 0 20 2 20 4 0 2 -9 6 -20 9 -11 3
-20 1 -20 -4z"/>
<path d="M2739 2882 c-509 -513 -679 -688 -679 -696 0 -3 169 -6 375 -6 293 0
375 -3 375 -12 0 -7 -29 -43 -63 -79 -107 -114 -119 -128 -112 -139 4 -6 1 -9
-7 -8 -7 2 -12 -3 -11 -9 2 -7 -3 -13 -11 -13 -20 0 -31 -39 -16 -54 10 -8 11
-8 6 2 -5 8 0 12 13 12 12 0 21 8 24 23 l4 22 2 -22 c1 -16 8 -23 24 -24 91
-5 437 -3 437 2 0 4 12 14 26 24 20 13 28 14 40 5 20 -18 9 -28 -27 -24 -27 3
-30 2 -19 -11 7 -8 17 -12 24 -9 13 8 -6 -14 -120 -134 -79 -83 -86 -93 -62
-90 21 2 123 98 423 398 217 217 395 396 395 398 0 2 -173 2 -385 1 -212 -1
-385 2 -386 5 -1 8 51 61 515 540 155 158 285 295 289 302 7 12 -44 14 -326
14 l-333 0 -415 -418z"/>
<path d="M4830 3190 l0 -80 95 0 95 0 0 80 0 80 -95 0 -95 0 0 -80z"/>
<path d="M4133 2970 c0 -47 2 -66 4 -42 2 23 2 61 0 85 -2 23 -4 4 -4 -43z"/>
<path d="M3971 2658 c1 -97 4 -138 9 -113 l7 40 2 -42 c1 -28 -3 -43 -11 -44
-7 -1 -2 -5 12 -9 14 -4 99 -8 189 -9 l163 -1 -4 163 -5 162 -181 3 -182 2 1
-152z"/>
<path d="M4400 2792 c-15 -5 -13 -119 3 -125 10 -4 10 -6 0 -6 -7 -1 -13 -6
-13 -12 0 -5 5 -7 10 -4 6 3 10 1 10 -5 0 -7 29 -10 88 -8 l87 3 3 77 3 77
-91 3 c-50 2 -95 2 -100 0z"/>
<path d="M1054 2213 c-127 -193 -200 -318 -294 -508 -155 -314 -203 -499 -204
-785 -1 -187 11 -246 70 -367 56 -114 179 -228 294 -273 101 -40 187 -52 355
-53 469 0 934 181 1550 604 271 186 569 439 789 670 150 157 476 568 476 599
0 5 4 10 8 10 9 0 92 117 92 130 0 5 4 10 8 12 4 2 19 21 32 43 30 51 15 36
-35 -35 -43 -61 -53 -74 -186 -240 -203 -253 -453 -513 -624 -648 -44 -35 -89
-71 -100 -81 -11 -9 -44 -31 -73 -50 -30 -19 -59 -39 -65 -46 -7 -6 -15 -12
-20 -13 -22 -4 -165 -97 -160 -105 3 -4 -1 -7 -8 -5 -8 1 -77 -32 -154 -74
-288 -158 -529 -256 -800 -324 -127 -32 -157 -36 -324 -41 -126 -4 -201 -2
-240 6 -296 64 -504 251 -577 521 -25 92 -25 333 0 450 33 153 125 406 226
618 27 56 47 102 46 102 -2 0 -39 -53 -82 -117z"/>
<path d="M1974 2100 c-27 -11 -954 -942 -948 -952 3 -5 341 -8 752 -8 l748 0
179 183 c99 100 197 200 217 222 l37 40 -327 -3 c-324 -3 -416 1 -410 18 3 9
105 114 372 388 l121 122 -360 -1 c-198 0 -369 -4 -381 -9z m930 -542 c-3 -4
-11 -5 -19 -1 -21 7 -19 12 4 10 11 0 18 -5 15 -9z"/>
</g>
</svg>
