<?xml version="1.0" standalone="no"?>
<!DOCTYPE svg PUBLIC "-//W3C//DTD SVG 20010904//EN"
 "http://www.w3.org/TR/2001/REC-SVG-20010904/DTD/svg10.dtd">
<svg version="1.0" xmlns="http://www.w3.org/2000/svg"
 width="1299.000000pt" height="1300.000000pt" viewBox="0 0 1299.000000 1300.000000"
 preserveAspectRatio="xMidYMid meet">

<g transform="translate(0.000000,1300.000000) scale(0.100000,-0.100000)"
fill="#000000" stroke="none">
<path d="M6115 11549 c-329 -28 -666 -114 -957 -245 -241 -108 -319 -157 -503
-314 -186 -160 -195 -165 -295 -178 -267 -35 -469 -182 -604 -442 l-41 -78
-90 56 c-203 126 -481 282 -502 282 -44 0 -74 -50 -57 -95 6 -14 59 -49 67
-43 2 2 10 -4 19 -12 8 -9 127 -83 264 -164 137 -82 250 -150 251 -151 2 -1
-8 -46 -22 -100 -39 -152 -56 -309 -63 -571 l-7 -242 -225 130 c-256 148 -569
329 -711 411 -53 31 -103 57 -110 59 -7 2 -21 10 -31 19 -10 8 -62 41 -115 71
-193 111 -485 279 -863 498 -677 392 -638 371 -673 368 -21 -2 -36 -11 -46
-29 -28 -51 -12 -69 131 -151 73 -42 189 -109 258 -149 69 -40 181 -104 250
-144 110 -63 510 -295 1140 -660 107 -62 314 -181 460 -266 315 -181 450 -260
506 -293 42 -24 42 -25 49 -98 11 -129 36 -309 59 -444 l23 -130 -77 -37 c-82
-40 -176 -116 -210 -172 -12 -19 -25 -35 -29 -35 -4 0 -55 27 -112 60 -57 33
-113 60 -125 60 -24 0 -64 -39 -64 -64 0 -35 21 -55 127 -117 59 -34 109 -63
110 -63 1 -1 -5 -28 -13 -61 -24 -96 -29 -351 -10 -470 37 -220 125 -411 251
-538 99 -102 286 -169 420 -152 l53 6 6 -48 c29 -208 107 -453 208 -658 227
-459 590 -815 1062 -1040 l136 -65 0 -354 0 -354 -40 5 c-41 6 -41 6 -148
-103 -59 -60 -170 -176 -247 -257 -93 -99 -144 -146 -154 -142 -14 6 -263 151
-681 400 -256 152 -583 345 -850 503 -113 66 -297 176 -410 245 -280 169 -360
216 -467 273 -89 47 -93 48 -120 34 -21 -12 -29 -24 -31 -51 -4 -44 0 -47 168
-146 167 -99 782 -464 988 -587 84 -50 165 -98 180 -107 65 -38 432 -255 602
-356 102 -61 263 -156 359 -212 l173 -103 -39 -42 c-77 -81 -93 -106 -93 -145
l0 -38 -82 -31 c-665 -246 -1606 -606 -1622 -620 -11 -9 -16 -11 -12 -4 10 17
2 15 -46 -8 -23 -11 -48 -20 -56 -20 -7 0 -27 -13 -43 -29 -43 -43 -38 -121
10 -158 34 -26 -48 -54 1099 376 442 166 806 301 810 301 4 0 20 -42 35 -92
16 -51 43 -142 62 -203 19 -60 79 -258 135 -440 55 -181 118 -386 140 -455 21
-69 53 -171 70 -227 35 -118 57 -143 125 -143 40 0 46 4 145 107 199 208 372
388 777 813 l61 64 94 -98 c51 -55 111 -118 133 -140 76 -78 431 -451 565
-593 133 -142 168 -167 212 -156 51 13 68 34 93 116 14 44 24 86 21 94 -3 7
-2 13 3 13 5 0 16 24 24 52 31 100 163 533 277 910 78 256 119 378 129 378 7
0 85 -23 173 -51 l159 -51 -44 -47 c-161 -172 -164 -451 -6 -624 l44 -49 -43
-46 c-131 -142 -156 -372 -59 -540 27 -48 87 -115 123 -139 l23 -15 -31 -26
c-41 -34 -89 -112 -117 -186 -31 -83 -31 -219 0 -302 64 -172 202 -279 387
-300 71 -8 98 4 118 51 18 43 8 90 -22 114 -13 10 -50 22 -81 26 -75 9 -121
34 -171 90 -40 46 -62 107 -62 174 0 46 29 128 56 161 34 39 99 77 147 84 20
3 53 8 72 12 60 9 95 93 62 150 -23 40 -71 71 -121 77 -82 11 -124 28 -162 66
-51 50 -77 113 -78 186 0 77 17 128 63 178 43 48 95 73 171 82 80 10 110 39
110 109 0 57 -33 86 -111 95 -122 16 -188 68 -221 174 -23 77 -20 122 13 196
39 89 104 131 209 138 57 4 83 -1 210 -42 846 -273 965 -309 994 -301 62 15
86 128 36 168 -12 9 -108 45 -213 78 -106 34 -266 86 -357 115 -91 29 -266 85
-390 125 -124 39 -270 86 -325 104 l-100 32 -29 53 c-23 43 -29 67 -30 120 0
36 6 83 13 105 17 48 73 112 120 135 71 35 106 34 232 -10 196 -67 297 -64
464 15 108 51 262 171 354 277 71 82 160 213 185 273 12 28 19 36 29 29 6 -6
68 -43 137 -83 69 -40 184 -108 255 -150 72 -43 285 -169 475 -280 190 -112
423 -250 518 -307 225 -135 235 -139 266 -125 14 6 28 23 32 37 12 50 -2 68
-93 121 -48 28 -139 81 -200 117 -62 37 -162 96 -223 132 -60 36 -161 95 -222
132 -62 36 -149 87 -193 113 -44 26 -141 83 -215 127 -74 44 -214 126 -310
182 -96 57 -179 107 -183 111 -5 4 7 50 27 101 19 52 77 211 130 354 52 143
142 391 201 550 58 160 137 376 175 480 38 105 75 204 82 222 l14 32 157 -94
c87 -52 155 -89 151 -82 -4 6 6 0 22 -14 16 -14 128 -84 249 -156 260 -154
258 -153 283 -153 46 0 71 81 35 112 -10 9 -160 100 -333 203 -294 175 -511
305 -518 310 -1 1 45 131 103 290 126 344 127 355 71 577 -67 268 -157 427
-305 539 -75 56 -280 159 -419 210 -74 27 -97 40 -112 64 -41 65 -154 128
-323 180 -99 31 -187 31 -246 0 l-33 -17 -47 49 c-25 27 -63 63 -84 80 l-39
31 21 108 c76 392 85 751 30 1139 -82 580 -355 1109 -726 1406 -219 175 -517
311 -923 422 -316 87 -773 126 -1125 96z m408 -1444 c16 14 16 14 2 -2 -14
-16 9 -42 287 -323 l303 -305 -305 303 -305 302 -53 -50 -52 -50 50 52 50 53
-577 580 -578 580 580 -578 c535 -532 582 -576 598 -562z m1027 1104 c0 -5 4
-8 9 -5 5 3 41 -9 80 -27 62 -29 70 -35 57 -47 -12 -9 -19 -10 -30 -1 -11 9
-15 9 -19 -1 -4 -10 -7 -10 -18 1 -11 10 -11 15 -1 18 13 5 7 23 -9 23 -6 0
-7 -5 -3 -12 5 -8 2 -9 -9 -5 -11 4 -30 -5 -55 -25 l-37 -32 30 34 c17 19 33
37 37 40 4 3 -6 11 -23 19 -28 12 -40 31 -19 31 6 0 10 -5 10 -11z m234 -111
c-3 -4 1 -5 9 -2 8 3 31 -5 51 -17 29 -17 34 -24 24 -31 -9 -7 -8 -8 6 -4 23
8 130 -60 120 -76 -4 -7 -2 -8 4 -4 13 8 64 -22 57 -34 -3 -4 3 -7 13 -6 9 0
16 -5 14 -11 -1 -7 2 -12 6 -10 16 4 87 -69 89 -91 1 -12 -1 -20 -5 -18 -4 3
-8 -4 -8 -14 0 -18 1 -18 17 -2 13 13 14 20 5 31 -7 10 -8 13 0 10 11 -4 67
-66 134 -149 38 -46 49 -67 31 -56 -7 5 -9 1 -4 -9 4 -11 8 -13 12 -6 5 7 16
-1 29 -19 25 -33 28 -50 10 -50 -10 0 -9 -3 1 -9 8 -5 10 -14 6 -21 -6 -9 -4
-11 4 -6 7 5 10 14 7 22 -11 30 4 12 38 -45 20 -32 36 -66 36 -75 0 -10 4 -15
9 -12 12 8 23 -22 16 -48 -3 -12 -2 -15 1 -8 10 21 26 13 19 -9 -4 -12 -3 -19
2 -16 11 7 64 -106 66 -140 1 -11 6 -19 11 -15 5 3 7 -2 3 -11 -3 -9 1 -23 9
-31 8 -9 16 -29 17 -45 1 -16 5 -27 10 -24 7 4 11 -18 9 -49 -1 -10 2 -18 7
-18 5 0 11 -12 14 -27 3 -16 9 -37 13 -47 6 -15 4 -17 -7 -11 -10 6 -8 1 4
-18 11 -17 16 -36 12 -50 -5 -16 -4 -18 3 -8 11 16 28 -73 24 -124 -2 -22 0
-26 7 -15 10 15 13 -2 13 -100 1 -33 3 -39 9 -25 5 14 8 2 8 -35 0 -117 7
-236 15 -249 5 -7 5 -89 1 -182 -6 -132 -10 -167 -20 -159 -16 13 -25 2 -24
-29 1 -25 2 -25 8 4 l7 30 7 -30 c4 -16 5 -52 1 -80 -3 -27 -7 -61 -8 -75 -2
-14 -4 -29 -6 -35 -4 -13 -6 -40 -8 -92 -2 -50 -12 -53 -46 -16 -14 15 -28 24
-32 20 -4 -4 9 -22 29 -40 34 -30 37 -36 31 -67 -4 -19 -14 -46 -23 -60 -12
-19 -13 -22 -2 -15 10 6 13 4 9 -6 -3 -8 -11 -40 -19 -73 -7 -34 -19 -60 -28
-64 -9 -3 -25 -14 -35 -24 -19 -17 -21 -17 -40 0 -19 15 -19 15 -8 0 8 -9 12
-25 10 -35 -3 -13 -11 -4 -26 29 -24 51 -27 62 -13 54 5 -4 7 10 3 32 -3 20
-5 59 -4 87 0 27 -3 52 -7 55 -5 3 -11 47 -13 99 -5 86 -4 94 13 98 27 7 24
23 -3 20 -32 -3 -39 42 -9 50 25 6 28 25 4 21 -13 -2 -19 4 -20 22 -6 88 -25
245 -44 365 -12 77 -22 167 -22 200 0 33 -2 49 -5 35 -4 -18 -9 -5 -18 45 -7
39 -17 87 -22 108 -11 42 2 112 19 101 6 -3 7 5 4 23 -5 23 -4 25 5 13 10 -12
11 -11 7 8 -3 12 -1 20 4 16 14 -8 -2 89 -17 106 -8 8 -31 15 -51 15 -43 1
-39 -5 -89 165 -15 52 -31 102 -35 110 -4 8 -19 46 -34 83 l-26 69 26 20 c38
30 33 65 -24 140 -40 54 -46 69 -38 84 9 17 9 17 -6 5 -15 -11 -22 -8 -58 30
-22 24 -61 75 -86 113 -37 55 -43 70 -32 78 11 7 9 8 -5 4 -13 -5 -17 -2 -13
8 4 11 1 13 -10 9 -11 -5 -14 -3 -9 6 5 8 -3 25 -21 44 -17 18 -40 48 -53 67
-13 19 -28 40 -34 45 -6 6 -22 23 -34 39 -18 23 -20 31 -10 38 10 7 9 8 -3 6
-14 -3 -129 100 -129 115 0 3 21 4 48 3 26 -2 41 -1 35 1 -7 3 -13 9 -13 14 0
5 16 1 35 -8 19 -9 32 -20 29 -25z m-284 -21 c0 -2 -12 -14 -27 -28 l-28 -24
24 28 c23 25 31 32 31 24z m-90 -91 c0 -2 -8 -10 -17 -17 -16 -13 -17 -12 -4
4 13 16 21 21 21 13z m-70 -69 c0 -2 -15 -16 -32 -33 l-33 -29 29 33 c28 30
36 37 36 29z m-80 -80 c0 -2 -15 -16 -32 -33 l-33 -29 29 33 c28 30 36 37 36
29z m-80 -80 c0 -2 -15 -16 -32 -33 l-33 -29 29 33 c28 30 36 37 36 29z m-80
-80 c0 -2 -15 -16 -32 -33 l-33 -29 29 33 c28 30 36 37 36 29z m-80 -80 c0 -2
-15 -16 -32 -33 l-33 -29 29 33 c28 30 36 37 36 29z m-80 -80 c0 -2 -15 -16
-32 -33 l-33 -29 29 33 c28 30 36 37 36 29z m-80 -80 c0 -2 -15 -16 -32 -33
l-33 -29 29 33 c28 30 36 37 36 29z m-80 -80 c0 -2 -15 -16 -32 -33 l-33 -29
29 33 c28 30 36 37 36 29z m-80 -80 c0 -2 -15 -16 -32 -33 l-33 -29 29 33 c28
30 36 37 36 29z m-80 -80 c0 -2 -15 -16 -32 -33 l-33 -29 29 33 c28 30 36 37
36 29z m-240 -240 c0 -2 -15 -16 -32 -33 l-33 -29 29 33 c28 30 36 37 36 29z
m-80 -80 c0 -2 -12 -14 -27 -28 l-28 -24 24 28 c23 25 31 32 31 24z m-250
-250 c0 -2 -12 -14 -27 -28 l-28 -24 24 28 c23 25 31 32 31 24z m-70 -70 c0
-2 -17 -19 -37 -38 l-38 -34 34 38 c33 34 41 42 41 34z m-80 -80 c0 -2 -12
-14 -27 -28 l-28 -24 24 28 c23 25 31 32 31 24z m1260 -42 c13 -14 21 -25 18
-25 -2 0 -15 11 -28 25 -13 14 -21 25 -18 25 2 0 15 -11 28 -25z m-2395 -246
c511 -258 1079 -391 1965 -461 110 -9 355 -13 733 -13 l567 1 2 -88 c1 -48 2
-95 2 -104 1 -15 -51 -16 -559 -15 -348 1 -588 -2 -635 -9 -139 -19 -250 -98
-301 -212 l-24 -55 -57 23 c-126 52 -287 55 -425 9 -41 -14 -76 -24 -77 -23
-1 2 -11 21 -21 43 -29 58 -121 147 -186 178 -83 41 -163 46 -694 44 -264 -1
-519 -1 -567 1 l-88 3 0 449 0 449 98 -67 c53 -37 174 -105 267 -153z m-1119
169 l29 -33 -32 29 c-31 28 -38 36 -30 36 2 0 16 -15 33 -32z m3689 -98 c66
-66 117 -120 115 -120 -3 0 -59 54 -125 120 -66 66 -117 120 -115 120 3 0 59
-54 125 -120z m-3535 -55 c47 -47 82 -85 80 -85 -3 0 -43 38 -90 85 -47 47
-82 85 -80 85 3 0 43 -38 90 -85z m1770 -58 c0 -2 -15 -16 -32 -33 l-33 -29
29 33 c28 30 36 37 36 29z m2620 -487 c0 -5 -5 -10 -11 -10 -5 0 -7 5 -4 10 3
6 8 10 11 10 2 0 4 -4 4 -10z m225 -188 c-3 -3 -11 0 -18 7 -9 10 -8 11 6 5
10 -3 15 -9 12 -12z m69 -78 c3 -8 2 -12 -4 -9 -6 3 -10 10 -10 16 0 14 7 11
14 -7z m-2851 -95 c47 -13 102 -60 130 -113 21 -38 22 -54 22 -241 0 -169 -3
-208 -19 -255 -58 -169 -194 -296 -358 -331 -82 -18 -877 -18 -948 0 -130 32
-270 142 -324 253 -30 61 -28 78 8 78 90 0 219 103 245 195 6 23 11 122 11
233 l0 192 598 0 c386 0 610 -4 635 -11z m2409 1 c2 -5 1 -67 -2 -137 -3 -71
-3 -191 0 -268 5 -126 9 -145 32 -191 15 -28 42 -64 60 -79 37 -32 124 -75
151 -75 9 0 17 -4 17 -9 0 -20 -119 -114 -189 -149 l-74 -36 -181 -7 c-259
-10 -584 -10 -704 1 -86 8 -115 15 -175 44 -127 62 -212 154 -258 282 -19 51
-23 86 -27 256 -3 164 -1 205 12 246 23 69 70 107 151 125 43 10 1183 7 1187
-3z m225 -11 c71 -26 150 -159 95 -159 -40 0 -111 33 -139 63 -26 29 -53 84
-53 109 0 9 58 1 97 -13z m403 -36 c-51 -162 -64 -199 -70 -206 -4 -5 -10 29
-13 75 l-5 83 38 38 c47 45 62 48 50 10z m-4936 -95 c64 -303 87 -378 131
-416 25 -22 42 -55 71 -133 l38 -104 3 -222 4 -221 -32 -7 c-88 -20 -224 27
-294 99 -73 76 -161 269 -185 403 -17 95 -15 360 3 409 25 68 65 141 99 180
34 38 113 94 133 94 6 0 19 -37 29 -82z m5101 -48 l37 -50 -27 -73 c-15 -39
-38 -101 -52 -137 -14 -36 -47 -126 -73 -200 -26 -74 -75 -209 -109 -299 -34
-90 -66 -194 -73 -232 l-11 -69 -33 0 -34 0 0 186 0 186 39 67 c22 36 49 98
60 136 12 39 31 86 42 105 47 82 119 242 149 333 17 53 35 97 40 97 5 0 25
-23 45 -50z m-2479 -26 c27 -9 70 -29 97 -46 l47 -30 0 -114 c0 -187 35 -317
119 -446 88 -136 234 -236 398 -275 70 -16 128 -18 548 -18 l470 0 80 27 c44
15 110 45 145 67 l65 39 3 -112 c9 -308 -63 -640 -199 -926 -111 -231 -235
-407 -419 -590 -329 -330 -731 -535 -1190 -606 -143 -22 -450 -23 -587 -1
-587 95 -1087 397 -1421 860 -202 280 -330 595 -377 931 -17 123 -32 476 -20
476 5 0 20 -11 34 -24 43 -40 152 -95 237 -118 75 -21 103 -22 522 -26 382 -3
455 -1 524 13 121 24 298 111 281 138 -3 6 -1 7 6 3 16 -10 127 105 169 176
65 110 85 187 89 343 5 197 6 200 56 230 92 53 217 65 323 29z m2944 -64 c177
-64 188 -89 121 -276 -122 -340 -144 -401 -152 -419 -5 -11 -38 -98 -73 -194
-94 -253 -108 -262 -291 -196 -116 42 -150 61 -164 92 -18 40 -13 68 35 196
56 151 189 515 241 661 45 129 81 176 135 176 19 0 86 -18 148 -40z m-5030
-21 c0 -5 -12 -4 -27 2 -25 9 -31 5 -90 -53 -35 -34 -63 -56 -63 -48 0 8 27
41 60 72 56 55 60 57 89 47 17 -6 31 -15 31 -20z m4127 -81 c-2 -13 -4 -5 -4
17 -1 22 1 32 4 23 2 -10 2 -28 0 -40z m-4142 -18 c8 -14 -54 -70 -77 -70 -25
0 -23 35 2 60 21 21 65 27 75 10z m3954 -58 c38 -41 70 -62 94 -62 7 0 32 16
55 36 41 35 42 35 42 11 0 -61 -81 -109 -142 -84 -36 15 -88 69 -88 92 0 7 -3
20 -6 29 -10 26 6 18 45 -22z m1674 -135 c128 -60 225 -149 281 -257 48 -92
107 -282 120 -390 6 -48 0 -69 -124 -408 l-52 -143 23 -27 24 -27 -27 23 -26
24 -7 -24 c-9 -33 -54 -157 -70 -193 -7 -16 -31 -82 -53 -145 -22 -63 -71
-196 -107 -295 -37 -99 -95 -259 -130 -355 -35 -96 -77 -213 -95 -260 -18 -47
-56 -155 -86 -240 -79 -230 -167 -466 -203 -543 -90 -200 -342 -440 -520 -496
-68 -22 -130 -13 -281 40 -277 96 -262 90 -254 108 20 47 146 384 178 476 10
28 29 79 43 115 37 97 72 197 96 273 l21 67 41 -2 c76 -2 101 28 155 186 15
44 59 167 98 271 39 105 139 377 222 605 83 228 169 462 191 520 21 58 39 120
39 137 0 34 -30 79 -61 88 -14 5 -18 12 -13 23 19 46 115 299 118 312 2 8 6
22 9 30 15 35 200 538 208 567 l10 32 80 -29 c44 -17 112 -45 152 -63z m-553
-422 c13 -14 21 -25 18 -25 -2 0 -15 11 -28 25 -13 14 -21 25 -18 25 2 0 15
-11 28 -25z m-5740 -138 c0 -2 -15 -16 -32 -33 l-33 -29 29 33 c28 30 36 37
36 29z m5043 -298 c29 -27 162 -90 259 -123 53 -17 103 -26 162 -28 46 -2 88
-6 92 -11 4 -4 -16 -71 -45 -149 -29 -79 -73 -200 -98 -271 l-46 -127 -36 21
c-52 32 -172 101 -366 213 -93 54 -174 102 -178 106 -5 4 3 53 16 107 14 55
31 136 38 180 l12 80 76 10 c42 5 80 11 84 11 4 1 18 -7 30 -19z m1677 -272
c0 -2 -12 -14 -27 -28 l-28 -24 24 28 c23 25 31 32 31 24z m-90 -90 c0 -2 -10
-12 -22 -23 l-23 -19 19 23 c18 21 26 27 26 19z m-15 -77 c10 -11 16 -20 13
-20 -3 0 -13 9 -23 20 -10 11 -16 20 -13 20 3 0 13 -9 23 -20z m-55 7 c0 -2
-12 -14 -27 -28 l-28 -24 24 28 c23 25 31 32 31 24z m-1505 -250 c143 -82 261
-151 262 -152 2 -1 -36 -107 -83 -236 -47 -129 -105 -289 -130 -357 -25 -67
-49 -134 -55 -149 l-9 -25 -29 39 c-57 79 -115 113 -305 178 -121 41 -173 43
-260 10 l-44 -17 -91 53 -91 53 48 51 c176 184 338 437 446 698 l15 38 33 -17
c18 -9 150 -84 293 -167z m1650 153 c10 -11 16 -20 13 -20 -3 0 -13 9 -23 20
-10 11 -16 20 -13 20 3 0 13 -9 23 -20z m75 -75 c13 -14 21 -25 18 -25 -2 0
-15 11 -28 25 -13 14 -21 25 -18 25 2 0 15 -11 28 -25z m-2632 -793 c15 -10
54 -33 87 -51 33 -19 61 -34 63 -36 1 -1 -8 -26 -22 -56 -13 -30 -63 -162
-111 -294 -87 -239 -124 -342 -192 -524 -30 -81 -36 -109 -37 -181 -1 -76 2
-90 29 -138 46 -83 113 -131 257 -184 140 -50 186 -60 250 -53 32 4 58 4 58 0
0 -5 -21 -30 -46 -57 -84 -90 -133 -238 -119 -356 7 -53 6 -54 -17 -46 -111
35 -123 41 -126 65 -1 13 -5 34 -7 46 -3 13 -67 87 -143 165 -136 142 -269
281 -307 323 -109 119 -262 266 -281 271 -24 6 -41 4 -76 -11 -16 -6 -17 16
-17 343 0 372 -2 362 49 377 56 17 291 135 382 192 95 60 253 178 278 208 16
19 16 19 48 -3z m543 -192 c130 -46 169 -77 169 -134 0 -29 -52 -187 -140
-421 -10 -27 -58 -157 -106 -288 -112 -304 -120 -312 -257 -266 -58 19 -76 27
-162 64 -38 17 -65 59 -65 100 0 14 30 105 66 203 36 97 108 293 160 435 108
296 115 311 152 331 40 22 58 20 183 -24z m-2580 -294 c209 -50 301 -60 519
-60 210 0 332 14 518 59 57 14 105 25 108 25 2 0 4 -256 4 -569 l0 -569 -158
-214 c-87 -117 -204 -276 -261 -353 -57 -77 -118 -159 -135 -182 -48 -64 -70
-95 -78 -106 -4 -6 -9 -9 -11 -7 -6 7 -315 421 -418 560 -47 63 -120 161 -162
218 l-77 104 0 564 c0 310 2 564 4 564 2 0 68 -15 147 -34z m-127 -1461 c165
-220 339 -453 388 -518 l90 -119 -89 -91 c-48 -51 -97 -101 -108 -112 -11 -11
-148 -155 -305 -318 l-285 -298 -26 83 c-25 79 -64 206 -184 598 -69 226 -153
501 -204 664 l-40 130 66 70 c37 39 136 144 222 233 l155 162 11 -42 c8 -31
92 -151 309 -442z m1918 135 c17 -19 48 -53 69 -75 l39 -40 -59 -190 c-80
-259 -143 -467 -206 -675 -29 -96 -76 -251 -105 -344 -28 -93 -49 -178 -46
-189 2 -10 2 -16 -2 -12 -4 3 -14 -9 -22 -29 l-15 -35 -119 127 c-66 70 -212
224 -325 342 -353 368 -335 348 -322 364 7 8 9 21 5 27 -4 7 -3 9 4 5 6 -4 42
35 87 96 84 113 81 108 191 258 43 58 157 211 253 340 224 300 223 297 229
344 l5 40 154 -160 c84 -87 167 -175 185 -194z m-2011 183 c13 -16 12 -17 -3
-4 -10 7 -18 15 -18 17 0 8 8 3 21 -13z m5539 -196 c0 -2 -12 -14 -27 -28
l-28 -24 24 28 c23 25 31 32 31 24z m-8240 -880 c0 -2 -12 -14 -27 -28 l-28
-24 24 28 c23 25 31 32 31 24z"/>
<path d="M7897 11019 c7 -7 15 -10 18 -7 3 3 -2 9 -12 12 -14 6 -15 5 -6 -5z"/>
<path d="M7968 10933 c7 -3 16 -2 19 1 4 3 -2 6 -13 5 -11 0 -14 -3 -6 -6z"/>
<path d="M8096 10853 c10 -7 23 -13 28 -12 6 0 5 3 -2 6 -6 2 -10 8 -8 12 3 4
-4 7 -15 7 -19 0 -19 -1 -3 -13z"/>
<path d="M8070 10585 c28 -30 45 -33 28 -6 -7 11 -16 17 -20 15 -4 -3 -8 0 -8
5 0 6 -5 11 -12 11 -6 0 -1 -11 12 -25z"/>
<path d="M8323 10576 c4 -10 7 -24 7 -32 0 -9 4 -13 9 -10 11 7 3 44 -12 53
-7 4 -8 0 -4 -11z"/>
<path d="M8566 10145 c-9 -26 -7 -32 5 -12 6 10 9 21 6 23 -2 3 -7 -2 -11 -11z"/>
<path d="M8641 9944 c0 -11 3 -14 6 -6 3 7 2 16 -1 19 -3 4 -6 -2 -5 -13z"/>
<path d="M8662 9855 c0 -16 2 -22 5 -12 2 9 2 23 0 30 -3 6 -5 -1 -5 -18z"/>
<path d="M8440 9865 c0 -2 10 -10 23 -16 20 -11 21 -11 8 4 -13 16 -31 23 -31
12z"/>
<path d="M8390 9850 c-8 -5 -10 -10 -5 -10 6 0 17 5 25 10 8 5 11 10 5 10 -5
0 -17 -5 -25 -10z"/>
<path d="M8435 9830 c3 -5 8 -10 11 -10 2 0 4 5 4 10 0 6 -5 10 -11 10 -5 0
-7 -4 -4 -10z"/>
<path d="M8452 9680 c-6 -10 -8 -21 -3 -24 5 -3 11 4 14 16 8 29 4 32 -11 8z"/>
<path d="M8471 9654 c0 -11 3 -14 6 -6 3 7 2 16 -1 19 -3 4 -6 -2 -5 -13z"/>
<path d="M8751 9384 c0 -11 3 -14 6 -6 3 7 2 16 -1 19 -3 4 -6 -2 -5 -13z"/>
<path d="M8721 9254 c0 -11 3 -14 6 -6 3 7 2 16 -1 19 -3 4 -6 -2 -5 -13z"/>
<path d="M8761 9064 c0 -11 3 -14 6 -6 3 7 2 16 -1 19 -3 4 -6 -2 -5 -13z"/>
<path d="M8721 9014 c0 -11 3 -14 6 -6 3 7 2 16 -1 19 -3 4 -6 -2 -5 -13z"/>
<path d="M8742 8995 c0 -16 2 -22 5 -12 2 9 2 23 0 30 -3 6 -5 -1 -5 -18z"/>
<path d="M8722 8940 c0 -14 2 -19 5 -12 2 6 2 18 0 25 -3 6 -5 1 -5 -13z"/>
<path d="M8722 8850 c0 -14 2 -19 5 -12 2 6 2 18 0 25 -3 6 -5 1 -5 -13z"/>
<path d="M8731 8794 c0 -11 3 -14 6 -6 3 7 2 16 -1 19 -3 4 -6 -2 -5 -13z"/>
<path d="M8560 8775 c0 -9 6 -12 15 -9 8 4 15 10 15 15 0 5 -7 9 -15 9 -8 0
-15 -7 -15 -15z"/>
<path d="M8625 8750 c11 -4 31 -21 45 -38 14 -17 32 -32 40 -34 8 -2 18 -10
22 -18 6 -11 7 -10 5 5 -2 11 -8 19 -15 18 -17 -4 -57 57 -44 66 6 4 -8 7 -31
8 -30 1 -36 -1 -22 -7z"/>
<path d="M8731 8734 c0 -11 3 -14 6 -6 3 7 2 16 -1 19 -3 4 -6 -2 -5 -13z"/>
<path d="M8570 8704 c0 -8 74 -74 78 -69 6 5 -60 75 -70 75 -4 0 -8 -2 -8 -6z"/>
<path d="M8652 8360 c-7 -11 -8 -20 -3 -20 9 0 24 30 18 36 -1 2 -8 -6 -15
-16z"/>
<path d="M4960 8029 c-138 -57 -103 -259 45 -259 103 0 168 111 115 197 -35
58 -105 85 -160 62z"/>
<path d="M7351 8023 c-52 -27 -76 -66 -75 -122 1 -77 53 -130 127 -131 50 0
93 23 117 63 68 111 -56 249 -169 190z"/>
<path d="M6054 7319 c-69 -21 -148 -71 -177 -111 -17 -23 -18 -29 -6 -56 7
-17 16 -29 20 -26 4 2 10 0 14 -6 12 -19 47 -10 94 24 120 88 248 88 428 0 98
-48 119 -49 143 -4 27 50 -4 87 -114 139 -129 62 -285 78 -402 40z"/>
<path d="M5383 6468 c-80 -39 -16 -214 101 -276 l51 -27 640 1 c352 0 654 2
670 3 83 9 142 68 181 181 24 67 24 73 9 96 -12 18 -24 24 -54 24 -46 0 -55
-10 -79 -81 -33 -97 23 -90 -712 -89 l-645 0 -27 30 c-15 16 -33 50 -39 75
-11 42 -40 76 -64 74 -5 0 -20 -5 -32 -11z"/>
<path d="M916 9568 c-17 -24 -20 -56 -8 -75 7 -10 124 -82 447 -273 290 -171
1055 -625 1122 -666 40 -24 83 -44 96 -44 52 0 79 74 41 109 -11 10 -68 47
-129 83 -60 36 -193 114 -295 175 -102 60 -320 190 -485 288 -165 98 -336 199
-380 225 -44 27 -137 82 -208 124 -138 82 -175 92 -201 54z"/>
<path d="M979 6062 c-20 -17 -32 -72 -18 -86 2 -3 137 -83 299 -179 162 -96
313 -186 335 -200 184 -112 318 -187 335 -187 50 0 80 79 41 112 -10 8 -180
111 -377 228 -198 117 -403 239 -457 272 -54 32 -106 58 -116 58 -10 0 -29 -8
-42 -18z m951 -575 c0 -2 -10 -12 -22 -23 l-23 -19 19 23 c18 21 26 27 26 19z"/>
<path d="M10139 5346 c-30 -14 -47 -60 -33 -84 14 -23 82 -64 644 -387 69 -40
240 -138 380 -220 140 -81 300 -173 355 -205 116 -67 219 -126 515 -298 320
-186 336 -194 364 -180 32 14 51 59 37 86 -6 11 -63 50 -128 87 -65 37 -154
89 -198 115 -44 26 -172 101 -285 166 -211 121 -361 208 -535 309 -258 149
-367 212 -450 260 -49 28 -148 85 -220 127 -280 162 -391 225 -406 230 -9 4
-27 1 -40 -6z"/>
<path d="M8528 1568 c14 -46 29 -88 34 -95 10 -12 214 -135 342 -205 38 -21
79 -38 92 -38 47 0 80 66 49 100 -9 10 -108 73 -218 138 -288 171 -307 182
-316 182 -5 0 3 -37 17 -82z"/>
</g>
</svg>
